<svg id="Layer_1" data-name="Layer 1" xmlns="http://www.w3.org/2000/svg" width="1334" height="750" viewBox="0 0 1334 750"><defs><style>.cls-1{fill:#050505;}.cls-2{fill:#966538;}.cls-3{fill:#76cec3;}.cls-4{fill:#0c5b50;}.cls-5{fill:#bebfbf;}.cls-6{fill:#875a00;}.cls-7{fill:#edfbff;}.cls-8{fill:#fff;}</style></defs><title>spilskærm copy</title><rect class="cls-1" x="-2.85" y="-3.72" width="1346.98" height="755.71"/><rect class="cls-2" x="-0.6" y="3.04" width="108.12" height="750.07"/><rect class="cls-2" x="109.28" y="310.16" width="108.12" height="750.07"/><rect class="cls-2" x="219.92" y="-112.92" width="108.12" height="750.07"/><rect class="cls-2" x="219.92" y="639.41" width="108.12" height="750.07"/><rect class="cls-2" x="330.29" y="1.96" width="108.12" height="750.07"/><rect class="cls-2" x="109.55" y="-161.71" width="108.12" height="467.75"/><rect class="cls-2" x="441.85" y="318.6" width="108.12" height="750.07"/><rect class="cls-2" x="552.49" y="-104.48" width="108.12" height="750.07"/><rect class="cls-2" x="552.49" y="647.85" width="108.12" height="750.07"/><rect class="cls-2" x="665.12" y="3.64" width="108.12" height="750.07"/><rect class="cls-2" x="442.12" y="-153.27" width="108.12" height="467.75"/><rect class="cls-2" x="777.47" y="314.09" width="108.12" height="750.07"/><rect class="cls-2" x="888.11" y="-108.98" width="108.12" height="750.07"/><rect class="cls-2" x="888.11" y="643.35" width="108.12" height="750.07"/><rect class="cls-2" x="998.48" y="3.64" width="108.12" height="750.07"/><rect class="cls-2" x="777.74" y="-157.77" width="108.12" height="467.75"/><rect class="cls-2" x="1108.59" y="334.37" width="108.12" height="750.07"/><rect class="cls-2" x="1219.23" y="-88.71" width="108.12" height="750.07"/><rect class="cls-2" x="1219.23" y="663.62" width="108.12" height="750.07"/><rect class="cls-2" x="1327.35" y="3.64" width="108.12" height="750.07"/><rect class="cls-2" x="1108.86" y="-137.5" width="108.12" height="467.75"/><rect class="cls-3" x="168.74" y="97.88" width="14.99" height="521.98"/><rect class="cls-4" x="184.17" y="97.73" width="14.99" height="521.98"/><rect class="cls-3" x="198.17" y="97.85" width="14.99" height="521.98"/><rect class="cls-4" x="213.6" y="97.71" width="14.99" height="521.98"/><rect class="cls-3" x="227.82" y="97.85" width="14.99" height="521.98"/><rect class="cls-4" x="243.25" y="97.71" width="14.99" height="521.98"/><rect class="cls-3" x="257.25" y="97.83" width="14.99" height="521.98"/><rect class="cls-4" x="272.68" y="97.69" width="14.99" height="521.98"/><rect class="cls-3" x="287.34" y="97.85" width="14.99" height="521.98"/><rect class="cls-4" x="302.77" y="97.71" width="14.99" height="521.98"/><rect class="cls-3" x="316.77" y="97.83" width="14.99" height="521.98"/><rect class="cls-4" x="332.2" y="97.69" width="14.99" height="521.98"/><rect class="cls-3" x="346.42" y="97.83" width="14.99" height="521.98"/><rect class="cls-4" x="361.85" y="97.69" width="14.99" height="521.98"/><rect class="cls-3" x="375.85" y="97.81" width="14.99" height="521.98"/><rect class="cls-4" x="391.28" y="97.66" width="14.99" height="521.98"/><rect class="cls-3" x="405.97" y="97.85" width="14.99" height="521.98"/><rect class="cls-4" x="421.4" y="97.71" width="14.99" height="521.98"/><rect class="cls-3" x="435.39" y="97.83" width="14.99" height="521.98"/><rect class="cls-4" x="450.82" y="97.69" width="14.99" height="521.98"/><rect class="cls-3" x="465.05" y="97.83" width="14.99" height="521.98"/><rect class="cls-4" x="480.48" y="97.69" width="14.99" height="521.98"/><rect class="cls-3" x="494.47" y="97.81" width="14.99" height="521.98"/><rect class="cls-4" x="509.9" y="97.66" width="14.99" height="521.98"/><rect class="cls-3" x="524.57" y="97.83" width="14.99" height="521.98"/><rect class="cls-4" x="540" y="97.69" width="14.99" height="521.98"/><rect class="cls-3" x="553.99" y="97.81" width="14.99" height="521.98"/><rect class="cls-4" x="569.42" y="97.66" width="14.99" height="521.98"/><rect class="cls-3" x="583.65" y="97.81" width="14.99" height="521.98"/><rect class="cls-4" x="599.08" y="97.66" width="14.99" height="521.98"/><rect class="cls-3" x="613.07" y="97.79" width="14.99" height="521.98"/><rect class="cls-4" x="628.5" y="97.64" width="14.99" height="521.98"/><rect class="cls-3" x="643.32" y="98.24" width="14.99" height="521.98"/><rect class="cls-4" x="658.75" y="98.1" width="14.99" height="521.98"/><rect class="cls-3" x="672.75" y="98.22" width="14.99" height="521.98"/><rect class="cls-4" x="688.18" y="98.07" width="14.99" height="521.98"/><rect class="cls-3" x="702.4" y="98.22" width="14.99" height="521.98"/><rect class="cls-4" x="717.83" y="98.07" width="14.99" height="521.98"/><rect class="cls-3" x="731.83" y="98.2" width="14.99" height="521.98"/><rect class="cls-4" x="747.26" y="98.05" width="14.99" height="521.98"/><rect class="cls-3" x="761.92" y="98.22" width="14.99" height="521.98"/><rect class="cls-4" x="777.35" y="98.07" width="14.99" height="521.98"/><rect class="cls-3" x="791.35" y="98.2" width="14.99" height="521.98"/><rect class="cls-4" x="806.78" y="98.05" width="14.99" height="521.98"/><rect class="cls-3" x="821" y="98.2" width="14.99" height="521.98"/><rect class="cls-4" x="836.43" y="98.05" width="14.99" height="521.98"/><rect class="cls-3" x="850.43" y="98.18" width="14.99" height="521.98"/><rect class="cls-4" x="865.86" y="98.03" width="14.99" height="521.98"/><rect class="cls-3" x="880.55" y="98.22" width="14.99" height="521.98"/><rect class="cls-4" x="895.98" y="98.07" width="14.99" height="521.98"/><rect class="cls-3" x="909.97" y="98.2" width="14.99" height="521.98"/><rect class="cls-4" x="925.4" y="98.05" width="14.99" height="521.98"/><rect class="cls-3" x="939.63" y="98.2" width="14.99" height="521.98"/><rect class="cls-4" x="955.06" y="98.05" width="14.99" height="521.98"/><rect class="cls-3" x="969.05" y="98.18" width="14.99" height="521.98"/><rect class="cls-4" x="984.48" y="98.03" width="14.99" height="521.98"/><rect class="cls-3" x="999.15" y="98.2" width="14.99" height="521.98"/><rect class="cls-4" x="1014.58" y="98.05" width="14.99" height="521.98"/><rect class="cls-3" x="1028.57" y="98.18" width="14.99" height="521.98"/><rect class="cls-4" x="1044" y="98.03" width="14.99" height="521.98"/><rect class="cls-3" x="1058.23" y="98.18" width="14.99" height="521.98"/><rect class="cls-4" x="1073.66" y="98.03" width="14.99" height="521.98"/><rect class="cls-3" x="1087.65" y="98.15" width="14.99" height="521.98"/><rect class="cls-4" x="1103.08" y="98.01" width="14.99" height="521.98"/><rect class="cls-5" x="1117.08" y="101.44" width="38.25" height="23.16" rx="8.55"/><rect class="cls-5" x="1118.37" y="143.53" width="36.96" height="18.86" rx="6.96"/><rect class="cls-5" x="1117.37" y="182.7" width="36.96" height="18.86" rx="6.96"/><rect class="cls-5" x="1118.66" y="316.04" width="36.96" height="18.86" rx="6.96"/><rect class="cls-5" x="1118.94" y="281.02" width="36.96" height="18.86" rx="6.96"/><rect class="cls-5" x="1118.94" y="251.39" width="36.96" height="18.86" rx="6.96"/><rect class="cls-5" x="1118.39" y="219.15" width="36.96" height="18.86" rx="6.96"/><rect class="cls-5" x="1116.98" y="348.28" width="38.25" height="23.16" rx="8.55"/><rect class="cls-5" x="1118.26" y="383.3" width="36.96" height="18.86" rx="6.96"/><rect class="cls-5" x="1117.26" y="415.62" width="36.96" height="18.86" rx="6.96"/><rect class="cls-5" x="1118.55" y="555.39" width="36.96" height="18.86" rx="6.96"/><rect class="cls-5" x="1118.83" y="513.94" width="36.96" height="18.86" rx="6.96"/><rect class="cls-5" x="1118.83" y="484.31" width="36.96" height="18.86" rx="6.96"/><rect class="cls-5" x="1118.28" y="452.07" width="36.96" height="18.86" rx="6.96"/><rect class="cls-5" x="1119.29" y="591.55" width="38.25" height="23.16" rx="8.55"/><rect class="cls-5" x="130.54" y="107.08" width="38.25" height="23.16" rx="8.55"/><rect class="cls-5" x="131.83" y="153.88" width="36.96" height="18.86" rx="6.96"/><rect class="cls-5" x="130.83" y="186.21" width="36.96" height="18.86" rx="6.96"/><rect class="cls-5" x="132.11" y="319.54" width="36.96" height="18.86" rx="6.96"/><rect class="cls-5" x="132.4" y="284.53" width="36.96" height="18.86" rx="6.96"/><rect class="cls-5" x="132.4" y="254.9" width="36.96" height="18.86" rx="6.96"/><rect class="cls-5" x="131.84" y="222.66" width="36.96" height="18.86" rx="6.96"/><rect class="cls-5" x="130.43" y="351.79" width="38.25" height="23.16" rx="8.55"/><rect class="cls-5" x="131.72" y="386.8" width="36.96" height="18.86" rx="6.96"/><rect class="cls-5" x="130.72" y="419.13" width="36.96" height="18.86" rx="6.96"/><rect class="cls-5" x="132" y="558.89" width="36.96" height="18.86" rx="6.96"/><rect class="cls-5" x="132.29" y="517.45" width="36.96" height="18.86" rx="6.96"/><rect class="cls-5" x="132.29" y="487.82" width="36.96" height="18.86" rx="6.96"/><rect class="cls-5" x="131.74" y="455.58" width="36.96" height="18.86" rx="6.96"/><rect class="cls-5" x="132.74" y="595.06" width="38.25" height="23.16" rx="8.55"/><rect class="cls-6" x="325" y="103.27" width="596.79" height="492.25"/><path class="cls-7" d="M453.33,282.26c-10.95,16.92-39.05,19.73-66.5,20.33-27.45-.6-55.56-3.41-66.51-20.33C308.64,266.2,335,231.11,386.83,230.7,438.65,231.11,465,266.2,453.33,282.26Z"/><path class="cls-8" d="M442.72,281.91c-9.2,14.22-32.82,16.58-55.89,17.09-23.07-.51-46.69-2.87-55.89-17.09-9.82-13.5,12.33-43,55.89-43.32C430.38,238.93,452.53,268.42,442.72,281.91Z"/><path class="cls-7" d="M457.84,462.46c-10.95,16.92-39.06,19.73-66.51,20.33-27.45-.61-55.55-3.41-66.5-20.33-11.69-16.07,14.68-51.15,66.5-51.56C443.16,411.31,469.52,446.39,457.84,462.46Z"/><path class="cls-8" d="M447.22,462.11c-9.2,14.22-32.82,16.58-55.89,17.09-23.07-.51-46.69-2.87-55.89-17.09-9.81-13.5,12.34-43,55.89-43.33C434.89,419.13,457,448.62,447.22,462.11Z"/><path class="cls-7" d="M516.4,157.28c-10.95,16.92-39,19.73-66.5,20.34-27.45-.61-55.56-3.42-66.51-20.34-11.68-16.06,14.68-51.14,66.51-51.55C501.72,106.13,528.08,141.22,516.4,157.28Z"/><path class="cls-8" d="M505.78,156.94C496.58,171.16,473,173.51,449.9,174c-23.07-.52-46.69-2.87-55.89-17.09-9.82-13.5,12.33-43,55.89-43.33C493.45,114,515.6,143.44,505.78,156.94Z"/><path class="cls-7" d="M705.61,153.87c-11,16.92-39.06,19.73-66.51,20.33-27.45-.6-55.55-3.41-66.5-20.33-11.68-16.07,14.68-51.15,66.5-51.56C690.93,102.72,717.29,137.8,705.61,153.87Z"/><path class="cls-8" d="M695,153.52c-9.2,14.22-32.82,16.58-55.89,17.09-23.06-.51-46.68-2.87-55.88-17.09-9.82-13.5,12.33-43,55.88-43.32C682.66,110.54,704.81,140,695,153.52Z"/><path class="cls-7" d="M870,156.12c-10.95,16.92-39,19.73-66.5,20.34C776.08,175.85,748,173,737,156.12c-11.68-16.06,14.68-51.15,66.51-51.56C855.36,105,881.72,140.06,870,156.12Z"/><path class="cls-8" d="M859.42,155.78c-9.2,14.22-32.82,16.57-55.88,17.08-23.07-.51-46.69-2.87-55.89-17.09-9.82-13.49,12.33-43,55.89-43.32C847.09,112.79,869.24,142.28,859.42,155.78Z"/><path class="cls-7" d="M921.85,273.25c-11,16.92-39.06,19.73-66.51,20.33-27.45-.6-55.55-3.41-66.5-20.33-11.68-16.06,14.68-51.15,66.5-51.56C907.17,222.1,933.53,257.19,921.85,273.25Z"/><path class="cls-8" d="M911.23,272.9c-9.2,14.23-32.82,16.58-55.89,17.09-23.07-.51-46.68-2.87-55.89-17.09-9.81-13.5,12.34-43,55.89-43.32C898.9,229.92,921.05,259.41,911.23,272.9Z"/><path class="cls-7" d="M926.35,453.45c-11,16.92-39.05,19.73-66.5,20.33-27.45-.61-55.56-3.41-66.51-20.33-11.68-16.07,14.68-51.15,66.51-51.56C911.67,402.3,938,437.38,926.35,453.45Z"/><path class="cls-8" d="M915.74,453.1c-9.2,14.22-32.82,16.58-55.89,17.09-23.07-.51-46.69-2.87-55.89-17.09-9.82-13.5,12.33-43,55.89-43.33C903.4,410.12,925.55,439.61,915.74,453.1Z"/><path class="cls-7" d="M523.16,570.58c-10.95,16.92-39.06,19.72-66.51,20.33-27.45-.61-55.55-3.41-66.5-20.33-11.68-16.07,14.68-51.15,66.5-51.56C508.48,519.43,534.84,554.51,523.16,570.58Z"/><path class="cls-8" d="M512.54,570.23c-9.2,14.22-32.82,16.58-55.89,17.09-23.06-.51-46.68-2.87-55.88-17.09-9.82-13.5,12.33-43,55.88-43.33C500.21,527.25,522.36,556.73,512.54,570.23Z"/><path class="cls-7" d="M692.09,566.07C681.15,583,653,585.8,625.59,586.41c-27.45-.61-55.56-3.42-66.5-20.34-11.69-16.06,14.67-51.15,66.5-51.56C677.42,514.92,703.78,550,692.09,566.07Z"/><path class="cls-8" d="M681.48,565.73c-9.2,14.22-32.82,16.57-55.89,17.09-23.07-.52-46.69-2.88-55.89-17.09-9.82-13.5,12.34-43,55.89-43.33C669.14,522.74,691.3,552.23,681.48,565.73Z"/><path class="cls-7" d="M856.52,568.32c-10.94,16.92-39,19.73-66.5,20.34-27.45-.61-55.55-3.42-66.5-20.34-11.69-16.06,14.67-51.14,66.5-51.55C841.85,517.18,868.21,552.26,856.52,568.32Z"/><path class="cls-8" d="M845.91,568c-9.2,14.22-32.82,16.58-55.89,17.09-23.07-.51-46.69-2.87-55.89-17.09-9.82-13.5,12.34-43,55.89-43.33C833.57,525,855.73,554.48,845.91,568Z"/></svg>
