<svg id="Layer_1" data-name="Layer 1" xmlns="http://www.w3.org/2000/svg" width="1334" height="750" viewBox="0 0 1334 750"><defs><style>.cls-1{fill:#e08f00;}.cls-2{fill:#0c9b00;}.cls-3{fill:#0b5107;}.cls-4{fill:#020202;}.cls-5{fill:#fff;}.cls-6{fill:#baba00;}.cls-7{fill:#aaa100;}.cls-8{fill:#e0da00;}.cls-9{fill:#aa9e07;}.cls-10{fill:#b5ac00;}.cls-11{fill:#c4ba00;}.cls-12{fill:#c1b700;}.cls-13{fill:#b2a906;}.cls-14{fill:#1b7c00;}.cls-15{fill:#59d82a;}.cls-16{fill:#61b741;}.cls-17{fill:#3fc600;}.cls-18{fill:#4b005b;}</style></defs><title>brocolli forside</title><rect class="cls-1" x="680.21" y="621.82" width="19.02" height="23.42" rx="4" transform="translate(529.82 -289.24) rotate(37.6)"/><path class="cls-1" d="M693.85,635.13,687.18,630c-.37-.29-2.22-.55-1.33-1.71L838.42,416.7c.89-1.15,7.24-2.4,7.61-2.11l15.61,12c.38.29,1.23,7.32.34,8.48C862,435.09,694.22,635.42,693.85,635.13Z"/><rect class="cls-2" x="543.82" y="289.26" width="111.6" height="329.27" rx="55.8"/><ellipse class="cls-3" cx="599.61" cy="584.99" rx="55.8" ry="38.13"/><circle class="cls-4" cx="580.18" cy="375" r="13.15"/><circle class="cls-4" cx="612.77" cy="375" r="13.15"/><rect class="cls-5" x="590.71" y="418.88" width="44.12" height="36.32" rx="4"/><path class="cls-6" d="M561.79,481.05h-5.52a6,6,0,0,1-6-6V455.17a6,6,0,0,1,6-6h5.52a6,6,0,0,1,6,6v19.88A6,6,0,0,1,561.79,481.05Zm-5.52-27.88a2,2,0,0,0-2,2v19.88a2,2,0,0,0,2,2h5.52a2,2,0,0,0,2-2V455.17a2,2,0,0,0-2-2Z"/><path class="cls-6" d="M545,454.66h-4a6,6,0,0,1-6-6V425.41a6,6,0,0,1,6-6h4a6,6,0,0,1,6,6v23.25A6,6,0,0,1,545,454.66Zm-4-31.25a2,2,0,0,0-2,2v23.25a2,2,0,0,0,2,2h4a2,2,0,0,0,2-2V425.41a2,2,0,0,0-2-2Z"/><path class="cls-6" d="M581.82,542.78h-4a6,6,0,0,1-6-6V513.53a6,6,0,0,1,6-6h4a6,6,0,0,1,6,6v23.25A6,6,0,0,1,581.82,542.78Zm-4-31.25a2,2,0,0,0-2,2v23.25a2,2,0,0,0,2,2h4a2,2,0,0,0,2-2V513.53a2,2,0,0,0-2-2Z"/><path class="cls-6" d="M575.8,522.06h-4a6,6,0,0,1-6-6V492.8a6,6,0,0,1,6-6h4a6,6,0,0,1,6,6v23.26A6,6,0,0,1,575.8,522.06Zm-4-31.26a2,2,0,0,0-2,2v23.26a2,2,0,0,0,2,2h4a2,2,0,0,0,2-2V492.8a2,2,0,0,0-2-2Z"/><path class="cls-6" d="M553,466.23h-4a6,6,0,0,1-6-6V437a6,6,0,0,1,6-6h4a6,6,0,0,1,6,6v23.26A6,6,0,0,1,553,466.23ZM549,435a2,2,0,0,0-2,2v23.26a2,2,0,0,0,2,2h4a2,2,0,0,0,2-2V437a2,2,0,0,0-2-2Z"/><path class="cls-6" d="M569.79,501.74h-4a6,6,0,0,1-6-6V472.49a6,6,0,0,1,6-6h4a6,6,0,0,1,6,6v23.25A6,6,0,0,1,569.79,501.74Zm-4-31.25a2,2,0,0,0-2,2v23.25a2,2,0,0,0,2,2h4a2,2,0,0,0,2-2V472.49a2,2,0,0,0-2-2Z"/><path class="cls-6" d="M648.85,481.05h-5.52a6,6,0,0,1-6-6V455.17a6,6,0,0,1,6-6h5.52a6,6,0,0,1,6,6v19.88A6,6,0,0,1,648.85,481.05Zm-5.52-27.88a2,2,0,0,0-2,2v19.88a2,2,0,0,0,2,2h5.52a2,2,0,0,0,2-2V455.17a2,2,0,0,0-2-2Z"/><path class="cls-6" d="M664.18,454.66h-4a6,6,0,0,1-6-6V425.41a6,6,0,0,1,6-6h4a6,6,0,0,1,6,6v23.25A6,6,0,0,1,664.18,454.66Zm-4-31.25a2,2,0,0,0-2,2v23.25a2,2,0,0,0,2,2h4a2,2,0,0,0,2-2V425.41a2,2,0,0,0-2-2Z"/><path class="cls-6" d="M627.33,542.78h-4a6,6,0,0,1-6-6V513.53a6,6,0,0,1,6-6h4a6,6,0,0,1,6,6v23.25A6,6,0,0,1,627.33,542.78Zm-4-31.25a2,2,0,0,0-2,2v23.25a2,2,0,0,0,2,2h4a2,2,0,0,0,2-2V513.53a2,2,0,0,0-2-2Z"/><path class="cls-6" d="M633.35,522.06h-4a6,6,0,0,1-6-6V492.8a6,6,0,0,1,6-6h4a6,6,0,0,1,6,6v23.26A6,6,0,0,1,633.35,522.06Zm-4-31.26a2,2,0,0,0-2,2v23.26a2,2,0,0,0,2,2h4a2,2,0,0,0,2-2V492.8a2,2,0,0,0-2-2Z"/><path class="cls-6" d="M656.14,466.23h-4a6,6,0,0,1-6-6V437a6,6,0,0,1,6-6h4a6,6,0,0,1,6,6v23.26A6,6,0,0,1,656.14,466.23Zm-4-31.26a2,2,0,0,0-2,2v23.26a2,2,0,0,0,2,2h4a2,2,0,0,0,2-2V437a2,2,0,0,0-2-2Z"/><path class="cls-6" d="M639.37,501.74h-4a6,6,0,0,1-6-6V472.49a6,6,0,0,1,6-6h4a6,6,0,0,1,6,6v23.25A6,6,0,0,1,639.37,501.74Zm-4-31.25a2,2,0,0,0-2,2v23.25a2,2,0,0,0,2,2h4a2,2,0,0,0,2-2V472.49a2,2,0,0,0-2-2Z"/><ellipse class="cls-7" cx="584.39" cy="527.86" rx="5.89" ry="6.9"/><path class="cls-8" d="M584.39,536.76c-4.35,0-7.89-4-7.89-8.9s3.54-8.9,7.89-8.9,7.89,4,7.89,8.9S588.74,536.76,584.39,536.76Zm0-13.8c-2.15,0-3.89,2.2-3.89,4.9s1.74,4.9,3.89,4.9,3.89-2.2,3.89-4.9S586.53,523,584.39,523Z"/><ellipse class="cls-9" cx="590.7" cy="517.94" rx="6.31" ry="7.39"/><path class="cls-8" d="M590.7,527.32c-4.58,0-8.31-4.21-8.31-9.38s3.73-9.39,8.31-9.39,8.3,4.21,8.3,9.39S595.28,527.32,590.7,527.32Zm0-14.77c-2.38,0-4.31,2.42-4.31,5.39s1.93,5.38,4.31,5.38,4.3-2.41,4.3-5.38S593.07,512.55,590.7,512.55Z"/><ellipse class="cls-10" cx="598.73" cy="510.81" rx="5.56" ry="10.15"/><path class="cls-8" d="M598.73,523c-4.31,0-7.56-5.22-7.56-12.15s3.25-12.15,7.56-12.15,7.55,5.22,7.55,12.15S603,523,598.73,523Zm0-20.3c-1.45,0-3.56,3.18-3.56,8.15s2.11,8.15,3.56,8.15,3.55-3.17,3.55-8.15S600.18,502.66,598.73,502.66Z"/><ellipse class="cls-11" cx="596.28" cy="530.77" rx="8" ry="12.84"/><path class="cls-8" d="M596.28,545.61c-5.61,0-10-6.52-10-14.84s4.39-14.83,10-14.83,10,6.52,10,14.83S601.89,545.61,596.28,545.61Zm0-25.67c-3.2,0-6,5.06-6,10.83s2.8,10.84,6,10.84,6-5.06,6-10.84S599.48,519.94,596.28,519.94Z"/><ellipse class="cls-12" cx="608.87" cy="517.19" rx="11.86" ry="10.67"/><path class="cls-8" d="M608.87,529.86c-7.65,0-13.87-5.68-13.87-12.67s6.22-12.66,13.87-12.66,13.86,5.68,13.86,12.66S616.51,529.86,608.87,529.86Zm0-21.33c-5.44,0-9.87,3.88-9.87,8.66s4.43,8.67,9.87,8.67,9.86-3.89,9.86-8.67S614.31,508.53,608.87,508.53Z"/><ellipse class="cls-13" cx="611.71" cy="532.49" rx="9.02" ry="14.55"/><path class="cls-8" d="M611.71,549c-6.18,0-11-7.27-11-16.55s4.85-16.55,11-16.55,11,7.27,11,16.55S617.89,549,611.71,549Zm0-29.1c-3.81,0-7,5.75-7,12.55s3.22,12.55,7,12.55,7-5.75,7-12.55S615.52,519.94,611.71,519.94Z"/><rect class="cls-8" x="593.17" y="538.66" width="11.11" height="42.24" rx="4"/><path class="cls-8" d="M600.28,582.91h-3.11a6,6,0,0,1-6-6V542.66a6,6,0,0,1,6-6h3.11a6,6,0,0,1,6,6v34.25A6,6,0,0,1,600.28,582.91Zm-3.11-42.25a2,2,0,0,0-2,2v34.25a2,2,0,0,0,2,2h3.11a2,2,0,0,0,2-2V542.66a2,2,0,0,0-2-2Z"/><circle class="cls-14" cx="533.62" cy="250.06" r="78.09"/><ellipse class="cls-15" cx="575.08" cy="157.9" rx="50.85" ry="78.27"/><ellipse class="cls-16" cx="658.74" cy="254.75" rx="70.46" ry="82.78"/><ellipse class="cls-17" cx="651.46" cy="154.3" rx="51.84" ry="64.97"/><path d="M495.71,549a4,4,0,0,1-2.94-6.71l48.1-52.23a4,4,0,0,1,5.89,5.42l-48.11,52.23A4,4,0,0,1,495.71,549Z"/><rect x="594.23" y="472.31" width="8" height="217.28" transform="translate(-147.9 953.33) rotate(-70.68)"/><rect x="696.76" y="589.16" width="21.66" height="43.92" transform="translate(519.86 -304.8) rotate(37.6)"/><path d="M707.59,615.12a4,4,0,0,1-3.71-2.51L655,491.19a4,4,0,0,1,7.42-3L711.3,609.63a4,4,0,0,1-2.22,5.2A4,4,0,0,1,707.59,615.12Z"/><rect x="578.5" y="618.53" width="7.32" height="101.92" rx="3.66"/><rect x="609.11" y="618.53" width="7.32" height="101.92" rx="3.66"/><rect x="527.64" y="714.77" width="58.74" height="25.06"/><rect x="607.98" y="714.77" width="58.74" height="25.06"/><polygon class="cls-18" points="489.28 214.83 466.98 197.85 469.56 193.6 491.86 210.59 489.28 214.83"/><path class="cls-18" d="M495.1,236.73l-8.4-5.43a6,6,0,0,1-1.83-7.64l10.59-20.54a4.73,4.73,0,0,1,6.83-2.05l8.39,5.43a6,6,0,0,1,1.83,7.64l-10.59,20.54A4.73,4.73,0,0,1,495.1,236.73Z"/><polygon class="cls-18" points="495.52 225.51 511.62 237.78 510.83 239.06 494.74 226.8 495.52 225.51"/><polygon class="cls-18" points="499.06 221.57 515.15 233.84 514.37 235.12 498.27 222.86 499.06 221.57"/><polygon class="cls-18" points="495.52 215.02 511.62 227.29 510.83 228.57 494.74 216.31 495.52 215.02"/><polygon class="cls-18" points="498.59 211.24 514.69 223.5 513.91 224.79 497.81 212.52 498.59 211.24"/><polygon class="cls-18" points="508.13 206.63 524.23 218.9 523.45 220.18 507.35 207.92 508.13 206.63"/><polygon class="cls-18" points="493.08 231.4 509.18 243.67 508.4 244.95 492.3 232.69 493.08 231.4"/><polygon class="cls-18" points="506.4 209.48 522.5 221.74 521.72 223.03 505.62 210.76 506.4 209.48"/><rect x="599.61" y="436.54" width="27.7" height="1"/><rect x="612.62" y="423.41" width="1" height="25.2" transform="translate(-11.81 17.1) rotate(-1.58)"/></svg>