<svg id="Layer_1" data-name="Layer 1" xmlns="http://www.w3.org/2000/svg" xmlns:xlink="http://www.w3.org/1999/xlink" width="135.65" height="78.17" viewBox="0 0 135.65 78.17"><defs><style>.cls-1{fill:url(#radial-gradient);}.cls-2{fill:#0c9b00;}.cls-3{fill:#0b5107;}.cls-4{fill:#1b7c00;}.cls-5{fill:#59d82a;}.cls-6{fill:#61b741;}.cls-7{fill:#3fc600;}</style><radialGradient id="radial-gradient" cx="-274.32" cy="-697.34" r="9.83" gradientTransform="translate(1611.58 601.02) scale(5.62 0.77)" gradientUnits="userSpaceOnUse"><stop offset="0" stop-opacity="0.6"/><stop offset="1" stop-color="#1d1d1b" stop-opacity="0"/></radialGradient></defs><title>Brocolli</title><ellipse class="cls-1" cx="69.89" cy="62.33" rx="70" ry="18.13"/><path class="cls-2" d="M10,58.37h0a11.45,11.45,0,0,1,6.15-15L57.67,26A11.62,11.62,0,0,1,72.8,32.1h0a11.45,11.45,0,0,1-6.15,15L25.14,64.47A11.61,11.61,0,0,1,10,58.37Z"/><ellipse class="cls-3" cx="16.41" cy="55.7" rx="7.88" ry="11.47" transform="translate(-20.74 11.08) rotate(-23.37)"/><ellipse class="cls-4" cx="74.96" cy="16.49" rx="16.16" ry="16.03"/><ellipse class="cls-5" cx="95.87" cy="16.98" rx="16.18" ry="10.45" transform="translate(0.79 37.91) rotate(-22.46)"/><ellipse class="cls-6" cx="84.13" cy="40.53" rx="17.11" ry="14.48" transform="translate(-9.04 34.2) rotate(-21.83)"/><ellipse class="cls-7" cx="102.7" cy="31.13" rx="13.43" ry="10.65" transform="translate(-4.16 40.96) rotate(-22.12)"/></svg>
