<svg id="Layer_1" data-name="Layer 1" xmlns="http://www.w3.org/2000/svg" width="858.16" height="489.64" viewBox="0 0 858.16 489.64"><defs><style>.cls-1{fill:#0086e0;stroke:#b5230b;stroke-width:14px;}.cls-1,.cls-5,.cls-6{stroke-miterlimit:10;}.cls-2{fill:#ffd2fe;}.cls-3{fill:#705300;}.cls-4{fill:#fff;}.cls-5{fill:#020202;stroke:#000;stroke-width:10px;}.cls-6{fill:#b5230b;stroke:#fce900;stroke-width:5px;}</style></defs><title>complete_udenknap</title><rect class="cls-1" x="7" y="7" width="844.16" height="475.64" rx="103.82"/><rect class="cls-2" x="377.59" y="234.91" width="29.34" height="52.19" rx="14.67" transform="translate(-78.06 289.15) rotate(-37.06)"/><rect class="cls-2" x="260.08" y="262.28" width="29.34" height="52.19" rx="14.67" transform="translate(-107.38 176.01) rotate(-30)"/><ellipse class="cls-3" cx="135.19" cy="185.59" rx="33.1" ry="21.5"/><ellipse class="cls-3" cx="92.87" cy="236.44" rx="24.91" ry="16.38"/><ellipse class="cls-3" cx="128.7" cy="274.31" rx="39.58" ry="21.5"/><ellipse class="cls-3" cx="151.57" cy="239.17" rx="49.48" ry="32.08"/><ellipse class="cls-3" cx="293.18" cy="181.84" rx="105.78" ry="82.58"/><ellipse class="cls-3" cx="238.92" cy="210.16" rx="70.64" ry="89.75"/><circle class="cls-3" cx="211.97" cy="157.27" r="62.79"/><ellipse class="cls-3" cx="404.08" cy="143.96" rx="27.64" ry="29.69" transform="translate(-23.39 179.69) rotate(-24.39)"/><ellipse class="cls-3" cx="417.05" cy="216.99" rx="58.35" ry="14.67"/><ellipse class="cls-3" cx="470.97" cy="179.79" rx="30.37" ry="27.3"/><ellipse class="cls-3" cx="372.01" cy="227.9" rx="35.15" ry="33.1"/><ellipse class="cls-3" cx="402.38" cy="167.85" rx="38.22" ry="34.47"/><ellipse class="cls-3" cx="170.33" cy="269.88" rx="41.63" ry="33.44"/><ellipse class="cls-3" cx="384.85" cy="166.82" rx="51.87" ry="32.76"/><ellipse class="cls-3" cx="133.36" cy="227.9" rx="38.56" ry="20.82"/><ellipse class="cls-3" cx="426.11" cy="192.55" rx="36.17" ry="19.79"/><circle class="cls-3" cx="351.87" cy="220.06" r="47.09"/><ellipse class="cls-3" cx="161.46" cy="214.05" rx="26.28" ry="39.24"/><circle class="cls-4" cx="195.61" cy="216.24" r="23.69"/><circle class="cls-4" cx="312.25" cy="185.59" r="23.69"/><ellipse class="cls-3" cx="331.56" cy="222.85" rx="13.99" ry="8.8"/><path class="cls-4" d="M367.32,206.23c6.45,10.26-4.72,32.23-17.33,40.16s-47.83,6.15-34.5-4.23C325.92,234,360.86,196,367.32,206.23Z"/><rect x="329" y="235.83" width="23.74" height="1.21" transform="translate(-73.63 253.21) rotate(-37.06)"/><ellipse class="cls-3" cx="437.7" cy="147.71" rx="24.58" ry="34.12"/><ellipse class="cls-3" cx="254.1" cy="102.33" rx="47.77" ry="31.05"/><ellipse class="cls-3" cx="340.86" cy="110.86" rx="23.29" ry="16.38"/><ellipse class="cls-3" cx="384.79" cy="115.98" rx="39.24" ry="31.74"/><circle cx="187.74" cy="214.05" r="7.11"/><circle cx="305.14" cy="181.92" r="7.11"/><circle class="cls-4" cx="184.91" cy="212.21" r="3.85"/><circle class="cls-4" cx="301.87" cy="181.84" r="3.85"/><rect x="156.86" y="183.07" width="21.72" height="1.21" transform="translate(-79.06 214.76) rotate(-54.78)"/><rect x="323.95" y="125.28" width="1.21" height="26.79" transform="translate(68.98 382.08) rotate(-66.74)"/><rect class="cls-4" x="398.96" y="253.29" width="8.19" height="21.02" rx="4.09" transform="translate(-77.56 296.22) rotate(-37.06)"/><rect class="cls-4" x="282.36" y="283.87" width="8.19" height="16.93" rx="4.09" transform="translate(-118.31 231.71) rotate(-37.06)"/><line class="cls-5" x1="336.01" y1="329.03" x2="475.12" y2="443.84"/><line class="cls-5" x1="399.83" y1="314.65" x2="569.01" y2="451.25"/><line class="cls-5" x1="455.83" y1="304.79" x2="651.54" y2="466.74"/><line class="cls-5" x1="490.65" y1="253.2" x2="741.65" y2="455.62"/><path class="cls-6" d="M71.42,353.64,73,333.28q17.51-.84,26.15-1.42,4.17,6.19,8.38,11.41a85.62,85.62,0,0,0,8-11.21q8.44.54,19.24.8,4.68,46.15,5.51,57.9A139.25,139.25,0,0,1,120.62,393q-1.07-11.91-2.14-26.8l-12,11.19q-6.22-6.25-10.23-10.92-1.1,15.39-1.61,26.37L74,392l3-37.92Z"/><path class="cls-6" d="M189.4,337.65a27.33,27.33,0,0,1,9.09,13.78A36.92,36.92,0,0,1,199.76,362Q196.9,392.79,167.42,392q-12.19,0-20.09-10.19a29.9,29.9,0,0,1-4.44-13.07,39.3,39.3,0,0,1,1.81-15.51q3.18-8.62,8.6-13.36Q170.3,324.75,189.4,337.65Zm-26.58,28.74q1.63,4.91,7.25,5a9.41,9.41,0,0,0,7.94-3q3.27-4.22,1.51-8.45-2.43-5.4-7.24-5.29a10.2,10.2,0,0,0-8.83,6.22A8.46,8.46,0,0,0,162.82,366.39Z"/><path class="cls-6" d="M204,335.2q10.28-3.09,25.68-2.94,13.8.47,21.68,7.53t8.26,23.46q-.41,10.78-4.75,16.16-9.39,11.55-23.32,12-13.64.89-19.35-.6.16-12.92-.82-38.35l-6.25.6Q204.16,341.6,204,335.2ZM229.5,371a15.13,15.13,0,0,0,9.28-2.75q3.43-2.62,2.65-8.18-1.27-10.65-13.17-9.18Q229,359.93,229.5,371Z"/><path class="cls-6" d="M283.9,335.2q10.28-3.09,25.68-2.94,13.8.47,21.68,7.53t8.26,23.46q-.39,10.78-4.75,16.16-9.37,11.55-23.31,12-13.65.89-19.36-.6.16-12.92-.82-38.35l-6.24.6Q284.08,341.6,283.9,335.2ZM309.43,371a15.12,15.12,0,0,0,9.27-2.75q3.44-2.62,2.65-8.18-1.26-10.65-13.17-9.18Q308.89,359.93,309.43,371Z"/><path class="cls-6" d="M388.66,332.21q-.95,10.85-.89,18.42l-22,.16.18,4.94,15.36-.46.42,14.2q-5.88.51-15.27.8l.09,4.37q9.81,0,21.8-.69.3,11.24.9,17.63-11.67.3-42.23,1,.4-24.29,0-41.67l-5,.11-.47-18.15Q354.82,332.88,388.66,332.21Z"/><path class="cls-6" d="M446.29,332.06a83,83,0,0,1-.4,20.64,148.24,148.24,0,0,0-17.35.25l.49,39q-10.95.51-20.86.31l1.11-39.42q-8.56,0-16.68.38a154.33,154.33,0,0,1,0-21.29Q418.91,332.41,446.29,332.06Z"/><path class="cls-6" d="M473.33,352.55a121.86,121.86,0,0,1,1-18.44q16.65-2.16,26.31-1.9a151.46,151.46,0,0,0-1.46,16.11q-.69,12,1.28,17.85c.93,2.18,2.29,3.35,4.06,3.5a4.16,4.16,0,0,0,4.21-3.3q2.44-11.36.38-34.22l19.51,1.22A135.12,135.12,0,0,1,530,363.85q-2.1,22.06-18.46,28.2a28.81,28.81,0,0,1-15.63.56q-13.65-4.68-16.74-26.06-1-10-.11-14.47Z"/><path class="cls-6" d="M581.5,332.21q-.94,10.85-.89,18.42l-22,.16.18,4.94,15.36-.46.42,14.2q-5.88.51-15.27.8l.09,4.37q9.81,0,21.8-.69.3,11.24.9,17.63-11.67.3-42.23,1,.4-24.29,0-41.67l-5,.11-.47-18.15Q547.66,332.88,581.5,332.21Z"/><path class="cls-6" d="M586.58,333.6l21.71-2.25q5.34,9.84,16,21.26-.3-5.6-.73-19.53,10.81-.37,20.17-1.42,0,34.26-.55,60.75-5.38,0-13.54.35a261.08,261.08,0,0,0-19.24-23.65l.25,23.65a182.58,182.58,0,0,0-18.55.2q.54-17.74.18-40.73l-6.2.52Z"/><path class="cls-6" d="M647.84,335.2q10.29-3.09,25.69-2.94,13.8.47,21.68,7.53t8.26,23.46q-.4,10.78-4.75,16.16-9.39,11.55-23.32,12-13.65.89-19.35-.6.15-12.92-.83-38.35l-6.24.6Q648,341.6,647.84,335.2ZM673.37,371a15.12,15.12,0,0,0,9.27-2.75q3.43-2.62,2.66-8.18-1.27-10.65-13.18-9.18Q672.84,359.93,673.37,371Z"/><path class="cls-6" d="M752.6,332.21q-.93,10.85-.89,18.42l-22,.16.18,4.94,15.36-.46.43,14.2q-5.89.51-15.28.8l.09,4.37q9.81,0,21.81-.69.29,11.24.89,17.63-11.65.3-42.23,1,.41-24.29,0-41.67l-5,.11-.47-18.15Q718.76,332.88,752.6,332.21Z"/><path class="cls-6" d="M790.17,354.75a151.63,151.63,0,0,1-.12,15.27q-16.66.25-33.3,0l-.31-14.91Q774,354.66,790.17,354.75Z"/><path class="cls-6" d="M92.38,387.38l0,41.87q8.57-.19,18.08-.45a82.28,82.28,0,0,1-1.11,18.08q-14,1.37-36.83.63.91-46.2.58-59.53A185.08,185.08,0,0,1,92.38,387.38Z"/><path class="cls-6" d="M133.4,388.36q-1,30.66-1.12,58-9.6.47-21.53.4-1.5-21.45-.49-57.65Q117.88,387,133.4,388.36Z"/><path class="cls-6" d="M166.68,447.46l.27-2.63q-22.72,5-31.39-13.51-7.19-18,5.84-34.6,13.72-13.68,40.37-9.16a111,111,0,0,1-.24,20.42q-6.51-2.07-16.3-1.25-9.21,1.95-11.44,8.16-2,10.32,4.89,13.62,6.51,1.19,9.74-1.71a20.7,20.7,0,0,0-5.53.13l-.11-11.32q15.91-.09,21.11-.47Q184,433,183.47,447A106.44,106.44,0,0,1,166.68,447.46Z"/><path class="cls-6" d="M233.07,387q-.93,10.85-.89,18.42l-22,.15.18,4.95,15.36-.46.43,14.2q-5.9.51-15.28.8l.09,4.37q9.81,0,21.81-.69.28,11.24.89,17.63-11.65.28-42.23,1,.4-24.27,0-41.66l-5,.11-.47-18.15Q199.23,387.67,233.07,387Z"/><path class="cls-6" d="M259.65,390q10.28-3.09,25.68-2.94,13.8.46,21.68,7.53T315.27,418q-.4,10.79-4.75,16.16-9.39,11.55-23.32,12-13.65.88-19.35-.6.15-12.92-.83-38.35l-6.24.6Q259.82,396.39,259.65,390Zm25.52,35.8a15.1,15.1,0,0,0,9.28-2.74q3.42-2.62,2.65-8.18-1.28-10.65-13.18-9.18Q284.64,414.72,285.17,425.79Z"/><path class="cls-6" d="M317.41,407.34a121.86,121.86,0,0,1,1-18.44Q335,386.74,344.7,387a150.59,150.59,0,0,0-1.47,16.11q-.68,12,1.29,17.85c.93,2.18,2.29,3.35,4.05,3.5a4.17,4.17,0,0,0,4.22-3.3q2.44-11.36.38-34.22l19.5,1.22a134.59,134.59,0,0,1,1.39,30.48q-2.1,22.07-18.46,28.2a28.81,28.81,0,0,1-15.63.56q-13.65-4.68-16.74-26.06c-.66-6.68-.69-11.5-.12-14.47Z"/><path class="cls-6" d="M377.87,388.39l21.71-2.26q5.32,9.86,16,21.27-.32-5.59-.73-19.53,10.8-.37,20.17-1.42,0,34.26-.56,60.75-5.37,0-13.53.35a261.08,261.08,0,0,0-19.24-23.65l.25,23.65a182.55,182.55,0,0,0-18.55.2Q384,430,383.6,407l-6.2.52Z"/><path class="cls-6" d="M435.23,443.74q.27-9.39.71-19.64,13,7.38,22.47,6.49c2.81-.52,4.2-1.67,4.15-3.46q0-1.67-4.08-1.29a47,47,0,0,1-7.44-.2,19.27,19.27,0,0,1-4.66-.6,22,22,0,0,1-7.05-2.5,11.32,11.32,0,0,1-4.61-4.73,13.45,13.45,0,0,1-1.81-5.79q-.87-12,6.49-20,12.47-12.17,39.75-2.8l-.4,19.81a49.45,49.45,0,0,0-12.35-4.81q-11.91-2.5-12.35,2.87,0,3.47,7.4,2.37a27.65,27.65,0,0,1,12.94,1.1,12.58,12.58,0,0,1,7.46,6.7q2.44,8,.49,14.14-5.29,15.09-22.21,17.05Q448.21,449.32,435.23,443.74Z"/><path class="cls-6" d="M532.59,387q-.95,10.85-.9,18.42l-22,.15.18,4.95,15.36-.46.42,14.2q-5.88.51-15.27.8l.09,4.37q9.81,0,21.8-.69.29,11.24.89,17.63-11.65.28-42.22,1,.4-24.27,0-41.66l-5,.11-.47-18.15Q498.74,387.67,532.59,387Z"/><path class="cls-6" d="M537.36,406.11a156.21,156.21,0,0,1-2.54-17.21,147.41,147.41,0,0,1,23.85-2.7q5.36,25,9.1,36.45a334,334,0,0,0,8.44-36l19.38,1.48q-12.89,44.31-16.5,58.81a111,111,0,0,1-21,0q-9.87-25.9-14.38-41.73Z"/><path class="cls-6" d="M645.19,387q-.93,10.85-.89,18.42l-22,.15.18,4.95,15.36-.46.43,14.2q-5.9.51-15.28.8l.09,4.37q9.81,0,21.81-.69.28,11.24.89,17.63-11.65.28-42.23,1,.4-24.27,0-41.66l-5,.11-.47-18.15Q611.35,387.67,645.19,387Z"/><path class="cls-6" d="M648.89,408q.65-10.79,1-18.39,16.83-4,30.12-2.86a29.65,29.65,0,0,1,12.66,4.71q6,4,7.72,8.65,3.61,14-11.24,25a86,86,0,0,0,11.53,11.57l-14.92,13.69-12.21-16.79q-.07,7.62-.07,13.93-12.6.66-18.86-.37-.17-9.07.58-40.07Zm24.79-3.32a82.89,82.89,0,0,0-.11,10l3.19-.94c3.65-1.75,5.48-3.73,5.46-6a2.91,2.91,0,0,0-2.79-3.14A11.26,11.26,0,0,0,673.68,404.64Z"/><path class="cls-6" d="M699.16,443.74q.27-9.39.72-19.64,12.95,7.38,22.47,6.49,4.21-.78,4.15-3.46,0-1.67-4.08-1.29a47.08,47.08,0,0,1-7.45-.2,19.33,19.33,0,0,1-4.66-.6,21.84,21.84,0,0,1-7-2.5,11.34,11.34,0,0,1-4.62-4.73,13.45,13.45,0,0,1-1.8-5.79q-.87-12,6.48-20,12.46-12.17,39.75-2.8l-.4,19.81a49.31,49.31,0,0,0-12.35-4.81q-11.91-2.5-12.35,2.87,0,3.47,7.4,2.37a27.64,27.64,0,0,1,12.94,1.1,12.55,12.55,0,0,1,7.46,6.7q2.44,8,.49,14.14-5.28,15.09-22.2,17.05Q712.13,449.32,699.16,443.74Z"/><path class="cls-6" d="M767,435q4.95,2,4.08,6.22c-.39,1.58-1.6,3.08-3.66,4.53a15.34,15.34,0,0,1-5.1,1.87,15.14,15.14,0,0,1-7.58-.65q-6.4-2.54-5-7.31a8.38,8.38,0,0,1,5.22-4.5,21.66,21.66,0,0,1,8.13-1.1A23.22,23.22,0,0,1,767,435ZM771,387.41q-1.29,30.06-2.21,42.67-8.16.3-17.39.08a.18.18,0,0,0-.15-.17q-1-13.67-1.45-42.38A166.63,166.63,0,0,1,771,387.41Z"/></svg>
