<svg id="Layer_1" data-name="Layer 1" xmlns="http://www.w3.org/2000/svg" width="1334" height="750" viewBox="0 0 1334 750"><defs><style>.cls-1{fill:#ffd2fe;}.cls-2{fill:#705300;}.cls-3{fill:#fff;}</style></defs><title>frikadelle forside</title><rect class="cls-1" x="887.07" y="501.7" width="72.63" height="129.19" rx="36.31" transform="translate(-154.75 670.93) rotate(-37.06)"/><rect class="cls-1" x="596.19" y="569.45" width="72.63" height="129.19" rx="36.31" transform="translate(-232.29 401.2) rotate(-30)"/><ellipse class="cls-2" cx="287.03" cy="379.62" rx="81.93" ry="53.21"/><ellipse class="cls-2" cx="182.29" cy="505.48" rx="61.66" ry="40.54"/><ellipse class="cls-2" cx="270.98" cy="599.23" rx="97.98" ry="53.21"/><ellipse class="cls-2" cx="327.58" cy="512.23" rx="122.48" ry="79.4"/><ellipse class="cls-2" cx="678.12" cy="370.33" rx="261.85" ry="204.41"/><ellipse class="cls-2" cx="543.82" cy="440.44" rx="174.85" ry="222.15"/><circle class="cls-2" cx="477.09" cy="309.51" r="155.42"/><ellipse class="cls-2" cx="952.64" cy="276.57" rx="68.42" ry="73.49" transform="translate(-29.2 418.01) rotate(-24.39)"/><ellipse class="cls-2" cx="984.74" cy="457.33" rx="144.44" ry="36.32"/><ellipse class="cls-2" cx="1118.2" cy="365.26" rx="75.18" ry="67.57"/><ellipse class="cls-2" cx="873.24" cy="484.36" rx="87" ry="81.93"/><ellipse class="cls-2" cx="948.42" cy="335.7" rx="94.6" ry="85.31"/><ellipse class="cls-2" cx="374.04" cy="588.25" rx="103.05" ry="82.78"/><ellipse class="cls-2" cx="905.04" cy="333.16" rx="128.39" ry="81.09"/><ellipse class="cls-2" cx="282.51" cy="484.36" rx="95.45" ry="51.53"/><ellipse class="cls-2" cx="1007.17" cy="396.85" rx="89.54" ry="48.99"/><circle class="cls-2" cx="823.4" cy="464.93" r="116.57"/><ellipse class="cls-2" cx="352.07" cy="450.06" rx="65.04" ry="97.14"/><circle class="cls-3" cx="436.59" cy="455.48" r="58.64"/><circle class="cls-3" cx="725.33" cy="379.62" r="58.64"/><ellipse class="cls-2" cx="773.13" cy="471.86" rx="34.63" ry="21.79"/><path class="cls-3" d="M861.64,430.7c16,25.41-11.69,79.79-42.89,99.41s-118.4,15.22-85.42-10.46C759.17,499.53,845.66,405.3,861.64,430.7Z"/><rect x="766.78" y="503.98" width="58.76" height="3" transform="matrix(0.8, -0.6, 0.6, 0.8, -143.8, 581.97)"/><ellipse class="cls-2" cx="1035.86" cy="285.86" rx="60.85" ry="84.47"/><ellipse class="cls-2" cx="581.38" cy="173.52" rx="118.26" ry="76.87"/><ellipse class="cls-2" cx="796.15" cy="194.63" rx="57.66" ry="40.54"/><ellipse class="cls-2" cx="904.9" cy="207.3" rx="97.14" ry="78.56"/><circle cx="417.11" cy="450.06" r="17.59"/><circle cx="707.73" cy="370.52" r="17.59"/><circle class="cls-3" cx="410.11" cy="445.52" r="9.54"/><circle class="cls-3" cx="699.64" cy="370.33" r="9.54"/><rect x="340.69" y="373.39" width="53.76" height="3" transform="translate(-150.68 458.96) rotate(-54.78)"/><rect x="754.28" y="230.32" width="3" height="66.3" transform="matrix(0.39, -0.92, 0.92, 0.39, 215.25, 853.77)"/><rect class="cls-3" x="939.97" y="547.2" width="20.27" height="52.03" rx="10.14" transform="translate(-153.53 688.44) rotate(-37.06)"/><rect class="cls-3" x="651.34" y="622.88" width="20.27" height="41.9" rx="10.14" transform="translate(-254.4 528.75) rotate(-37.06)"/></svg>