<svg id="Layer_1" data-name="Layer 1" xmlns="http://www.w3.org/2000/svg" xmlns:xlink="http://www.w3.org/1999/xlink" width="140" height="80" viewBox="0 0 140 80"><defs><style>.cls-1{fill:url(#radial-gradient);}.cls-2{fill:#705300;}</style><radialGradient id="radial-gradient" cx="523.02" cy="1233.81" r="34.86" gradientTransform="translate(-274.74 -201.99) scale(0.7 0.21)" gradientUnits="userSpaceOnUse"><stop offset="0" stop-opacity="0.6"/><stop offset="1" stop-color="#1d1d1b" stop-opacity="0"/></radialGradient></defs><title>frikadelle</title><ellipse class="cls-1" cx="90.9" cy="56.77" rx="30.88" ry="17.46"/><ellipse class="cls-2" cx="33.79" cy="33.47" rx="8.02" ry="5.21"/><ellipse class="cls-2" cx="23.54" cy="45.79" rx="6.04" ry="3.97"/><ellipse class="cls-2" cx="32.22" cy="54.97" rx="9.59" ry="5.21"/><ellipse class="cls-2" cx="37.76" cy="46.45" rx="11.99" ry="7.77"/><ellipse class="cls-2" cx="72.07" cy="32.56" rx="25.63" ry="20.01"/><ellipse class="cls-2" cx="58.92" cy="39.42" rx="17.11" ry="21.74"/><circle class="cls-2" cx="52.39" cy="26.61" r="15.21"/><ellipse class="cls-2" cx="98.94" cy="23.38" rx="6.7" ry="7.19" transform="translate(-0.83 42.94) rotate(-24.39)"/><ellipse class="cls-2" cx="102.08" cy="41.08" rx="14.14" ry="3.56"/><ellipse class="cls-2" cx="115.14" cy="32.06" rx="7.36" ry="6.61"/><ellipse class="cls-2" cx="91.17" cy="43.72" rx="8.52" ry="8.02"/><ellipse class="cls-2" cx="98.52" cy="29.17" rx="9.26" ry="8.35"/><ellipse class="cls-2" cx="42.3" cy="53.89" rx="10.09" ry="8.1"/><ellipse class="cls-2" cx="94.28" cy="28.92" rx="12.57" ry="7.94"/><ellipse class="cls-2" cx="33.34" cy="43.72" rx="9.34" ry="5.04"/><ellipse class="cls-2" cx="104.27" cy="35.16" rx="8.76" ry="4.8"/><circle class="cls-2" cx="86.29" cy="41.82" r="11.41"/><ellipse class="cls-2" cx="40.15" cy="40.37" rx="6.37" ry="9.51"/><ellipse class="cls-2" cx="81.37" cy="42.5" rx="3.39" ry="2.13"/><ellipse class="cls-2" cx="107.08" cy="24.29" rx="5.96" ry="8.27"/><ellipse class="cls-2" cx="62.6" cy="13.3" rx="11.57" ry="7.52"/><ellipse class="cls-2" cx="83.62" cy="15.36" rx="5.64" ry="3.97"/><ellipse class="cls-2" cx="94.26" cy="16.6" rx="9.51" ry="7.69"/></svg>
