<svg id="Layer_1" data-name="Layer 1" xmlns="http://www.w3.org/2000/svg" xmlns:xlink="http://www.w3.org/1999/xlink" width="1334" height="750" viewBox="0 0 1334 750"><defs><style>.cls-1{fill:url(#radial-gradient);}.cls-2{fill:#705300;}</style><radialGradient id="radial-gradient" cx="764.02" cy="862.41" r="356.12" gradientTransform="translate(336.43 436.77) scale(0.7 0.21)" gradientUnits="userSpaceOnUse"><stop offset="0" stop-opacity="0.6"/><stop offset="1" stop-color="#1d1d1b" stop-opacity="0"/></radialGradient></defs><title>frikadelle stor</title><ellipse class="cls-1" cx="870.55" cy="617.64" rx="315.46" ry="178.36"/><ellipse class="cls-2" cx="287.03" cy="379.62" rx="81.93" ry="53.21"/><ellipse class="cls-2" cx="182.29" cy="505.48" rx="61.66" ry="40.54"/><ellipse class="cls-2" cx="270.98" cy="599.23" rx="97.98" ry="53.21"/><ellipse class="cls-2" cx="327.58" cy="512.23" rx="122.48" ry="79.4"/><ellipse class="cls-2" cx="678.12" cy="370.33" rx="261.85" ry="204.41"/><ellipse class="cls-2" cx="543.82" cy="440.44" rx="174.85" ry="222.15"/><circle class="cls-2" cx="477.09" cy="309.51" r="155.42"/><ellipse class="cls-2" cx="952.64" cy="276.57" rx="68.42" ry="73.49" transform="translate(-29.2 418.01) rotate(-24.39)"/><ellipse class="cls-2" cx="984.74" cy="457.33" rx="144.44" ry="36.32"/><ellipse class="cls-2" cx="1118.2" cy="365.26" rx="75.18" ry="67.57"/><ellipse class="cls-2" cx="873.24" cy="484.36" rx="87" ry="81.93"/><ellipse class="cls-2" cx="948.42" cy="335.7" rx="94.6" ry="85.31"/><ellipse class="cls-2" cx="374.04" cy="588.25" rx="103.05" ry="82.78"/><ellipse class="cls-2" cx="905.04" cy="333.16" rx="128.39" ry="81.09"/><ellipse class="cls-2" cx="282.51" cy="484.36" rx="95.45" ry="51.53"/><ellipse class="cls-2" cx="1007.17" cy="396.85" rx="89.54" ry="48.99"/><circle class="cls-2" cx="823.4" cy="464.93" r="116.57"/><ellipse class="cls-2" cx="352.07" cy="450.06" rx="65.04" ry="97.14"/><ellipse class="cls-2" cx="773.13" cy="471.86" rx="34.63" ry="21.79"/><ellipse class="cls-2" cx="1035.86" cy="285.86" rx="60.85" ry="84.47"/><ellipse class="cls-2" cx="581.38" cy="173.52" rx="118.26" ry="76.87"/><ellipse class="cls-2" cx="796.15" cy="194.63" rx="57.66" ry="40.54"/><ellipse class="cls-2" cx="904.9" cy="207.3" rx="97.14" ry="78.56"/></svg>