<svg id="Layer_1" data-name="Layer 1" xmlns="http://www.w3.org/2000/svg" width="708.07" height="625.92" viewBox="0 0 708.07 625.92"><defs><style>.cls-1,.cls-17{fill:#020202;}.cls-1{stroke:#b5230b;stroke-width:12px;}.cls-1,.cls-31{stroke-miterlimit:10;}.cls-2{fill:#fce900;}.cls-3{fill:#0084fc;}.cls-31,.cls-4{fill:#d87100;}.cls-5{fill:#38af00;}.cls-6{fill:none;}.cls-7{fill:#010200;}.cls-8{fill:#707070;}.cls-9{fill:#fff;}.cls-10{fill:#b57402;}.cls-11{fill:#3d3d3d;}.cls-12{fill:#8e8e8e;}.cls-13{fill:#070707;}.cls-14{fill:#e08f00;}.cls-15{fill:#0c9b00;}.cls-16{fill:#0b5107;}.cls-18{fill:#baba00;}.cls-19{fill:#aaa100;}.cls-20{fill:#e0da00;}.cls-21{fill:#aa9e07;}.cls-22{fill:#b5ac00;}.cls-23{fill:#c4ba00;}.cls-24{fill:#c1b700;}.cls-25{fill:#b2a906;}.cls-26{fill:#1b7c00;}.cls-27{fill:#59d82a;}.cls-28{fill:#61b741;}.cls-29{fill:#3fc600;}.cls-30{fill:#4b005b;}.cls-31{stroke:#1b7c00;stroke-width:5px;}</style></defs><title>gameover_udenknap</title><rect class="cls-1" x="6" y="103.05" width="696.07" height="394.4"/><polygon class="cls-2" points="604.33 389.43 452.08 397.23 475.34 547.89 362.17 445.75 272.09 568.73 264.29 416.48 113.63 439.75 215.77 326.58 92.78 236.49 245.04 228.7 221.77 78.03 334.94 180.18 425.02 57.19 432.82 209.44 583.49 186.17 481.34 299.35 604.33 389.43"/><path class="cls-3" d="M255,625.92l-9.54-186.29L61.1,468.1l125-138.48L35.59,219.39l186.3-9.53L193.42,25.5l138.47,125L442.12,0l9.54,186.29L636,157.83,511,296.3,661.52,406.53l-186.3,9.54,28.47,184.35-138.47-125Zm28.14-232.59,6.06,118.21,69.94-95.48L447,495.36l-18.06-117,118.21-6.05-95.49-69.94L531,214.52,414,232.59l-6.05-118.21L338,209.87l-87.86-79.31,18.06,117L150,253.59l95.49,69.94-79.3,87.87Z"/><rect x="255.05" y="385.12" width="4.32" height="48.46"/><rect x="271.72" y="392.2" width="3.78" height="41.38"/><polyline points="259.36 429.73 259.36 444.12 231.18 444.12"/><polyline points="271.73 429.73 271.73 444.12 299.91 444.12"/><path class="cls-4" d="M366.73,440.81a22.3,22.3,0,0,1-9.9-2.31L179.55,351.21a22.39,22.39,0,0,1-.38-40l42.34-21.85a22.39,22.39,0,0,1,24.35,2.49L380.81,401a22.39,22.39,0,0,1-14.08,39.8Zm-126-114.2Z"/><polygon class="cls-5" points="177.08 313.25 136.48 301.73 170.94 295.59 124.68 292.95 185.57 283.79 148.28 276.24 222.87 274.35 243.63 326.94 218.62 292.95 177.08 313.25"/><polygon points="255.66 349.28 242.71 373.63 228.1 383.3 215.15 374.6 200.53 351.21 228.1 350.25 255.66 349.28"/><polygon points="310.79 349.28 297.84 373.63 283.22 383.3 270.28 374.6 255.66 351.21 283.22 350.25 310.79 349.28"/><line class="cls-6" x1="311.4" y1="402.33" x2="328.42" y2="409.65"/><ellipse class="cls-7" cx="304.92" cy="398.61" rx="2.68" ry="4.37"/><ellipse class="cls-8" cx="346.7" cy="426.33" rx="0.39" ry="0.38"/><path class="cls-9" d="M343.63,429.21,306.22,404a2.92,2.92,0,0,1-.78-4.11h0a3.06,3.06,0,0,1,4.21-.76l37.41,25.18a2.93,2.93,0,0,1,.77,4.12h0A3.07,3.07,0,0,1,343.63,429.21Z"/><polygon class="cls-10" points="314.13 409.35 303.01 401.86 306.44 396.99 317.56 404.47 314.13 409.35"/><path class="cls-11" d="M345,430.06h0a1.47,1.47,0,0,1-.39-2.06l1.72-2.43a1.52,1.52,0,0,1,2.1-.38h0a1.45,1.45,0,0,1,.39,2.05l-1.72,2.44A1.53,1.53,0,0,1,345,430.06Z"/><ellipse class="cls-8" cx="347.61" cy="427.93" rx="0.48" ry="1.61"/><ellipse class="cls-8" cx="345.92" cy="428.32" rx="1.66" ry="0.81"/><ellipse class="cls-8" cx="344.36" cy="429.17" rx="0.15" ry="0.42"/><ellipse class="cls-8" cx="348.08" cy="426.33" rx="0.15" ry="0.42"/><rect x="313.93" y="407.29" width="5.96" height="0.56" transform="translate(-198.77 432.47) rotate(-54.9)"/><path class="cls-6" d="M359.51,410.12c0,3.86-3.81,7-8.5,7-3.76,0-6.8-2.5-6.8-5.58,0-2.47,2.43-4.47,5.44-4.47,2.4,0,4.35,1.6,4.35,3.57,0,1.58-1.56,2.86-3.48,2.86a2.57,2.57,0,0,1-2.79-2.29,2.06,2.06,0,0,1,2.23-1.83,1.65,1.65,0,0,1,1.78,1.47,1.32,1.32,0,0,1-1.42,1.17,1.05,1.05,0,0,1-1.14-.94"/><path class="cls-6" d="M349.45,425.77c0,3.85-3.81,7-8.5,7-3.76,0-6.8-2.5-6.8-5.59,0-2.47,2.43-4.47,5.44-4.47,2.4,0,4.35,1.6,4.35,3.58,0,1.58-1.56,2.86-3.48,2.86a2.57,2.57,0,0,1-2.79-2.29A2.06,2.06,0,0,1,339.9,425a1.64,1.64,0,0,1,1.78,1.46,1.31,1.31,0,0,1-1.42,1.18,1.05,1.05,0,0,1-1.14-.94"/><path class="cls-12" d="M354.38,411.3c-3.9,0-7.08-2.64-7.08-5.87,0-2.62,2.57-4.75,5.72-4.75,2.56,0,4.63,1.73,4.63,3.86,0,1.73-1.68,3.14-3.76,3.14a2.85,2.85,0,0,1-3.06-2.57,2.33,2.33,0,0,1,2.5-2.11,1.93,1.93,0,0,1,2.07,1.74,1.6,1.6,0,0,1-1.71,1.45,1.33,1.33,0,0,1-1.42-1.21h.56c0,.36.39.65.86.65a1,1,0,0,0,1.15-.89,1.38,1.38,0,0,0-1.51-1.18,1.78,1.78,0,0,0-1.94,1.55,2.3,2.3,0,0,0,2.5,2c1.77,0,3.2-1.16,3.2-2.58,0-1.82-1.82-3.3-4.07-3.3-2.84,0-5.16,1.88-5.16,4.19,0,2.93,2.93,5.31,6.52,5.31,4.54,0,8.22-3,8.22-6.71h.56C363.16,408,359.22,411.3,354.38,411.3Z"/><path class="cls-12" d="M353.88,389.78c-6.8,0-12.34-4.18-12.34-9.31,0-4.14,4.45-7.51,9.93-7.51,4.41,0,8,2.72,8,6.06,0,2.71-2.9,4.91-6.46,4.91-2.88,0-5.22-1.79-5.22-4,0-1.79,1.9-3.24,4.24-3.24,1.89,0,3.44,1.18,3.44,2.64,0,1.2-1.26,2.18-2.81,2.18a2.11,2.11,0,0,1-2.31-1.8h.56c0,.69.79,1.24,1.75,1.24,1.24,0,2.25-.72,2.25-1.62,0-1.15-1.3-2.08-2.88-2.08-2,0-3.68,1.2-3.68,2.68,0,1.88,2.09,3.42,4.66,3.42,3.25,0,5.9-1.95,5.9-4.35,0-3-3.34-5.5-7.44-5.5-5.17,0-9.37,3.12-9.37,7,0,4.82,5.28,8.75,11.78,8.75,8.16,0,14.8-4.94,14.8-11h.56C369.24,384.59,362.35,389.78,353.88,389.78Z"/><path class="cls-12" d="M384.55,367.07c-8,0-14.44-9.11-14.44-20.3,0-9,5.21-16.29,11.6-16.29,5.15,0,9.34,5.87,9.34,13.09,0,5.8-3.37,10.53-7.52,10.53-3.35,0-6.08-3.81-6.08-8.48,0-3.77,2.21-6.84,4.92-6.84,2.2,0,4,2.48,4,5.52,0,2.47-1.46,4.48-3.25,4.48-1.46,0-2.66-1.63-2.66-3.64H381c0,1.7.94,3.08,2.1,3.08,1.48,0,2.69-1.75,2.69-3.92,0-2.73-1.54-5-3.43-5-2.41,0-4.36,2.81-4.36,6.28,0,4.36,2.47,7.92,5.52,7.92,3.84,0,7-4.48,7-10,0-6.91-3.93-12.54-8.78-12.54-6.09,0-11,7.06-11,15.74,0,10.88,6.22,19.74,13.88,19.74,9.6,0,17.41-11.1,17.41-24.74h.56C402.52,355.72,394.45,367.07,384.55,367.07Z"/><path class="cls-12" d="M362.69,372.47c-5,0-9.11-7-9.11-15.69,0-6.95,3.3-12.6,7.35-12.6,3.27,0,5.93,4.55,5.93,10.14,0,4.5-2.15,8.17-4.8,8.17-2.15,0-3.9-3-3.9-6.59,0-3,1.4-5.33,3.17-5.33,1.46,0,2.6,1.9,2.6,4.32,0,2-.94,3.51-2.13,3.51-1,0-1.76-1.26-1.76-2.87h.56c0,1.25.55,2.31,1.2,2.31.85,0,1.57-1.35,1.57-2.95,0-2-.93-3.76-2-3.76-1.41,0-2.61,2.18-2.61,4.77,0,3.32,1.5,6,3.34,6,2.34,0,4.24-3.42,4.24-7.61,0-5.28-2.41-9.58-5.37-9.58-3.74,0-6.79,5.4-6.79,12,0,8.35,3.84,15.13,8.55,15.13,5.94,0,10.76-8.51,10.76-19H374C374,363.71,368.94,372.47,362.69,372.47Z"/><rect class="cls-13" x="176.32" y="340.05" width="33.62" height="0.84" transform="translate(-177.1 213.39) rotate(-41.49)"/><rect class="cls-13" x="278.91" y="393.82" width="21.47" height="0.84" transform="translate(-188.5 290.82) rotate(-41.49)"/><rect class="cls-13" x="354.05" y="431.66" width="18.51" height="0.84" transform="translate(-195.09 349.11) rotate(-41.49)"/><rect class="cls-13" x="196.23" y="339.17" width="69.9" height="0.84" transform="translate(-166.96 238.37) rotate(-41.49)"/><rect class="cls-14" x="479.08" y="402.33" width="9.91" height="12.21" rx="4" transform="translate(349.75 -210.5) rotate(37.6)"/><path class="cls-14" d="M486.19,409.26l-3.47-2.67c-.2-.15-1.16-.29-.7-.89l79.51-110.27c.47-.6,3.77-1.25,4-1.1l8.13,6.27c.2.15.64,3.81.18,4.42C573.81,305,486.39,409.41,486.19,409.26Z"/><rect class="cls-15" x="408.01" y="229.02" width="58.16" height="171.59" rx="29.08"/><ellipse class="cls-16" cx="437.08" cy="383.13" rx="29.08" ry="19.87"/><circle class="cls-17" cx="426.96" cy="273.7" r="6.85"/><circle class="cls-17" cx="443.94" cy="273.7" r="6.85"/><rect class="cls-9" x="432.44" y="296.57" width="22.99" height="18.93" rx="4"/><path class="cls-18" d="M417.37,329H414.5a3.13,3.13,0,0,1-3.13-3.13V315.48a3.13,3.13,0,0,1,3.13-3.12h2.87a3.13,3.13,0,0,1,3.13,3.12v10.36A3.13,3.13,0,0,1,417.37,329Zm-2.87-14.53a1,1,0,0,0-1.05,1v10.36a1,1,0,0,0,1.05,1h2.87a1,1,0,0,0,1-1V315.48a1,1,0,0,0-1-1Z"/><path class="cls-18" d="M408.61,315.22h-2.1a3.13,3.13,0,0,1-3.13-3.13V300a3.13,3.13,0,0,1,3.13-3.12h2.1a3.13,3.13,0,0,1,3.13,3.12v12.12A3.14,3.14,0,0,1,408.61,315.22Zm-2.1-16.29a1,1,0,0,0-1.05,1v12.12a1,1,0,0,0,1.05,1h2.1a1,1,0,0,0,1-1V300a1,1,0,0,0-1-1Z"/><path class="cls-18" d="M427.81,361.14h-2.1a3.13,3.13,0,0,1-3.13-3.13V345.89a3.13,3.13,0,0,1,3.13-3.12h2.1a3.13,3.13,0,0,1,3.13,3.12V358A3.13,3.13,0,0,1,427.81,361.14Zm-2.1-16.29a1,1,0,0,0-1,1V358a1,1,0,0,0,1,1h2.1a1,1,0,0,0,1-1V345.89a1,1,0,0,0-1-1Z"/><path class="cls-18" d="M424.68,350.34h-2.11a3.13,3.13,0,0,1-3.12-3.13V335.09a3.12,3.12,0,0,1,3.12-3.12h2.11a3.12,3.12,0,0,1,3.12,3.12v12.12A3.13,3.13,0,0,1,424.68,350.34Zm-2.11-16.29a1,1,0,0,0-1,1v12.12a1,1,0,0,0,1,1h2.11a1,1,0,0,0,1-1V335.09a1,1,0,0,0-1-1Z"/><path class="cls-18" d="M412.8,321.24h-2.11a3.12,3.12,0,0,1-3.12-3.12V306a3.13,3.13,0,0,1,3.12-3.13h2.11a3.13,3.13,0,0,1,3.12,3.13v12.12A3.12,3.12,0,0,1,412.8,321.24ZM410.69,305a1,1,0,0,0-1,1v12.12a1,1,0,0,0,1,1h2.11a1,1,0,0,0,1-1V306a1,1,0,0,0-1-1Z"/><path class="cls-18" d="M421.54,339.75h-2.1a3.13,3.13,0,0,1-3.13-3.13V324.51a3.13,3.13,0,0,1,3.13-3.13h2.1a3.13,3.13,0,0,1,3.13,3.13v12.11A3.13,3.13,0,0,1,421.54,339.75Zm-2.1-16.29a1,1,0,0,0-1.05,1.05v12.11a1,1,0,0,0,1.05,1.05h2.1a1,1,0,0,0,1-1.05V324.51a1,1,0,0,0-1-1.05Z"/><path class="cls-18" d="M462.74,329h-2.87a3.13,3.13,0,0,1-3.13-3.13V315.48a3.13,3.13,0,0,1,3.13-3.12h2.87a3.13,3.13,0,0,1,3.13,3.12v10.36A3.14,3.14,0,0,1,462.74,329Zm-2.87-14.53a1,1,0,0,0-1.05,1v10.36a1,1,0,0,0,1.05,1h2.87a1,1,0,0,0,1-1V315.48a1,1,0,0,0-1-1Z"/><path class="cls-18" d="M470.73,315.22h-2.1a3.13,3.13,0,0,1-3.13-3.13V300a3.13,3.13,0,0,1,3.13-3.12h2.1a3.13,3.13,0,0,1,3.13,3.12v12.12A3.13,3.13,0,0,1,470.73,315.22Zm-2.1-16.29a1,1,0,0,0-1,1v12.12a1,1,0,0,0,1,1h2.1a1,1,0,0,0,1-1V300a1,1,0,0,0-1-1Z"/><path class="cls-18" d="M451.53,361.14h-2.1A3.13,3.13,0,0,1,446.3,358V345.89a3.13,3.13,0,0,1,3.13-3.12h2.1a3.13,3.13,0,0,1,3.13,3.12V358A3.14,3.14,0,0,1,451.53,361.14Zm-2.1-16.29a1,1,0,0,0-1.05,1V358a1,1,0,0,0,1.05,1h2.1a1,1,0,0,0,1-1V345.89a1,1,0,0,0-1-1Z"/><path class="cls-18" d="M454.66,350.34h-2.1a3.14,3.14,0,0,1-3.13-3.13V335.09a3.13,3.13,0,0,1,3.13-3.12h2.1a3.13,3.13,0,0,1,3.13,3.12v12.12A3.13,3.13,0,0,1,454.66,350.34Zm-2.1-16.29a1,1,0,0,0-1,1v12.12a1,1,0,0,0,1,1h2.1a1,1,0,0,0,1-1V335.09a1,1,0,0,0-1-1Z"/><path class="cls-18" d="M466.54,321.24h-2.1a3.13,3.13,0,0,1-3.13-3.12V306a3.13,3.13,0,0,1,3.13-3.13h2.1a3.13,3.13,0,0,1,3.13,3.13v12.12A3.13,3.13,0,0,1,466.54,321.24ZM464.44,305a1,1,0,0,0-1,1v12.12a1,1,0,0,0,1,1h2.1a1,1,0,0,0,1-1V306a1,1,0,0,0-1-1Z"/><path class="cls-18" d="M457.8,339.75h-2.1a3.13,3.13,0,0,1-3.13-3.13V324.51a3.13,3.13,0,0,1,3.13-3.13h2.1a3.13,3.13,0,0,1,3.13,3.13v12.11A3.13,3.13,0,0,1,457.8,339.75Zm-2.1-16.29a1,1,0,0,0-1,1.05v12.11a1,1,0,0,0,1,1.05h2.1a1,1,0,0,0,1-1.05V324.51a1,1,0,0,0-1-1.05Z"/><ellipse class="cls-19" cx="429.15" cy="353.36" rx="3.07" ry="3.59"/><path class="cls-20" d="M429.15,358a4.67,4.67,0,1,1,4.11-4.64A4.4,4.4,0,0,1,429.15,358Zm0-7.19a2.62,2.62,0,1,0,2,2.55A2.33,2.33,0,0,0,429.15,350.81Z"/><ellipse class="cls-21" cx="432.44" cy="348.19" rx="3.29" ry="3.85"/><path class="cls-20" d="M432.44,353.08a4.93,4.93,0,1,1,4.33-4.89A4.64,4.64,0,0,1,432.44,353.08Zm0-7.7a2.88,2.88,0,1,0,2.24,2.81A2.58,2.58,0,0,0,432.44,345.38Z"/><ellipse class="cls-22" cx="436.62" cy="344.48" rx="2.9" ry="5.29"/><path class="cls-20" d="M436.62,350.81c-2.24,0-3.94-2.72-3.94-6.33s1.7-6.34,3.94-6.34,3.94,2.73,3.94,6.34S438.87,350.81,436.62,350.81Zm0-10.58c-.75,0-1.85,1.65-1.85,4.25s1.1,4.24,1.85,4.24,1.85-1.65,1.85-4.24S437.38,340.23,436.62,340.23Z"/><ellipse class="cls-23" cx="435.35" cy="354.88" rx="4.17" ry="6.69"/><path class="cls-20" d="M435.35,362.61c-2.93,0-5.22-3.4-5.22-7.73s2.29-7.73,5.22-7.73,5.21,3.39,5.21,7.73S438.27,362.61,435.35,362.61Zm0-13.38c-1.67,0-3.13,2.64-3.13,5.65s1.46,5.65,3.13,5.65,3.12-2.64,3.12-5.65S437,349.23,435.35,349.23Z"/><ellipse class="cls-24" cx="441.91" cy="347.8" rx="6.18" ry="5.56"/><path class="cls-20" d="M441.91,354.4c-4,0-7.23-3-7.23-6.6s3.24-6.6,7.23-6.6,7.22,3,7.22,6.6S445.89,354.4,441.91,354.4Zm0-11.12c-2.84,0-5.14,2-5.14,4.52s2.3,4.52,5.14,4.52,5.14-2,5.14-4.52S444.74,343.28,441.91,343.28Z"/><ellipse class="cls-25" cx="443.39" cy="355.77" rx="4.7" ry="7.58"/><path class="cls-20" d="M443.39,364.4c-3.23,0-5.75-3.79-5.75-8.63s2.52-8.62,5.75-8.62,5.74,3.79,5.74,8.62S446.61,364.4,443.39,364.4Zm0-15.17c-2,0-3.66,3-3.66,6.54s1.67,6.54,3.66,6.54,3.66-3,3.66-6.54S445.37,349.23,443.39,349.23Z"/><rect class="cls-20" x="433.73" y="358.99" width="5.79" height="22.01" rx="2.9"/><path class="cls-20" d="M437.43,382.05h-1.62a3.14,3.14,0,0,1-3.13-3.13V361.08a3.13,3.13,0,0,1,3.13-3.13h1.62a3.13,3.13,0,0,1,3.13,3.13v17.84A3.13,3.13,0,0,1,437.43,382.05Zm-1.62-22a1,1,0,0,0-1,1.05v17.84a1,1,0,0,0,1,1h1.62a1,1,0,0,0,1-1V361.08a1,1,0,0,0-1-1.05Z"/><circle class="cls-26" cx="402.69" cy="208.59" r="40.69"/><ellipse class="cls-27" cx="424.3" cy="160.56" rx="26.5" ry="40.79"/><ellipse class="cls-28" cx="467.9" cy="211.04" rx="36.72" ry="43.14"/><ellipse class="cls-29" cx="464.1" cy="158.69" rx="27.02" ry="33.86"/><path d="M382.94,364.38a2.08,2.08,0,0,1-1.54-3.49l25.07-27.22a2.08,2.08,0,1,1,3.07,2.82l-25.07,27.22A2.06,2.06,0,0,1,382.94,364.38Z"/><rect x="434.28" y="324.41" width="4.17" height="113.23" transform="translate(-67.56 666.78) rotate(-70.68)"/><rect x="487.71" y="385.3" width="11.29" height="22.89" transform="matrix(0.79, 0.61, -0.61, 0.79, 344.56, -218.61)"/><path d="M493.35,398.83a2.08,2.08,0,0,1-1.93-1.3L466,334.25a2.08,2.08,0,1,1,3.87-1.55L495.29,396a2.09,2.09,0,0,1-1.16,2.71A2,2,0,0,1,493.35,398.83Z"/><rect x="426.08" y="400.61" width="3.82" height="53.11" rx="1.91"/><rect x="442.03" y="400.61" width="3.82" height="53.11" rx="1.91"/><rect x="399.58" y="450.76" width="30.61" height="13.06"/><rect x="441.45" y="450.76" width="30.61" height="13.06"/><polygon class="cls-30" points="379.59 190.24 367.97 181.38 369.31 179.17 380.93 188.02 379.59 190.24"/><path class="cls-30" d="M382.62,201.64l-4.38-2.83a3.11,3.11,0,0,1-.95-4l5.52-10.7a2.46,2.46,0,0,1,3.55-1.07l4.38,2.83a3.11,3.11,0,0,1,.95,4l-5.52,10.71A2.45,2.45,0,0,1,382.62,201.64Z"/><polygon class="cls-30" points="382.84 195.8 391.23 202.19 390.82 202.86 382.43 196.47 382.84 195.8"/><polygon class="cls-30" points="384.68 193.75 393.07 200.14 392.66 200.81 384.27 194.42 384.68 193.75"/><polygon class="cls-30" points="382.84 190.33 391.23 196.72 390.82 197.39 382.43 191 382.84 190.33"/><polygon class="cls-30" points="384.44 188.36 392.83 194.75 392.42 195.42 384.03 189.03 384.44 188.36"/><polygon class="cls-30" points="389.41 185.96 397.8 192.35 397.39 193.02 389 186.63 389.41 185.96"/><polygon class="cls-30" points="381.57 198.87 389.96 205.26 389.55 205.93 381.16 199.54 381.57 198.87"/><polygon class="cls-30" points="388.51 187.44 396.9 193.84 396.49 194.5 388.1 188.11 388.51 187.44"/><rect x="437.08" y="305.77" width="14.43" height="0.52"/><rect x="443.86" y="298.93" width="0.52" height="13.13" transform="translate(-8.27 12.38) rotate(-1.58)"/><path class="cls-31" d="M171.37,221.74l.22-2.17q-18.68,4.11-25.8-11.1-5.89-14.81,4.8-28.43,11.28-11.25,33.18-7.53a92,92,0,0,1-.2,16.78,35,35,0,0,0-13.4-1q-7.56,1.61-9.39,6.71-1.65,8.47,4,11.19c3.57.65,6.23.18,8-1.41a17.41,17.41,0,0,0-4.54.11l-.09-9.3q13.08-.08,17.35-.39.09,14.72-.35,26.18A87.66,87.66,0,0,1,171.37,221.74Z"/><path class="cls-31" d="M192.86,172a199.26,199.26,0,0,0,21.89,0l12.68,48.76a96.84,96.84,0,0,0-15.26,1.35l-2.26-10.26a46.35,46.35,0,0,0-8.24,0q-2.14,6.51-3,10.07-7.07-1.15-15.11-1.83l11-34.88-5-.35Zm12.8,20.52a51.59,51.59,0,0,0-1.78,7.08c1.08,0,2.12-.1,3.14-.19A35.63,35.63,0,0,0,205.66,192.51Z"/><path class="cls-31" d="M228.89,189.66l1.29-16.73q14.37-.69,21.49-1.17,3.42,5.09,6.88,9.38a70.67,70.67,0,0,0,6.62-9.22q6.94.44,15.81.66,3.84,37.92,4.52,47.58A113.08,113.08,0,0,1,269.33,222q-.88-9.78-1.76-22l-9.86,9.2q-5.11-5.16-8.41-9-.9,12.64-1.32,21.67l-17-.68L233.49,190Z"/><path class="cls-31" d="M322.55,172.05q-.76,8.91-.73,15.13l-18.11.13.15,4.07,12.62-.39.35,11.67q-4.83.42-12.55.66l.08,3.59q8.06,0,17.91-.56.24,9.22.74,14.49l-34.7.82q.33-19.95,0-34.24l-4.11.09-.38-14.91Q294.74,172.6,322.55,172.05Z"/><path class="cls-31" d="M181.81,221.55a22.39,22.39,0,0,1,7.47,11.32,30.52,30.52,0,0,1,1.05,8.64q-2.37,25.35-26.59,24.7-10,0-16.5-8.37a24.68,24.68,0,0,1-3.65-10.74,32.33,32.33,0,0,1,1.49-12.75,26.19,26.19,0,0,1,7.07-11Q166.1,210.93,181.81,221.55ZM160,245.16c.89,2.69,2.88,4.06,5.95,4.12a7.71,7.71,0,0,0,6.53-2.47c1.79-2.31,2.21-4.62,1.24-6.94q-2-4.44-5.95-4.35a8.41,8.41,0,0,0-7.26,5.12A7,7,0,0,0,160,245.16Z"/><path class="cls-31" d="M193.33,232.78a133,133,0,0,1-2.09-14.15,120.67,120.67,0,0,1,19.61-2.21q4.4,20.54,7.47,30a275.36,275.36,0,0,0,7-29.61L241.19,218q-10.59,36.42-13.56,48.33a91,91,0,0,1-17.22,0Q202.3,245,198.59,232Z"/><path class="cls-31" d="M282,217.08q-.76,8.89-.73,15.13l-18.1.13.14,4.06,12.63-.38.34,11.67q-4.83.42-12.55.66l.08,3.59q8.06,0,17.91-.57.24,9.24.74,14.49-9.59.24-34.7.83.33-20,0-34.24l-4.11.09-.38-14.92Q254.14,217.62,282,217.08Z"/><path class="cls-31" d="M285,234.3q.52-8.87.81-15.12,13.83-3.26,24.75-2.34A24.38,24.38,0,0,1,321,220.7q4.91,3.27,6.34,7.11,3,11.52-9.23,20.54a71.29,71.29,0,0,0,9.47,9.51l-12.26,11.25-10-13.8c0,4.18-.06,8-.06,11.45q-10.35.54-15.5-.31-.12-7.45.48-32.92Zm20.37-2.73a69.9,69.9,0,0,0-.09,8.24l2.62-.77c3-1.44,4.5-3.07,4.49-4.89a2.4,2.4,0,0,0-2.29-2.58A9.11,9.11,0,0,0,305.36,231.57Z"/><path class="cls-31" d="M344.33,256.5q4.07,1.65,3.35,5.11a6.75,6.75,0,0,1-3,3.72,12.38,12.38,0,0,1-10.42,1q-5.26-2.08-4.07-6a6.86,6.86,0,0,1,4.28-3.7,17.91,17.91,0,0,1,6.69-.9A18.22,18.22,0,0,1,344.33,256.5Zm3.34-39.1q-1.07,24.72-1.82,35.07-6.71.25-14.29.07c0-.07,0-.12-.13-.14q-.78-11.24-1.19-34.83A138.6,138.6,0,0,1,347.67,217.4Z"/></svg>
