<svg id="Layer_1" data-name="Layer 1" xmlns="http://www.w3.org/2000/svg" width="903.51" height="676.97" viewBox="0 0 903.51 676.97"><defs><style>.cls-1,.cls-17{fill:#020202;}.cls-1{stroke:#b5230b;stroke-width:12px;}.cls-1,.cls-31{stroke-miterlimit:10;}.cls-2{fill:#fce900;}.cls-3{fill:#0084fc;}.cls-31,.cls-4{fill:#d87100;}.cls-5{fill:#38af00;}.cls-6{fill:none;}.cls-7{fill:#010200;}.cls-8{fill:#707070;}.cls-9{fill:#fff;}.cls-10{fill:#b57402;}.cls-11{fill:#3d3d3d;}.cls-12{fill:#8e8e8e;}.cls-13{fill:#070707;}.cls-14{fill:#e08f00;}.cls-15{fill:#0c9b00;}.cls-16{fill:#0b5107;}.cls-18{fill:#baba00;}.cls-19{fill:#aaa100;}.cls-20{fill:#e0da00;}.cls-21{fill:#aa9e07;}.cls-22{fill:#b5ac00;}.cls-23{fill:#c4ba00;}.cls-24{fill:#c1b700;}.cls-25{fill:#b2a906;}.cls-26{fill:#1b7c00;}.cls-27{fill:#59d82a;}.cls-28{fill:#61b741;}.cls-29{fill:#3fc600;}.cls-30{fill:#4b005b;}.cls-31{stroke:#1b7c00;stroke-width:5px;}.cls-32{fill:#d60d0d;}.cls-33{fill:#82817d;}</style></defs><title>game over</title><rect class="cls-1" x="109.49" y="138.19" width="696.07" height="394.4"/><polygon class="cls-2" points="707.82 424.58 555.57 432.37 578.84 583.04 465.67 480.89 375.58 603.88 367.79 451.63 217.12 474.89 319.27 361.72 196.28 271.64 348.53 263.84 325.26 113.18 438.43 215.32 528.52 92.33 536.31 244.59 686.98 221.32 584.83 334.49 707.82 424.58"/><path class="cls-3" d="M358.48,661.07,349,474.77,164.59,503.24l125-138.47L139.09,254.54,325.38,245,296.91,60.65l138.48,125L545.62,35.15l9.53,186.29L739.51,193l-125,138.48L765,441.67l-186.29,9.54,28.47,184.36-138.48-125Zm28.15-232.59,6.05,118.21,69.94-95.49,87.87,79.31-18.07-117,118.21-6-95.49-69.94,79.31-87.87-117,18.06-6.05-118.21L441.48,245l-87.87-79.3,18.07,117-118.21,6.06L349,358.68l-79.31,87.87Z"/><rect x="358.54" y="420.26" width="4.32" height="48.46"/><rect x="375.22" y="427.34" width="3.78" height="41.38"/><polyline points="362.86 464.87 362.86 479.27 334.67 479.27"/><polyline points="375.22 464.87 375.22 479.27 403.4 479.27"/><path class="cls-4" d="M470.22,476a22.42,22.42,0,0,1-9.89-2.31l-177.28-87.3a22.39,22.39,0,0,1-.39-40L325,324.52A22.38,22.38,0,0,1,349.35,327l135,109.15A22.4,22.4,0,0,1,470.22,476Zm-126-114.2Z"/><polygon class="cls-5" points="280.57 348.39 239.98 336.87 274.44 330.74 228.18 328.1 289.07 318.93 251.78 311.38 326.36 309.49 347.13 362.08 322.11 328.1 280.57 348.39"/><polygon points="359.15 384.43 346.21 408.78 331.59 418.45 318.64 409.74 304.03 386.36 331.59 385.39 359.15 384.43"/><polygon points="414.28 384.43 401.33 408.78 386.72 418.45 373.77 409.74 359.15 386.36 386.72 385.39 414.28 384.43"/><line class="cls-6" x1="414.89" y1="437.48" x2="431.91" y2="444.79"/><ellipse class="cls-7" cx="408.41" cy="433.76" rx="2.68" ry="4.37"/><ellipse class="cls-8" cx="450.19" cy="461.47" rx="0.39" ry="0.38"/><path class="cls-9" d="M447.12,464.35l-37.4-25.18a2.92,2.92,0,0,1-.78-4.12h0a3.07,3.07,0,0,1,4.2-.76l37.41,25.19a2.92,2.92,0,0,1,.78,4.11h0A3.06,3.06,0,0,1,447.12,464.35Z"/><polygon class="cls-10" points="417.63 444.49 406.5 437.01 409.93 432.13 421.05 439.62 417.63 444.49"/><path class="cls-11" d="M448.48,465.21h0a1.47,1.47,0,0,1-.39-2.06l1.71-2.44a1.54,1.54,0,0,1,2.1-.38h0a1.47,1.47,0,0,1,.39,2.06l-1.71,2.44A1.53,1.53,0,0,1,448.48,465.21Z"/><ellipse class="cls-8" cx="451.1" cy="463.08" rx="0.48" ry="1.61"/><ellipse class="cls-8" cx="449.41" cy="463.47" rx="1.66" ry="0.81"/><ellipse class="cls-8" cx="447.85" cy="464.32" rx="0.15" ry="0.42"/><ellipse class="cls-8" cx="451.58" cy="461.47" rx="0.15" ry="0.42"/><rect x="417.42" y="442.44" width="5.96" height="0.56" transform="translate(-183.54 532.08) rotate(-54.9)"/><path class="cls-6" d="M463,445.26c0,3.86-3.8,7-8.5,7-3.75,0-6.8-2.5-6.8-5.59,0-2.47,2.44-4.47,5.44-4.47,2.4,0,4.35,1.6,4.35,3.58,0,1.58-1.56,2.86-3.48,2.86a2.57,2.57,0,0,1-2.78-2.29,2.05,2.05,0,0,1,2.22-1.83,1.65,1.65,0,0,1,1.79,1.46,1.32,1.32,0,0,1-1.43,1.18,1.05,1.05,0,0,1-1.14-.94"/><path class="cls-6" d="M452.94,460.91c0,3.86-3.8,7-8.5,7-3.75,0-6.8-2.5-6.8-5.59,0-2.47,2.44-4.47,5.44-4.47,2.41,0,4.35,1.6,4.35,3.57,0,1.58-1.55,2.87-3.48,2.87a2.57,2.57,0,0,1-2.78-2.29,2.06,2.06,0,0,1,2.23-1.83,1.64,1.64,0,0,1,1.78,1.46,1.32,1.32,0,0,1-1.43,1.17,1.05,1.05,0,0,1-1.14-.93"/><path class="cls-12" d="M457.88,446.44c-3.91,0-7.08-2.63-7.08-5.86,0-2.62,2.56-4.75,5.72-4.75,2.55,0,4.63,1.72,4.63,3.85,0,1.73-1.69,3.14-3.76,3.14a2.86,2.86,0,0,1-3.07-2.57,2.34,2.34,0,0,1,2.51-2.11,1.93,1.93,0,0,1,2.06,1.75,1.59,1.59,0,0,1-1.7,1.45,1.33,1.33,0,0,1-1.42-1.22h.55a.79.79,0,0,0,.87.66,1,1,0,0,0,1.14-.89,1.37,1.37,0,0,0-1.5-1.19,1.79,1.79,0,0,0-1.95,1.55,2.3,2.3,0,0,0,2.51,2c1.76,0,3.2-1.16,3.2-2.58,0-1.82-1.83-3.3-4.07-3.3-2.85,0-5.16,1.88-5.16,4.2,0,2.92,2.92,5.3,6.52,5.3,4.53,0,8.22-3,8.22-6.7h.56C466.66,443.18,462.72,446.44,457.88,446.44Z"/><path class="cls-12" d="M457.38,424.93c-6.81,0-12.35-4.18-12.35-9.32,0-4.14,4.46-7.51,9.93-7.51,4.41,0,8,2.72,8,6.07,0,2.7-2.89,4.9-6.45,4.9-2.88,0-5.22-1.78-5.22-4,0-1.78,1.9-3.24,4.23-3.24,1.9,0,3.44,1.19,3.44,2.65,0,1.2-1.26,2.17-2.81,2.17a2.09,2.09,0,0,1-2.3-1.79h.56c0,.68.78,1.24,1.74,1.24,1.24,0,2.25-.73,2.25-1.62,0-1.15-1.29-2.09-2.88-2.09-2,0-3.67,1.2-3.67,2.68,0,1.89,2.09,3.42,4.66,3.42,3.25,0,5.89-1.95,5.89-4.34,0-3-3.33-5.51-7.44-5.51-5.16,0-9.37,3.12-9.37,6.95,0,4.83,5.29,8.76,11.79,8.76,8.16,0,14.79-4.94,14.79-11h.56C472.73,419.74,465.84,424.93,457.38,424.93Z"/><path class="cls-12" d="M488,402.21c-8,0-14.43-9.1-14.43-20.29,0-9,5.2-16.3,11.6-16.3,5.15,0,9.34,5.87,9.34,13.09,0,5.81-3.38,10.53-7.53,10.53-3.35,0-6.08-3.8-6.08-8.48,0-3.77,2.21-6.84,4.92-6.84,2.2,0,4,2.48,4,5.53,0,2.47-1.46,4.48-3.25,4.48-1.46,0-2.65-1.63-2.65-3.64h.56c0,1.7.94,3.08,2.09,3.08,1.49,0,2.69-1.76,2.69-3.92,0-2.74-1.54-5-3.43-5-2.4,0-4.36,2.82-4.36,6.28,0,4.37,2.48,7.92,5.52,7.92,3.84,0,7-4.47,7-10,0-6.91-3.94-12.53-8.78-12.53-6.09,0-11,7.06-11,15.74,0,10.88,6.22,19.73,13.87,19.73,9.6,0,17.41-11.1,17.41-24.74H506C506,390.86,498,402.21,488,402.21Z"/><path class="cls-12" d="M466.19,407.62c-5,0-9.11-7-9.11-15.69,0-6.95,3.29-12.6,7.34-12.6,3.27,0,5.93,4.54,5.93,10.14,0,4.5-2.15,8.16-4.8,8.16-2.15,0-3.89-2.95-3.89-6.59,0-3,1.39-5.32,3.17-5.32,1.45,0,2.59,1.89,2.59,4.31,0,2-.93,3.51-2.13,3.51-1,0-1.76-1.25-1.76-2.86h.56c0,1.25.55,2.3,1.2,2.3.85,0,1.57-1.35,1.57-3,0-2-.93-3.76-2-3.76-1.42,0-2.62,2.19-2.62,4.77,0,3.33,1.5,6,3.34,6,2.34,0,4.24-3.41,4.24-7.6,0-5.29-2.41-9.58-5.37-9.58-3.74,0-6.78,5.4-6.78,12,0,8.34,3.83,15.13,8.55,15.13,5.93,0,10.76-8.52,10.76-19h.56C477.51,398.85,472.43,407.62,466.19,407.62Z"/><rect class="cls-13" x="279.82" y="375.19" width="33.62" height="0.84" transform="translate(-174.41 290.77) rotate(-41.49)"/><rect class="cls-13" x="382.4" y="428.97" width="21.47" height="0.84" transform="translate(-185.82 368.21) rotate(-41.49)"/><rect class="cls-13" x="457.54" y="466.81" width="18.51" height="0.84" transform="translate(-192.4 426.5) rotate(-41.49)"/><rect class="cls-13" x="299.72" y="374.31" width="69.9" height="0.84" transform="translate(-164.28 315.76) rotate(-41.49)"/><rect class="cls-14" x="582.58" y="437.47" width="9.91" height="12.21" rx="4" transform="translate(392.69 -266.35) rotate(37.6)"/><path class="cls-14" d="M589.68,444.41l-3.47-2.68c-.19-.15-1.16-.28-.69-.89L665,330.58c.46-.6,3.77-1.25,4-1.1l8.14,6.26c.19.15.64,3.82.17,4.42C677.3,340.16,589.88,444.56,589.68,444.41Z"/><rect class="cls-15" x="511.5" y="264.17" width="58.16" height="171.59" rx="29.08"/><ellipse class="cls-16" cx="540.58" cy="418.28" rx="29.08" ry="19.87"/><circle class="cls-17" cx="530.45" cy="308.85" r="6.85"/><circle class="cls-17" cx="547.43" cy="308.85" r="6.85"/><rect class="cls-9" x="535.94" y="331.71" width="22.99" height="18.93" rx="4"/><path class="cls-18" d="M520.87,364.11H518a3.13,3.13,0,0,1-3.13-3.12V350.63A3.13,3.13,0,0,1,518,347.5h2.88a3.13,3.13,0,0,1,3.12,3.13V361A3.12,3.12,0,0,1,520.87,364.11ZM518,349.59a1,1,0,0,0-1,1V361a1,1,0,0,0,1,1h2.88a1,1,0,0,0,1-1V350.63a1,1,0,0,0-1-1Z"/><path class="cls-18" d="M512.1,350.36H510a3.13,3.13,0,0,1-3.13-3.12V335.12A3.13,3.13,0,0,1,510,332h2.1a3.13,3.13,0,0,1,3.13,3.13v12.12A3.13,3.13,0,0,1,512.1,350.36ZM510,334.08a1,1,0,0,0-1,1v12.12a1,1,0,0,0,1,1h2.1a1,1,0,0,0,1-1V335.12a1,1,0,0,0-1-1Z"/><path class="cls-18" d="M531.31,396.28H529.2a3.12,3.12,0,0,1-3.12-3.12V381a3.13,3.13,0,0,1,3.12-3.13h2.11a3.13,3.13,0,0,1,3.12,3.13v12.12A3.12,3.12,0,0,1,531.31,396.28ZM529.2,380a1,1,0,0,0-1,1v12.12a1,1,0,0,0,1,1h2.11a1,1,0,0,0,1-1V381a1,1,0,0,0-1-1Z"/><path class="cls-18" d="M528.17,385.48h-2.1a3.13,3.13,0,0,1-3.13-3.12V370.24a3.13,3.13,0,0,1,3.13-3.13h2.1a3.13,3.13,0,0,1,3.13,3.13v12.12A3.13,3.13,0,0,1,528.17,385.48Zm-2.1-16.28a1,1,0,0,0-1.05,1v12.12a1,1,0,0,0,1.05,1h2.1a1,1,0,0,0,1-1V370.24a1,1,0,0,0-1-1Z"/><path class="cls-18" d="M516.29,356.39h-2.1a3.13,3.13,0,0,1-3.13-3.13V341.14a3.13,3.13,0,0,1,3.13-3.12h2.1a3.13,3.13,0,0,1,3.13,3.12v12.12A3.13,3.13,0,0,1,516.29,356.39Zm-2.1-16.29a1,1,0,0,0-1,1v12.12a1,1,0,0,0,1,1h2.1a1,1,0,0,0,1-1V341.14a1,1,0,0,0-1-1Z"/><path class="cls-18" d="M525,374.9h-2.1a3.14,3.14,0,0,1-3.13-3.13V359.65a3.13,3.13,0,0,1,3.13-3.12H525a3.13,3.13,0,0,1,3.13,3.12v12.12A3.13,3.13,0,0,1,525,374.9Zm-2.1-16.29a1,1,0,0,0-1,1v12.12a1,1,0,0,0,1,1H525a1,1,0,0,0,1.05-1V359.65a1,1,0,0,0-1.05-1Z"/><path class="cls-18" d="M566.23,364.11h-2.87a3.13,3.13,0,0,1-3.13-3.12V350.63a3.13,3.13,0,0,1,3.13-3.13h2.87a3.13,3.13,0,0,1,3.13,3.13V361A3.13,3.13,0,0,1,566.23,364.11Zm-2.87-14.52a1,1,0,0,0-1,1V361a1,1,0,0,0,1,1h2.87a1,1,0,0,0,1-1V350.63a1,1,0,0,0-1-1Z"/><path class="cls-18" d="M574.23,350.36h-2.11a3.12,3.12,0,0,1-3.12-3.12V335.12a3.13,3.13,0,0,1,3.12-3.13h2.11a3.13,3.13,0,0,1,3.12,3.13v12.12A3.12,3.12,0,0,1,574.23,350.36Zm-2.11-16.28a1,1,0,0,0-1,1v12.12a1,1,0,0,0,1,1h2.11a1,1,0,0,0,1-1V335.12a1,1,0,0,0-1-1Z"/><path class="cls-18" d="M555,396.28h-2.1a3.13,3.13,0,0,1-3.13-3.12V381a3.13,3.13,0,0,1,3.13-3.13H555a3.13,3.13,0,0,1,3.13,3.13v12.12A3.13,3.13,0,0,1,555,396.28ZM552.92,380a1,1,0,0,0-1,1v12.12a1,1,0,0,0,1,1H555a1,1,0,0,0,1.05-1V381a1,1,0,0,0-1.05-1Z"/><path class="cls-18" d="M558.16,385.48h-2.1a3.13,3.13,0,0,1-3.13-3.12V370.24a3.13,3.13,0,0,1,3.13-3.13h2.1a3.13,3.13,0,0,1,3.13,3.13v12.12A3.13,3.13,0,0,1,558.16,385.48Zm-2.1-16.28a1,1,0,0,0-1,1v12.12a1,1,0,0,0,1,1h2.1a1,1,0,0,0,1-1V370.24a1,1,0,0,0-1-1Z"/><path class="cls-18" d="M570,356.39h-2.11a3.13,3.13,0,0,1-3.12-3.13V341.14a3.12,3.12,0,0,1,3.12-3.12H570a3.12,3.12,0,0,1,3.12,3.12v12.12A3.13,3.13,0,0,1,570,356.39Zm-2.11-16.29a1,1,0,0,0-1,1v12.12a1,1,0,0,0,1,1H570a1,1,0,0,0,1-1V341.14a1,1,0,0,0-1-1Z"/><path class="cls-18" d="M561.3,374.9h-2.11a3.13,3.13,0,0,1-3.12-3.13V359.65a3.12,3.12,0,0,1,3.12-3.12h2.11a3.12,3.12,0,0,1,3.12,3.12v12.12A3.13,3.13,0,0,1,561.3,374.9Zm-2.11-16.29a1,1,0,0,0-1,1v12.12a1,1,0,0,0,1,1h2.11a1,1,0,0,0,1-1V359.65a1,1,0,0,0-1-1Z"/><ellipse class="cls-19" cx="532.64" cy="388.51" rx="3.07" ry="3.59"/><path class="cls-20" d="M532.64,393.14a4.67,4.67,0,1,1,4.12-4.63A4.4,4.4,0,0,1,532.64,393.14Zm0-7.19a2.62,2.62,0,1,0,2,2.56A2.35,2.35,0,0,0,532.64,386Z"/><ellipse class="cls-21" cx="535.93" cy="383.34" rx="3.29" ry="3.85"/><path class="cls-20" d="M535.93,388.23a4.93,4.93,0,1,1,4.33-4.89A4.64,4.64,0,0,1,535.93,388.23Zm0-7.7a2.87,2.87,0,1,0,2.25,2.81A2.57,2.57,0,0,0,535.93,380.53Z"/><ellipse class="cls-22" cx="540.12" cy="379.62" rx="2.9" ry="5.29"/><path class="cls-20" d="M540.12,386c-2.25,0-3.94-2.72-3.94-6.33s1.69-6.33,3.94-6.33,3.93,2.72,3.93,6.33S542.36,386,540.12,386Zm0-10.58c-.76,0-1.86,1.66-1.86,4.25s1.1,4.25,1.86,4.25,1.85-1.65,1.85-4.25S540.87,375.37,540.12,375.37Z"/><ellipse class="cls-23" cx="538.84" cy="390.02" rx="4.17" ry="6.69"/><path class="cls-20" d="M538.84,397.76c-2.92,0-5.21-3.4-5.21-7.74s2.29-7.73,5.21-7.73,5.21,3.4,5.21,7.73S541.76,397.76,538.84,397.76Zm0-13.38c-1.66,0-3.13,2.64-3.13,5.64s1.47,5.65,3.13,5.65S542,393,542,390,540.51,384.38,538.84,384.38Z"/><ellipse class="cls-24" cx="545.4" cy="382.95" rx="6.18" ry="5.56"/><path class="cls-20" d="M545.4,389.55c-4,0-7.22-3-7.22-6.6s3.24-6.6,7.22-6.6,7.23,3,7.23,6.6S549.39,389.55,545.4,389.55Zm0-11.12c-2.83,0-5.14,2-5.14,4.52s2.31,4.51,5.14,4.51,5.14-2,5.14-4.51S548.24,378.43,545.4,378.43Z"/><ellipse class="cls-25" cx="546.88" cy="390.92" rx="4.7" ry="7.58"/><path class="cls-20" d="M546.88,399.55c-3.22,0-5.74-3.79-5.74-8.63s2.52-8.63,5.74-8.63,5.75,3.79,5.75,8.63S550.1,399.55,546.88,399.55Zm0-15.17c-2,0-3.66,3-3.66,6.54s1.68,6.54,3.66,6.54,3.66-3,3.66-6.54S548.87,384.38,546.88,384.38Z"/><rect class="cls-20" x="537.22" y="394.14" width="5.79" height="22.01" rx="2.9"/><path class="cls-20" d="M540.93,417.19H539.3a3.12,3.12,0,0,1-3.12-3.12V396.22a3.13,3.13,0,0,1,3.12-3.13h1.63a3.13,3.13,0,0,1,3.12,3.13v17.85A3.12,3.12,0,0,1,540.93,417.19Zm-1.63-22a1,1,0,0,0-1,1v17.85a1,1,0,0,0,1,1h1.63a1,1,0,0,0,1-1V396.22a1,1,0,0,0-1-1Z"/><circle class="cls-26" cx="506.19" cy="243.74" r="40.69"/><ellipse class="cls-27" cx="527.79" cy="195.71" rx="26.5" ry="40.79"/><ellipse class="cls-28" cx="571.39" cy="246.18" rx="36.72" ry="43.14"/><ellipse class="cls-29" cx="567.6" cy="193.84" rx="27.02" ry="33.86"/><path d="M486.43,399.53a2.08,2.08,0,0,1-1.53-3.5L510,368.81a2.08,2.08,0,1,1,3.06,2.83L488,398.86A2.09,2.09,0,0,1,486.43,399.53Z"/><rect x="537.77" y="359.56" width="4.17" height="113.23" transform="translate(-31.46 787.97) rotate(-70.68)"/><rect x="591.2" y="420.45" width="11.29" height="22.89" transform="matrix(0.79, 0.61, -0.61, 0.79, 387.5, -274.46)"/><path d="M596.85,434a2.08,2.08,0,0,1-1.94-1.31L569.46,369.4a2.09,2.09,0,0,1,3.87-1.56l25.45,63.28a2.09,2.09,0,0,1-1.93,2.86Z"/><rect x="529.57" y="435.76" width="3.82" height="53.11" rx="1.91"/><rect x="545.53" y="435.76" width="3.82" height="53.11" rx="1.91"/><rect x="503.07" y="485.91" width="30.61" height="13.06"/><rect x="544.94" y="485.91" width="30.61" height="13.06"/><polygon class="cls-30" points="483.08 225.38 471.46 216.53 472.81 214.32 484.43 223.17 483.08 225.38"/><path class="cls-30" d="M486.11,236.79,481.74,234a3.13,3.13,0,0,1-1-4l5.52-10.7a2.47,2.47,0,0,1,3.56-1.07l4.38,2.83a3.14,3.14,0,0,1,.95,4l-5.52,10.7A2.47,2.47,0,0,1,486.11,236.79Z"/><polygon class="cls-30" points="486.33 230.95 494.72 237.34 494.31 238.01 485.93 231.62 486.33 230.95"/><polygon class="cls-30" points="488.18 228.89 496.56 235.28 496.16 235.95 487.77 229.56 488.18 228.89"/><polygon class="cls-30" points="486.33 225.48 494.72 231.87 494.31 232.54 485.93 226.15 486.33 225.48"/><polygon class="cls-30" points="487.93 223.51 496.32 229.9 495.92 230.57 487.53 224.18 487.93 223.51"/><polygon class="cls-30" points="492.9 221.11 501.29 227.5 500.89 228.17 492.5 221.78 492.9 221.11"/><polygon class="cls-30" points="485.06 234.02 493.45 240.41 493.04 241.08 484.65 234.69 485.06 234.02"/><polygon class="cls-30" points="492 222.59 500.39 228.98 499.99 229.65 491.6 223.26 492 222.59"/><rect x="540.58" y="340.92" width="14.43" height="0.52"/><rect x="547.35" y="334.07" width="0.52" height="13.13" transform="translate(-9.2 15.25) rotate(-1.58)"/><path class="cls-31" d="M274.86,256.88l.22-2.16q-18.68,4.11-25.8-11.1-5.9-14.81,4.8-28.44,11.29-11.25,33.18-7.53a91.2,91.2,0,0,1-.2,16.79,34.91,34.91,0,0,0-13.39-1q-7.56,1.59-9.4,6.7-1.65,8.49,4,11.2,5.36,1,8-1.41a17,17,0,0,0-4.54.11l-.1-9.31q13.08-.07,17.35-.38.09,14.7-.34,26.18A88,88,0,0,1,274.86,256.88Z"/><path class="cls-31" d="M296.35,207.14a204.36,204.36,0,0,0,21.89,0l12.68,48.75a98.23,98.23,0,0,0-15.26,1.36L313.41,247a46.53,46.53,0,0,0-8.25,0q-2.15,6.53-3,10.08c-4.72-.77-9.75-1.38-15.12-1.83l11-34.89-5-.34Zm12.81,20.52a50.35,50.35,0,0,0-1.78,7.07c1.07,0,2.12-.1,3.13-.18A34.76,34.76,0,0,0,309.16,227.66Z"/><path class="cls-31" d="M332.39,224.8l1.28-16.72q14.38-.71,21.49-1.18,3.42,5.1,6.89,9.38a71.19,71.19,0,0,0,6.61-9.21q6.94.44,15.81.66,3.86,37.92,4.53,47.58a114.7,114.7,0,0,1-16.18,1.85q-.88-9.8-1.76-22l-9.85,9.2q-5.11-5.15-8.41-9Q351.9,248,351.48,257l-17-.68L337,225.19Z"/><path class="cls-31" d="M426,207.2q-.77,8.9-.73,15.13l-18.1.13.15,4.06,12.62-.38.35,11.67q-4.84.42-12.55.66l.07,3.59q8.06,0,17.92-.57.24,9.24.73,14.49-9.58.24-34.7.83.33-20,0-34.24l-4.1.09-.39-14.91Q398.23,207.75,426,207.2Z"/><path class="cls-31" d="M285.3,256.69A22.45,22.45,0,0,1,292.78,268a30.26,30.26,0,0,1,1,8.65q-2.35,25.33-26.58,24.7-10,0-16.51-8.38a24.45,24.45,0,0,1-3.64-10.73,32.32,32.32,0,0,1,1.48-12.75,26.33,26.33,0,0,1,7.07-11Q269.61,246.08,285.3,256.69Zm-21.84,23.62c.9,2.68,2.88,4.06,6,4.12a7.73,7.73,0,0,0,6.52-2.47c1.8-2.31,2.21-4.63,1.25-6.95q-2-4.42-6-4.34a8.37,8.37,0,0,0-7.25,5.11A7,7,0,0,0,263.46,280.31Z"/><path class="cls-31" d="M296.83,267.92a127.84,127.84,0,0,1-2.09-14.14,121.69,121.69,0,0,1,19.6-2.22q4.4,20.54,7.48,30a275.22,275.22,0,0,0,6.94-29.61l15.92,1.21q-10.59,36.42-13.56,48.33a91.91,91.91,0,0,1-17.22,0q-8.11-21.29-11.82-34.3Z"/><path class="cls-31" d="M385.44,252.22q-.76,8.91-.73,15.13l-18.1.13.15,4.07,12.62-.39.35,11.67q-4.85.44-12.55.66l.07,3.6q8.07,0,17.92-.57.24,9.23.73,14.49l-34.7.82q.33-19.95,0-34.24l-4.1.09-.39-14.91Q357.63,252.77,385.44,252.22Z"/><path class="cls-31" d="M388.49,269.44q.52-8.87.8-15.11Q403.12,251.06,414,252a24.35,24.35,0,0,1,10.41,3.87q4.89,3.25,6.34,7.11,3,11.52-9.24,20.53A70.11,70.11,0,0,0,431,293l-12.26,11.25-10-13.79q-.06,6.26-.06,11.45-10.35.52-15.49-.31-.14-7.47.47-32.93Zm20.37-2.73a66,66,0,0,0-.09,8.25l2.62-.77c3-1.44,4.5-3.07,4.48-4.89a2.4,2.4,0,0,0-2.29-2.59A9.29,9.29,0,0,0,408.86,266.71Z"/><path class="cls-31" d="M447.83,291.65c2.71,1.1,3.82,2.8,3.35,5.11a6.88,6.88,0,0,1-3,3.72,12.37,12.37,0,0,1-10.42,1q-5.26-2.1-4.07-6a6.88,6.88,0,0,1,4.29-3.7,17.85,17.85,0,0,1,6.69-.9A17.56,17.56,0,0,1,447.83,291.65Zm3.33-39.1q-1.07,24.72-1.81,35.07-6.71.25-14.29.07c0-.07-.05-.12-.13-.15q-.8-11.22-1.19-34.82A136.56,136.56,0,0,1,451.16,252.55Z"/><path class="cls-32" d="M247.19,494.29q-26.15-.15-52.29,0a34.85,34.85,0,0,1-34.76-33.69c-.08-3.17-.16-6.33-.23-9.5-.53-18.69,14.84-34.21,34.15-34.31q27-.13,54,0c19.31.1,34.68,15.62,34.14,34.32L282,460.6A34.86,34.86,0,0,1,247.19,494.29Z"/><path class="cls-33" d="M295,511.53q-74.52-1.17-149,0l-1.17-36.8q75.69-1.19,151.38,0Z"/><path class="cls-9" d="M149.65,503.21q-.18-3.22-.31-6.73c3.09,1.64,5.7,2.34,7.85,2.11.95-.19,1.39-.59,1.33-1.2,0-.39-.5-.53-1.42-.43a15.89,15.89,0,0,1-2.55,0,6.69,6.69,0,0,1-1.61-.18,8.12,8.12,0,0,1-2.48-.82,4.31,4.31,0,0,1-1.72-1.6,4.84,4.84,0,0,1-.78-2,8.21,8.21,0,0,1,1.68-6.87c2.65-2.82,7.26-3.21,13.71-1.15l.3,6.79a18.12,18.12,0,0,0-4.36-1.6q-4.17-.79-4.19,1.05c.05.79.92,1,2.61.77a9.79,9.79,0,0,1,4.48.32,4.66,4.66,0,0,1,2.71,2.26,8.08,8.08,0,0,1,.48,4.84q-1.49,5.19-7.16,5.94A18.68,18.68,0,0,1,149.65,503.21Z"/><path class="cls-9" d="M165.43,484.54a26,26,0,0,1,12.06-.9q4.68,1.31,5.47,6.47.31,6.69-5.75,7.73c-1,.17-1.74.3-2.35.39q.21,3.27.6,5.89-3.56.18-6.67.27-.64-8.61-.86-14.15l-1.78.23Zm8.86,8.37c1.89-.12,2.87-.7,3-1.74a1.92,1.92,0,0,0-.77-1.61,2.5,2.5,0,0,0-2.43-.2A12.8,12.8,0,0,0,174.29,492.91Z"/><path class="cls-9" d="M192.12,483.77q0,10.5.27,19.87-3.25.18-7.3.18-.81-7.33-1-19.74A24.66,24.66,0,0,1,192.12,483.77Z"/><path class="cls-9" d="M199.11,483.4q.18,7.17.34,14.34l6.18-.18a28.75,28.75,0,0,1-.27,6.2,102,102,0,0,1-12.49.27q-.19-15.82-.46-20.39A62.11,62.11,0,0,1,199.11,483.4Z"/><path class="cls-9" d="M222.22,483.68q-.36,10.5-.41,19.87-3.26.15-7.3.14-.57-7.35-.32-19.75A24.78,24.78,0,0,1,222.22,483.68Z"/><path class="cls-9" d="M233.48,503.94c0-.3.07-.6.1-.9-5.15,1.13-8.68-.41-10.64-4.64-1.63-4.12-1-8.07,2-11.85,3.18-3.13,7.88-4.17,14-3.11a38.61,38.61,0,0,1-.22,7,14.92,14.92,0,0,0-5.61-.44q-3.18.66-4,2.79c-.48,2.35.07,3.91,1.63,4.67a3.82,3.82,0,0,0,3.34-.58,6.86,6.86,0,0,0-1.9,0c0-1.3,0-2.59,0-3.88q5.47,0,7.26-.14c-.06,4.09-.19,7.73-.37,10.91A35.14,35.14,0,0,1,233.48,503.94Z"/><path class="cls-9" d="M256.83,483.35q-.48,3.7-.57,6.31c-2.53,0-5.06,0-7.59,0,0,.56,0,1.13,0,1.69l5.29-.12c0,1.62,0,3.24,0,4.86-1.34.11-3.09.19-5.23.24,0,.5,0,1,0,1.5,2.24,0,4.72,0,7.46-.19q-.06,3.86.06,6.05l-14.33.25q.33-8.31.33-14.27l-1.72,0c0-2.07,0-4.14,0-6.22C243.53,483.5,249,483.44,256.83,483.35Z"/><path class="cls-9" d="M258.57,483.84l7.57-.71a35.56,35.56,0,0,0,5.16,7.34q0-1.92.12-6.69c2.51-.06,4.85-.19,7-.41q-.76,11.75-1.53,20.8c-1.21,0-2.75,0-4.6.07a77.44,77.44,0,0,0-6.11-8.17l-.33,8.11a57.4,57.4,0,0,0-6.29,0q.45-6.07.68-13.95l-2.15.16C258.28,488.21,258.42,486,258.57,483.84Z"/><path class="cls-9" d="M290.66,483.92c3,1.4,4.25,3.48,3.88,6.23-.44,2.32-2.57,3.93-6.35,4.84-.18,1.61-.26,2.87-.27,3.78q-2.58,0-4.68-.12.12-3,.5-6.87a10.51,10.51,0,0,0,3.66-.56q2.63-1,1.43-2.58c-1.5-1.49-3.21-.83-5.11,2-1.74-1.12-2.84-1.86-3.31-2.23C283,484,286.44,482.52,290.66,483.92Zm-3,16.06c1.09.47,1.5,1.19,1.23,2.15a3.2,3.2,0,0,1-1.37,1.53,5.15,5.15,0,0,1-1.78.61,4.94,4.94,0,0,1-2.55-.25c-1.41-.6-1.91-1.44-1.51-2.53a3.11,3.11,0,0,1,1.89-1.52,7.62,7.62,0,0,1,2.8-.33A6.84,6.84,0,0,1,287.67,500Z"/><path class="cls-9" d="M241.57,423.49q9.52-.15,19.05-.14a16.26,16.26,0,0,1,16.48,16.82"/></svg>