<svg id="Layer_1" data-name="Layer 1" xmlns="http://www.w3.org/2000/svg" width="290" height="260" viewBox="0 0 290 260"><defs><style>.cls-1{fill:#d5a492;}.cls-2,.cls-3,.cls-7{fill:#fff;}.cls-2,.cls-4,.cls-6{stroke:#000;}.cls-2,.cls-3,.cls-4,.cls-5,.cls-6{stroke-miterlimit:10;}.cls-2,.cls-3,.cls-5{stroke-width:5px;}.cls-3,.cls-5{stroke:#290b02;}.cls-4,.cls-5{fill:none;}.cls-4{stroke-width:3px;}</style></defs><title>glad</title><path class="cls-1" d="M273.89,128.06c9.48,73.28-44,130-127.25,121.54-69.89-7-127.26-54.41-127.26-121.54S76.36,6.51,146.64,6.51,265.27,61.44,273.89,128.06Z"/><path class="cls-2" d="M3.41,98.93H133.55a1,1,0,0,1,1,1v36.54A65.93,65.93,0,0,1,68.62,202.4h0A66.21,66.21,0,0,1,2.41,136.19V99.93a1,1,0,0,1,1-1Z"/><path class="cls-3" d="M152.29,98.93H282.11a1,1,0,0,1,1,1v34.45a67.77,67.77,0,0,1-67.77,67.77h0a64.05,64.05,0,0,1-64.05-64.05V99.93A1,1,0,0,1,152.29,98.93Z"/><path class="cls-4" d="M119.5,203c6.33,26.76,21.79,21.84,27.41,0"/><line class="cls-5" x1="136.2" y1="146.3" x2="151.41" y2="146.65"/><ellipse class="cls-6" cx="64.24" cy="141.56" rx="20.09" ry="19.19"/><ellipse class="cls-7" cx="55.73" cy="135.76" rx="5.87" ry="5.04"/><ellipse class="cls-6" cx="213.47" cy="144.94" rx="20.09" ry="19.19"/><ellipse class="cls-7" cx="204.96" cy="139.14" rx="5.87" ry="5.04"/></svg>
