<svg id="Layer_1" data-name="Layer 1" xmlns="http://www.w3.org/2000/svg" xmlns:xlink="http://www.w3.org/1999/xlink" width="140" height="80" viewBox="0 0 140 80"><defs><style>.cls-1{fill:url(#radial-gradient);}.cls-2{fill:#d87100;}.cls-3{fill:#38af00;}.cls-4{fill:none;}.cls-5{fill:#070707;}</style><radialGradient id="radial-gradient" cx="379.6" cy="1291.81" r="42.99" gradientTransform="translate(-191.34 -216.52) scale(0.7 0.21)" gradientUnits="userSpaceOnUse"><stop offset="0" stop-opacity="0.6"/><stop offset="1" stop-color="#1d1d1b" stop-opacity="0"/></radialGradient></defs><title>gulerød</title><ellipse class="cls-1" cx="74.04" cy="54.4" rx="38.08" ry="21.53"/><path class="cls-2" d="M116.12,57.23a8.35,8.35,0,0,1-3.83-.25L40.84,35.38A8.46,8.46,0,0,1,38.23,20.5L52.67,9.75a8.44,8.44,0,0,1,9.22-.58l57,32.36a8.46,8.46,0,0,1-2.79,15.7Zm-54-34.79h0Z"/><polygon class="cls-3" points="37.58 21.39 21.74 19.59 34.2 15.18 16.8 17.05 38.93 9.88 24.57 9.37 52.24 4.07 63.23 22.38 51.81 11.26 37.58 21.39"/><line class="cls-4" x1="93.13" y1="46.3" x2="99.92" y2="47.98"/><rect class="cls-5" x="38.89" y="30.38" width="12.7" height="0.32" transform="translate(-6.99 46.38) rotate(-50.9)"/><rect class="cls-5" x="80.47" y="44.47" width="8.11" height="0.32" transform="translate(-3.43 82.05) rotate(-50.89)"/><rect class="cls-5" x="110.81" y="54.03" width="6.99" height="0.32" transform="translate(0.15 108.69) rotate(-50.89)"/><rect class="cls-5" x="46.16" y="27.71" width="26.4" height="0.32" transform="translate(0.29 56.34) rotate(-50.89)"/></svg>
