<svg id="Layer_1" data-name="Layer 1" xmlns="http://www.w3.org/2000/svg" xmlns:xlink="http://www.w3.org/1999/xlink" width="1334" height="750" viewBox="0 0 1334 750"><defs><style>.cls-1{fill:url(#radial-gradient);}.cls-2{fill:#d87100;}.cls-3{fill:#38af00;}.cls-4{fill:none;}.cls-5{fill:#070707;}</style><radialGradient id="radial-gradient" cx="949.68" cy="646.95" r="407.3" gradientTransform="translate(-96.68 474.74) scale(0.7 0.21)" gradientUnits="userSpaceOnUse"><stop offset="0" stop-opacity="0.6"/><stop offset="1" stop-color="#1d1d1b" stop-opacity="0"/></radialGradient></defs><title>gulerød stor</title><ellipse class="cls-1" cx="567.23" cy="610.43" rx="360.79" ry="204"/><path class="cls-2" d="M966,637.2a79.93,79.93,0,0,1-36.28-2.39l-677-204.67a80.13,80.13,0,0,1-24.69-141L364.75,187.29a80.17,80.17,0,0,1,87.4-5.45L992.42,488.42A80.16,80.16,0,0,1,966,637.2ZM454.36,307.58l-.05,0,.05,0Z"/><polygon class="cls-3" points="221.81 297.56 71.74 280.59 189.82 238.79 24.94 256.5 234.59 188.58 98.51 183.69 360.75 133.46 464.81 307.02 356.62 201.63 221.81 297.56"/><line class="cls-4" x1="748.11" y1="533.64" x2="812.48" y2="549.53"/><rect class="cls-5" x="234.23" y="382.79" width="120.32" height="3" transform="translate(-189.5 370.36) rotate(-50.9)"/><rect class="cls-5" x="628.16" y="516.29" width="76.84" height="3" transform="translate(-155.7 708.31) rotate(-50.89)"/><rect class="cls-5" x="915.63" y="606.86" width="66.25" height="3" transform="translate(-121.81 960.68) rotate(-50.89)"/><rect class="cls-5" x="303.13" y="357.45" width="250.16" height="3" transform="translate(-120.44 464.74) rotate(-50.89)"/></svg>
