<svg id="Layer_1" data-name="Layer 1" xmlns="http://www.w3.org/2000/svg" xmlns:xlink="http://www.w3.org/1999/xlink" width="1334" height="750" viewBox="0 0 1334 750"><defs><style>.cls-1{fill:url(#radial-gradient);}.cls-2{fill:#d87100;}.cls-3{fill:#38af00;}.cls-4{fill:none;}.cls-5{fill:#010200;}.cls-6{fill:#707070;}.cls-7{fill:#fff;}.cls-8{fill:#b57402;}.cls-9{fill:#3d3d3d;}.cls-10{fill:#8e8e8e;}.cls-11{fill:#070707;}</style><radialGradient id="radial-gradient" cx="963.19" cy="-165.63" r="407.3" gradientTransform="translate(-92.61 -167.42) scale(0.7 0.21)" gradientUnits="userSpaceOnUse"><stop offset="0" stop-opacity="0.6"/><stop offset="1" stop-color="#1d1d1b" stop-opacity="0"/></radialGradient></defs><title>gulerød forside</title><ellipse class="cls-1" cx="580.74" cy="-202.16" rx="360.79" ry="204"/><rect x="491.3" y="458.6" width="15.44" height="173.44"/><rect x="550.99" y="483.94" width="13.51" height="148.1"/><polyline points="506.75 618.26 506.75 669.77 405.88 669.77"/><polyline points="550.99 618.26 550.99 669.77 651.86 669.77"/><path class="cls-2" d="M891,657.93a80,80,0,0,1-35.41-8.27L221.11,337.23a80.13,80.13,0,0,1-1.36-143.09l151.52-78.21a80.17,80.17,0,0,1,87.15,8.9l483,390.64A80.15,80.15,0,0,1,891,657.93ZM440.08,249.22h0Z"/><polygon class="cls-3" points="212.26 201.39 66.97 160.15 190.3 138.19 24.74 128.75 242.67 95.95 109.21 68.92 376.13 62.17 450.46 250.38 360.92 128.75 212.26 201.39"/><polygon points="493.5 330.34 447.17 417.5 394.85 452.1 348.52 420.95 296.21 337.25 394.85 333.8 493.5 330.34"/><polygon points="690.79 330.34 644.46 417.5 592.14 452.1 545.81 420.95 493.5 337.25 592.14 333.8 690.79 330.34"/><line class="cls-4" x1="692.98" y1="520.2" x2="753.89" y2="546.39"/><ellipse class="cls-5" cx="669.78" cy="506.89" rx="9.58" ry="15.63"/><ellipse class="cls-6" cx="819.31" cy="606.09" rx="1.39" ry="1.36"/><path class="cls-7" d="M808.33,616.39,674.45,526.26a10.45,10.45,0,0,1-2.78-14.72h0a11,11,0,0,1,15-2.72L820.59,599a10.45,10.45,0,0,1,2.79,14.72h0A11,11,0,0,1,808.33,616.39Z"/><polygon class="cls-8" points="702.76 545.32 662.96 518.52 675.22 501.08 715.02 527.88 702.76 545.32"/><path class="cls-9" d="M813.18,619.45h0a5.22,5.22,0,0,1-1.39-7.36l6.13-8.73a5.5,5.5,0,0,1,7.52-1.36h0a5.23,5.23,0,0,1,1.39,7.36l-6.13,8.73A5.48,5.48,0,0,1,813.18,619.45Z"/><ellipse class="cls-6" cx="822.57" cy="611.83" rx="1.7" ry="5.75"/><ellipse class="cls-6" cx="816.53" cy="613.23" rx="5.95" ry="2.91"/><ellipse class="cls-6" cx="810.93" cy="616.26" rx="0.53" ry="1.52"/><ellipse class="cls-6" cx="824.27" cy="606.09" rx="0.53" ry="1.52"/><rect x="702.04" y="537.95" width="21.32" height="2" transform="translate(-138.06 812.12) rotate(-54.9)"/><path class="cls-4" d="M865.16,548.08c0,13.8-13.62,25-30.43,25-13.44,0-24.33-9-24.33-20,0-8.84,8.71-16,19.47-16,8.6,0,15.57,5.73,15.57,12.8,0,5.65-5.58,10.24-12.46,10.24-5.5,0-10-3.67-10-8.19,0-3.62,3.57-6.56,8-6.56,3.52,0,6.38,2.35,6.38,5.24,0,2.32-2.29,4.2-5.11,4.2-2.25,0-4.08-1.5-4.08-3.36"/><path class="cls-4" d="M829.16,604.08c0,13.8-13.62,25-30.43,25-13.44,0-24.33-9-24.33-20,0-8.84,8.71-16,19.47-16,8.6,0,15.57,5.73,15.57,12.8,0,5.65-5.58,10.24-12.46,10.24-5.5,0-10-3.67-10-8.19,0-3.62,3.57-6.56,8-6.56,3.52,0,6.38,2.35,6.38,5.24,0,2.32-2.29,4.2-5.11,4.2-2.25,0-4.08-1.5-4.08-3.36"/><path class="cls-10" d="M846.81,552.29c-14,0-25.34-9.42-25.34-21,0-9.37,9.19-17,20.48-17,9.14,0,16.57,6.2,16.57,13.8,0,6.2-6,11.24-13.46,11.24-6,0-11-4.12-11-9.19,0-4.16,4-7.55,9-7.55,4.07,0,7.38,2.8,7.38,6.24,0,2.87-2.74,5.2-6.11,5.2-2.8,0-5.08-2-5.08-4.36h2c0,1.3,1.38,2.36,3.08,2.36,2.27,0,4.11-1.44,4.11-3.2,0-2.34-2.42-4.24-5.38-4.24-3.85,0-7,2.49-7,5.55,0,4,4,7.19,9,7.19,6.32,0,11.46-4.14,11.46-9.24,0-6.5-6.54-11.8-14.57-11.8-10.19,0-18.48,6.73-18.48,15,0,10.48,10.47,19,23.34,19,16.23,0,29.43-10.76,29.43-24h2C878.24,540.63,864.14,552.29,846.81,552.29Z"/><path class="cls-10" d="M845,475.29c-24.35,0-44.16-15-44.16-33.33,0-14.82,15.94-26.87,35.53-26.87,15.78,0,28.63,9.73,28.63,21.69,0,9.68-10.37,17.56-23.1,17.56-10.31,0-18.69-6.39-18.69-14.25,0-6.39,6.8-11.59,15.15-11.59,6.79,0,12.32,4.25,12.32,9.48,0,4.29-4.51,7.78-10.06,7.78-4.54,0-8.24-2.89-8.24-6.43h2c0,2.44,2.8,4.43,6.24,4.43,4.44,0,8.06-2.6,8.06-5.78,0-4.13-4.63-7.48-10.32-7.48-7.25,0-13.15,4.3-13.15,9.59,0,6.76,7.49,12.25,16.69,12.25,11.63,0,21.1-7,21.1-15.56,0-10.86-11.95-19.69-26.63-19.69-18.49,0-33.53,11.15-33.53,24.87,0,17.28,18.91,31.33,42.16,31.33,29.21,0,53-17.68,53-39.42h2C900,456.71,875.33,475.29,845,475.29Z"/><path class="cls-10" d="M954.76,394c-28.48,0-51.65-32.59-51.65-72.64,0-32.16,18.63-58.32,41.52-58.32,18.43,0,33.42,21,33.42,46.86,0,20.77-12.08,37.68-26.93,37.68-12,0-21.75-13.62-21.75-30.35,0-13.49,7.89-24.47,17.6-24.47,7.87,0,14.28,8.87,14.28,19.78,0,8.83-5.22,16-11.63,16-5.23,0-9.49-5.84-9.49-13h2c0,6.08,3.36,11,7.49,11,5.31,0,9.63-6.29,9.63-14,0-9.81-5.51-17.78-12.28-17.78-8.6,0-15.6,10.08-15.6,22.47,0,15.63,8.86,28.35,19.75,28.35,13.75,0,24.93-16,24.93-35.68,0-24.74-14.09-44.86-31.42-44.86-21.79,0-39.52,25.27-39.52,56.32,0,38.95,22.27,70.64,49.65,70.64,34.37,0,62.32-39.72,62.32-88.55h2C1019.08,353.38,990.23,394,954.76,394Z"/><path class="cls-10" d="M876.56,413.34c-18,0-32.6-25.19-32.6-56.14,0-24.87,11.79-45.11,26.28-45.11,11.71,0,21.23,16.28,21.23,36.29,0,16.12-7.71,29.23-17.18,29.23-7.69,0-13.95-10.58-13.95-23.59,0-10.69,5-19.06,11.36-19.06,5.2,0,9.28,6.79,9.28,15.45,0,7-3.35,12.56-7.63,12.56-3.53,0-6.3-4.5-6.3-10.25h2c0,4.48,2,8.25,4.3,8.25,3.06,0,5.63-4.83,5.63-10.56,0-7.29-3.33-13.45-7.28-13.45-5.07,0-9.36,7.81-9.36,17.06,0,11.91,5.36,21.59,11.95,21.59,8.37,0,15.18-12.22,15.18-27.23,0-18.91-8.63-34.29-19.23-34.29-13.39,0-24.28,19.34-24.28,43.11,0,29.85,13.73,54.14,30.6,54.14,21.24,0,38.51-30.47,38.51-67.92h2C917.07,382,898.9,413.34,876.56,413.34Z"/><rect class="cls-11" x="209.55" y="297.3" width="120.32" height="3" transform="translate(-130.28 253.67) rotate(-41.49)"/><rect class="cls-11" x="576.7" y="489.76" width="76.84" height="3" transform="translate(-171.1 530.8) rotate(-41.49)"/><rect class="cls-11" x="845.61" y="625.17" width="66.25" height="3" transform="translate(-194.66 739.42) rotate(-41.49)"/><rect class="cls-11" x="280.8" y="294.15" width="250.16" height="3" transform="translate(-94.02 343.08) rotate(-41.49)"/></svg>