<svg id="Layer_1" data-name="Layer 1" xmlns="http://www.w3.org/2000/svg" width="290" height="260" viewBox="0 0 290 260"><defs><style>.cls-1{fill:#d5a492;}.cls-2,.cls-3,.cls-7{fill:#fff;}.cls-2,.cls-4,.cls-6,.cls-8{stroke:#000;}.cls-2,.cls-3,.cls-4,.cls-5,.cls-6,.cls-8{stroke-miterlimit:10;}.cls-2,.cls-3,.cls-5{stroke-width:5px;}.cls-3,.cls-5{stroke:#290b02;}.cls-4,.cls-5,.cls-8{fill:none;}.cls-4{stroke-width:3px;}</style></defs><title>ked</title><path class="cls-1" d="M276.13,129.59c9.48,73.28-44,129.94-127.26,121.54C79,244.08,21.62,196.71,21.62,129.59S78.59,8,148.87,8,267.51,63,276.13,129.59Z"/><path class="cls-2" d="M5.65,90.32H135.79a1,1,0,0,1,1,1v36.54a65.93,65.93,0,0,1-65.93,65.93h0A66.21,66.21,0,0,1,4.65,127.58V91.32A1,1,0,0,1,5.65,90.32Z"/><path class="cls-3" d="M154.53,90.32H284.35a1,1,0,0,1,1,1v34.45a67.77,67.77,0,0,1-67.77,67.77h0a64.05,64.05,0,0,1-64.05-64.05V91.32a1,1,0,0,1,1-1Z"/><path class="cls-4" d="M149.15,212.67c-6.32-26.76-21.79-21.84-27.41,0"/><line class="cls-5" x1="138.43" y1="137.69" x2="153.65" y2="138.04"/><ellipse class="cls-6" cx="72.67" cy="161.11" rx="20.09" ry="19.19"/><ellipse class="cls-7" cx="64.16" cy="155.31" rx="5.87" ry="5.04"/><ellipse class="cls-6" cx="210.92" cy="161.96" rx="20.09" ry="19.19"/><ellipse class="cls-7" cx="202.41" cy="156.15" rx="5.87" ry="5.04"/><line class="cls-8" x1="26.39" y1="129.64" x2="67.7" y2="109.34"/><line class="cls-8" x1="247.76" y1="131.18" x2="206.45" y2="110.89"/></svg>
