<svg id="Layer_1" data-name="Layer 1" xmlns="http://www.w3.org/2000/svg" width="297.59" height="85.31" viewBox="0 0 297.59 85.31"><defs><style>.cls-1{fill:#b5230b;stroke:#ffe600;stroke-miterlimit:10;stroke-width:5px;}</style></defs><title>points</title><path class="cls-1" d="M56,2.94q-.06,41.75-.5,79.13A129,129,0,0,1,26.76,82q0-24.23,1.15-47.05L19.59,44A180.52,180.52,0,0,1,3.53,31.24L28.9,2.79Q41.29,2.43,56,2.94Z"/><path class="cls-1" d="M75.69,74a35.85,35.85,0,0,1-11.95-18.1A48.68,48.68,0,0,1,62.07,42Q65.85,1.5,104.58,2.53q16,0,26.39,13.38a39.34,39.34,0,0,1,5.83,17.17,51.65,51.65,0,0,1-2.37,20.39Q130.24,64.81,123.12,71,100.8,90.91,75.69,74ZM110.61,37.1q-2.13-6.45-9.52-6.6a12.35,12.35,0,0,0-10.43,4q-4.3,5.53-2,11.1,3.19,7.09,9.52,6.95,8-.65,11.6-8.18A11.1,11.1,0,0,0,110.61,37.1Z"/><path class="cls-1" d="M154.73,74a35.91,35.91,0,0,1-11.95-18.1A48.68,48.68,0,0,1,141.11,42Q144.89,1.5,183.62,2.53q16,0,26.4,13.38a39.47,39.47,0,0,1,5.83,17.17,51.84,51.84,0,0,1-2.38,20.39Q209.29,64.81,202.16,71,179.84,90.91,154.73,74ZM189.65,37.1q-2.13-6.45-9.52-6.6a12.36,12.36,0,0,0-10.43,4q-4.3,5.53-2,11.1,3.19,7.09,9.52,6.95,8-.65,11.6-8.18A11,11,0,0,0,189.65,37.1Z"/><path class="cls-1" d="M233.78,74a35.92,35.92,0,0,1-12-18.1A49,49,0,0,1,220.15,42Q223.93,1.5,262.66,2.53q16,0,26.4,13.38a39.47,39.47,0,0,1,5.83,17.17,52,52,0,0,1-2.37,20.39Q288.32,64.81,281.21,71,258.88,90.91,233.78,74ZM268.7,37.1q-2.15-6.45-9.52-6.6a12.34,12.34,0,0,0-10.43,4q-4.31,5.53-2,11.1,3.19,7.09,9.53,6.95,8-.65,11.6-8.18A11.16,11.16,0,0,0,268.7,37.1Z"/></svg>
