<svg id="Layer_1" data-name="Layer 1" xmlns="http://www.w3.org/2000/svg" width="324.82" height="101.91" viewBox="0 0 324.82 101.91"><defs><style>.cls-1{fill:#b5230b;stroke:#ffe600;stroke-miterlimit:10;stroke-width:5px;}</style></defs><title>Point</title><path class="cls-1" d="M2.61,7.89q30.77-8.5,55-3.59,20.92,6.22,23.56,30,.14,30.8-28.06,35.37-6.71,1.09-11,1.69.18,15,1.34,27.1-16.53.67-31,.92-.6-39.66,0-65.15l-8.23,1Zm38.25,39q13-.71,14-7.87c0-3.42-1-5.91-3.16-7.46q-6-3.48-11-1A58.82,58.82,0,0,0,40.86,46.84Z"/><path class="cls-1" d="M133.8,38.07a28.65,28.65,0,0,1,9.57,14.48,38.9,38.9,0,0,1,1.33,11.06q-3,32.42-34,31.6Q97.88,95.15,89.58,84.5a31.51,31.51,0,0,1-4.67-13.74,41.5,41.5,0,0,1,1.9-16.31q3.36-9.08,9-14Q113.71,24.5,133.8,38.07ZM105.87,68.28q1.71,5.14,7.61,5.27a9.9,9.9,0,0,0,8.35-3.16c2.29-3,2.83-5.92,1.59-8.89q-2.55-5.67-7.62-5.55a10.71,10.71,0,0,0-9.28,6.54A8.84,8.84,0,0,0,105.87,68.28Z"/><path class="cls-1" d="M172.17,33.78q-1,32.22-1.17,61-10.11.49-22.64.42-1.58-22.54-.52-60.61Q155.87,32.35,172.17,33.78Z"/><path class="cls-1" d="M169.34,33.8l22.82-2.37Q197.77,41.8,209,53.79q-.31-5.88-.77-20.53,11.37-.39,21.21-1.5,0,36-.58,63.87-5.66,0-14.23.37a276.08,276.08,0,0,0-20.23-24.86L194.67,96a192.57,192.57,0,0,0-19.5.21q.57-18.64.19-42.82l-6.52.54Z"/><path class="cls-1" d="M293.57,32.18a87.17,87.17,0,0,1-.42,21.71,156.91,156.91,0,0,0-18.24.25l.52,41q-11.51.54-21.94.33L254.66,54q-9,0-17.53.4a163.85,163.85,0,0,1,0-22.38Q264.79,32.56,293.57,32.18Z"/><path class="cls-1" d="M307,76a16.57,16.57,0,0,1-4.87-1.61c-2-1.41-3-2.89-3.07-4.46a5.17,5.17,0,0,1,1-3.63,14.36,14.36,0,0,1,5.62-3.8q6.69-2.3,10.76-1a9.25,9.25,0,0,1,5.81,6.38q.64,5.27-5.48,7.29A21.33,21.33,0,0,1,307,76Zm10.85,4.36q5.21,2.12,4.29,6.54c-.41,1.66-1.69,3.24-3.84,4.76A15.84,15.84,0,0,1,305,92.91q-6.72-2.67-5.2-7.69a8.75,8.75,0,0,1,5.48-4.73,22.84,22.84,0,0,1,8.56-1.15A24.39,24.39,0,0,1,317.88,80.32Z"/></svg>
