<svg id="Layer_1" data-name="Layer 1" xmlns="http://www.w3.org/2000/svg" width="50.64" height="67.12" viewBox="0 0 50.64 67.12"><defs><style>.cls-1{fill:#8d8d8d;}</style></defs><title>røg</title><path class="cls-1" d="M10.66,67.12c-3.24,0-5.88-2.18-5.88-4.87,0-2.18,2.14-4,4.76-4,2.12,0,3.84,1.44,3.84,3.21a2.9,2.9,0,0,1-3.12,2.61A2.37,2.37,0,0,1,7.71,62,2,2,0,0,1,9.8,60.23a1.6,1.6,0,0,1,1.71,1.45,1.33,1.33,0,0,1-1.42,1.2,1.1,1.1,0,0,1-1.18-1h.47a.65.65,0,0,0,.71.55.86.86,0,0,0,.95-.74,1.14,1.14,0,0,0-1.24-1A1.48,1.48,0,0,0,8.18,62a1.91,1.91,0,0,0,2.08,1.67,2.45,2.45,0,0,0,2.66-2.14c0-1.51-1.52-2.74-3.38-2.74-2.37,0-4.29,1.56-4.29,3.48,0,2.43,2.43,4.41,5.41,4.41,3.77,0,6.83-2.5,6.83-5.57H18C18,64.42,14.69,67.12,10.66,67.12Z"/><path class="cls-1" d="M10.25,49.25C4.6,49.25,0,45.78,0,41.52c0-3.44,3.7-6.24,8.25-6.24,3.66,0,6.64,2.26,6.64,5,0,2.24-2.41,4.07-5.36,4.07-2.39,0-4.34-1.48-4.34-3.3,0-1.49,1.58-2.7,3.52-2.7,1.57,0,2.86,1,2.86,2.2A2.13,2.13,0,0,1,9.23,42.4a1.74,1.74,0,0,1-1.91-1.49h.46c0,.56.65,1,1.45,1,1,0,1.87-.61,1.87-1.35,0-1-1.07-1.73-2.39-1.73-1.68,0-3.05,1-3.05,2.23,0,1.56,1.73,2.84,3.87,2.84,2.7,0,4.9-1.62,4.9-3.61,0-2.52-2.78-4.57-6.18-4.57C4,35.75.46,38.34.46,41.52c0,4,4.39,7.27,9.79,7.27,6.78,0,12.29-4.1,12.29-9.15H23C23,44.94,17.28,49.25,10.25,49.25Z"/><path class="cls-1" d="M35.72,30.39c-6.61,0-12-7.56-12-16.86C23.73,6.07,28.05,0,33.36,0c4.28,0,7.76,4.88,7.76,10.87,0,4.82-2.8,8.75-6.25,8.75-2.78,0-5-3.16-5-7,0-3.13,1.83-5.68,4.09-5.68,1.82,0,3.31,2.06,3.31,4.59,0,2.06-1.21,3.72-2.7,3.72-1.21,0-2.2-1.35-2.2-3h.46c0,1.41.78,2.56,1.74,2.56,1.23,0,2.24-1.46,2.24-3.26,0-2.27-1.28-4.12-2.85-4.12-2,0-3.62,2.34-3.62,5.21,0,3.63,2.05,6.58,4.58,6.58,3.19,0,5.79-3.71,5.79-8.28,0-5.74-3.27-10.41-7.3-10.41-5.05,0-9.17,5.87-9.17,13.07,0,9,5.17,16.4,11.53,16.4,8,0,14.46-9.22,14.46-20.55h.46C50.64,21,44,30.39,35.72,30.39Z"/><path class="cls-1" d="M17.57,34.88C13.4,34.88,10,29,10,21.85c0-5.77,2.74-10.47,6.1-10.47,2.72,0,4.93,3.78,4.93,8.42,0,3.74-1.79,6.79-4,6.79-1.78,0-3.24-2.46-3.24-5.48,0-2.48,1.16-4.42,2.64-4.42,1.21,0,2.15,1.57,2.15,3.58,0,1.64-.77,2.92-1.77,2.92-.82,0-1.46-1.05-1.46-2.38h.47c0,1,.45,1.92,1,1.92.71,0,1.31-1.13,1.31-2.46,0-1.69-.77-3.12-1.69-3.12-1.18,0-2.17,1.82-2.17,4,0,2.76,1.24,5,2.77,5,1.94,0,3.52-2.83,3.52-6.32,0-4.38-2-8-4.46-8-3.11,0-5.63,4.48-5.63,10,0,6.93,3.18,12.56,7.1,12.56,4.93,0,8.93-7.07,8.93-15.76H27C27,27.6,22.75,34.88,17.57,34.88Z"/></svg>
