<svg id="Layer_1" data-name="Layer 1" xmlns="http://www.w3.org/2000/svg" xmlns:xlink="http://www.w3.org/1999/xlink" width="1331.21" height="750.07" viewBox="0 0 1331.21 750.07"><defs><style>.cls-1{fill:url(#linear-gradient);}.cls-2{fill:#b5230b;stroke:#fce900;stroke-width:5px;}.cls-2,.cls-5{stroke-miterlimit:10;}.cls-3{fill:#86cef7;}.cls-4{fill:#007cb2;}.cls-5{fill:none;stroke:#b50000;stroke-width:8px;}.cls-6{font-size:50.28px;fill:#fce900;font-family:SpaceComics, Space Comics;}</style><linearGradient id="linear-gradient" x1="127.12" y1="365.74" x2="1185.79" y2="365.74" gradientUnits="userSpaceOnUse"><stop offset="0" stop-color="#0086e0"/><stop offset="1" stop-color="#606060" stop-opacity="0.3"/></linearGradient></defs><title>settings_popup</title><rect class="cls-1" x="127.12" y="86.43" width="1058.66" height="558.61" rx="34"/><path class="cls-2" d="M230.21,247.24l1.23-16.05q13.8-.67,20.62-1.13,3.28,4.89,6.61,9a67.8,67.8,0,0,0,6.34-8.84q6.66.42,15.17.63,3.69,36.39,4.34,45.65A109.26,109.26,0,0,1,269,278.28q-.84-9.39-1.69-21.13L257.86,266q-4.91-4.94-8.07-8.61-.87,12.13-1.27,20.8l-16.27-.65,2.37-29.9Z"/><path class="cls-2" d="M286.3,251a80.38,80.38,0,0,1,.65-12.12,117.41,117.41,0,0,1,17.28-1.24,101.08,101.08,0,0,0-1,10.58q-.43,7.88.85,11.73a3.25,3.25,0,0,0,2.66,2.3,2.73,2.73,0,0,0,2.77-2.17q1.62-7.45.25-22.48l12.82.8a89.23,89.23,0,0,1,.91,20q-1.38,14.49-12.13,18.53a19,19,0,0,1-10.27.36q-9-3.07-11-17.12a36.93,36.93,0,0,1-.08-9.51Z"/><path class="cls-2" d="M321.31,274.89q.18-6.17.47-12.91,8.52,4.86,14.77,4.27c1.84-.34,2.75-1.1,2.72-2.27,0-.74-.88-1-2.68-.85a31.45,31.45,0,0,1-4.89-.13,13,13,0,0,1-3.06-.4A14.34,14.34,0,0,1,324,261a7.4,7.4,0,0,1-3-3.11,8.83,8.83,0,0,1-1.19-3.8,16.73,16.73,0,0,1,4.26-13.12q8.19-8,26.12-1.84l-.26,13a32.54,32.54,0,0,0-8.12-3.16q-7.82-1.65-8.11,1.89,0,2.26,4.86,1.55a18.12,18.12,0,0,1,8.5.73,8.22,8.22,0,0,1,4.9,4.4,15.34,15.34,0,0,1,.33,9.28q-3.48,9.93-14.59,11.21A35.18,35.18,0,0,1,321.31,274.89Z"/><path class="cls-2" d="M370.36,238.5q-.64,20.14-.74,38.1-6.3.31-14.15.27-1-14.1-.32-37.88Q360.16,237.61,370.36,238.5Z"/><path class="cls-2" d="M396.08,262.53l-.19,14.15q-18.48,2.26-25.23-9.25a22.27,22.27,0,0,1-1.12-15.85q5.82-15.56,26.32-13.22l.09,15.58q-7.23-2-10.81.68T384,261.21C386,263.51,390.06,264,396.08,262.53Z"/><path class="cls-2" d="M229.23,462.55q.21-7.41.56-15.49,10.22,5.82,17.72,5.12,3.33-.62,3.27-2.73,0-1.32-3.21-1a36.47,36.47,0,0,1-5.88-.16,14.65,14.65,0,0,1-3.67-.47,17.18,17.18,0,0,1-5.55-2,8.86,8.86,0,0,1-3.64-3.73,10.62,10.62,0,0,1-1.43-4.57q-.68-9.43,5.12-15.73,9.82-9.6,31.34-2.21l-.32,15.62a38.7,38.7,0,0,0-9.73-3.79q-9.39-2-9.74,2.26c0,1.82,1.92,2.44,5.83,1.87a21.84,21.84,0,0,1,10.21.87A10,10,0,0,1,266,441.7q1.93,6.33.38,11.15-4.15,11.89-17.5,13.44A42.06,42.06,0,0,1,229.23,462.55Z"/><path class="cls-2" d="M299.3,428.65a17.94,17.94,0,0,1,6,9.05,24.19,24.19,0,0,1,.83,6.92q-1.87,20.25-21.25,19.74a16.1,16.1,0,0,1-13.2-6.69,19.67,19.67,0,0,1-2.91-8.58,25.85,25.85,0,0,1,1.18-10.2,21,21,0,0,1,5.66-8.77Q286.75,420.18,299.3,428.65Zm-17.46,18.88a4.62,4.62,0,0,0,4.76,3.3,6.16,6.16,0,0,0,5.22-2,5.26,5.26,0,0,0,1-5.55q-1.59-3.54-4.76-3.47a6.7,6.7,0,0,0-5.8,4.09A5.59,5.59,0,0,0,281.84,447.53Z"/><path class="cls-2" d="M308.62,438.44a82,82,0,0,1,.64-12.12,117.53,117.53,0,0,1,17.29-1.24,100.79,100.79,0,0,0-1,10.58q-.45,7.88.84,11.73a3.27,3.27,0,0,0,2.67,2.3,2.74,2.74,0,0,0,2.77-2.17q1.61-7.45.25-22.49l12.81.81a88,88,0,0,1,.91,20q-1.38,14.5-12.13,18.53a18.89,18.89,0,0,1-10.27.37q-9-3.08-11-17.12a36.81,36.81,0,0,1-.07-9.51Z"/><path class="cls-2" d="M348.35,426l14.26-1.48a69.68,69.68,0,0,0,10.54,14q-.21-3.68-.49-12.83,7.11-.25,13.26-.94,0,22.52-.37,39.92-3.53,0-8.89.23A173.21,173.21,0,0,0,364,449.32l.16,15.54A121.19,121.19,0,0,0,352,465q.36-11.65.12-26.76l-4.07.34Z"/><path class="cls-2" d="M388.6,427a57.24,57.24,0,0,1,16.88-1.93q9.06.3,14.24,4.95t5.43,15.41q-.27,7.08-3.12,10.62A20,20,0,0,1,406.71,464q-9,.58-12.72-.4.11-8.48-.54-25.19l-4.1.39Q388.72,431.24,388.6,427Zm16.77,23.53a10,10,0,0,0,6.1-1.81q2.25-1.72,1.74-5.37-.84-7-8.66-6Q405,443.29,405.37,450.57Z"/><path class="cls-2" d="M481,417.81q-.74,8.55-.71,14.52l-17.36.12.14,3.91,12.11-.37.33,11.19q-4.63.4-12,.64l.07,3.44c5.16,0,10.89-.16,17.19-.54q.24,8.85.71,13.9-9.19.22-33.3.79.33-19.14,0-32.85l-3.93.09-.37-14.31Q454.3,418.34,481,417.81Z"/><path class="cls-2" d="M515.87,424.59a76.29,76.29,0,0,1-.29,14.45q-7.26-.3-14.22,0l.16,3.31q5.19-.22,8.16-.2a100.39,100.39,0,0,1-.46,11c-2.52.05-5,.14-7.45.24q-.11,5,0,11.05a72.25,72.25,0,0,1-12.29.34q-.21-1.19-.21-25.43l-4.64.3c-.17-4.21-.24-8.72-.2-13.5A256.42,256.42,0,0,1,515.87,424.59Z"/><path class="cls-2" d="M549.87,424.59a76.29,76.29,0,0,1-.29,14.45q-7.26-.3-14.23,0l.17,3.31q5.19-.22,8.15-.2a97.14,97.14,0,0,1-.45,11c-2.52.05-5,.14-7.46.24-.06,3.31-.06,7,0,11.05a72.25,72.25,0,0,1-12.29.34q-.21-1.19-.21-25.43l-4.64.3c-.18-4.21-.24-8.72-.2-13.5A256.42,256.42,0,0,1,549.87,424.59Z"/><path class="cls-2" d="M583.12,425.08q-.61,7.11-.58,12.1l-14.48.1.12,3.25,10.09-.31.28,9.34c-2.58.22-5.92.4-10,.52l.06,2.87q6.43,0,14.32-.45.2,7.38.59,11.59l-27.75.66q.27-16,0-27.38l-3.28.07-.3-11.92Q560.89,425.52,583.12,425.08Z"/><path class="cls-2" d="M612,450l-.19,14.15q-18.46,2.28-25.22-9.24a22.22,22.22,0,0,1-1.13-15.85q5.82-15.56,26.32-13.23l.09,15.59q-7.23-2-10.81.68c-2.39,1.77-2.78,4-1.14,6.59Q603,452.13,612,450Z"/><path class="cls-2" d="M651.38,425a54.13,54.13,0,0,1-.26,13.57,97.53,97.53,0,0,0-11.4.16l.33,25.61q-7.2.33-13.71.2l.73-25.9c-3.75,0-7.4.07-11,.25a102,102,0,0,1,0-14Q633.39,425.22,651.38,425Z"/><path class="cls-2" d="M643.66,462.36q.18-6.17.47-12.91,8.52,4.85,14.77,4.27c1.84-.35,2.75-1.1,2.72-2.28,0-.73-.88-1-2.68-.84a31.06,31.06,0,0,1-4.89-.14,12.42,12.42,0,0,1-3.06-.39,14.34,14.34,0,0,1-4.63-1.64,7.46,7.46,0,0,1-3-3.11,8.83,8.83,0,0,1-1.19-3.81,16.72,16.72,0,0,1,4.26-13.11q8.19-8,26.12-1.84l-.26,13a32,32,0,0,0-8.12-3.16q-7.82-1.65-8.11,1.89,0,2.26,4.86,1.55a18.3,18.3,0,0,1,8.51.72,8.26,8.26,0,0,1,4.89,4.4,15.37,15.37,0,0,1,.33,9.29q-3.48,9.92-14.59,11.21A35.18,35.18,0,0,1,643.66,462.36Z"/><rect class="cls-3" x="762.19" y="237.34" width="111.09" height="55.19" rx="27.59"/><rect class="cls-4" x="762.87" y="411.37" width="109.72" height="55.19" rx="27.59"/><circle class="cls-4" cx="843.92" cy="265.03" r="25.34"/><circle class="cls-3" cx="792.39" cy="438.99" r="25.34"/><circle class="cls-5" cx="1102.53" cy="156.73" r="53.35"/><text class="cls-6" transform="translate(1070.09 184.45)">X</text></svg>
