<svg id="Layer_1" data-name="Layer 1" xmlns="http://www.w3.org/2000/svg" xmlns:xlink="http://www.w3.org/1999/xlink" width="1058.66" height="558.61" viewBox="0 0 1058.66 558.61"><defs><style>.cls-1{fill:url(#linear-gradient);}.cls-2{fill:#b5230b;stroke:#fce900;stroke-miterlimit:10;stroke-width:5px;}</style><linearGradient id="linear-gradient" y1="279.31" x2="1058.66" y2="279.31" gradientUnits="userSpaceOnUse"><stop offset="0" stop-color="#0086e0"/><stop offset="1" stop-color="#606060" stop-opacity="0.3"/></linearGradient></defs><title>settings_udenknap</title><rect class="cls-1" width="1058.66" height="558.61" rx="34"/><path class="cls-2" d="M103.09,160.81l1.23-16.05q13.8-.67,20.61-1.13,3.3,4.89,6.61,9a67.83,67.83,0,0,0,6.35-8.84q6.66.42,15.17.64,3.69,36.38,4.34,45.65a109.39,109.39,0,0,1-15.52,1.77q-.84-9.39-1.69-21.13l-9.45,8.83q-4.91-5-8.07-8.62-.87,12.13-1.27,20.8l-16.28-.65,2.38-29.9Z"/><path class="cls-2" d="M159.18,164.54a80.15,80.15,0,0,1,.65-12.11,116.2,116.2,0,0,1,17.28-1.25,101.37,101.37,0,0,0-1,10.59q-.45,7.86.85,11.72a3.23,3.23,0,0,0,2.66,2.3,2.73,2.73,0,0,0,2.77-2.17q1.6-7.45.25-22.48l12.82.8a88.62,88.62,0,0,1,.9,20q-1.36,14.5-12.12,18.53a19,19,0,0,1-10.27.36q-9-3.08-11-17.12a36.94,36.94,0,0,1-.08-9.51Z"/><path class="cls-2" d="M194.19,188.46q.18-6.17.47-12.9,8.52,4.84,14.77,4.26c1.84-.34,2.75-1.1,2.72-2.27,0-.73-.88-1-2.68-.85a31.45,31.45,0,0,1-4.89-.13,12.52,12.52,0,0,1-3.06-.4,14.34,14.34,0,0,1-4.63-1.64,7.43,7.43,0,0,1-3-3.1,8.92,8.92,0,0,1-1.19-3.81,16.69,16.69,0,0,1,4.26-13.11q8.19-8,26.12-1.85l-.26,13a32.54,32.54,0,0,0-8.12-3.16q-7.81-1.64-8.11,1.89,0,2.26,4.86,1.55a18.12,18.12,0,0,1,8.5.73,8.25,8.25,0,0,1,4.9,4.4,15.36,15.36,0,0,1,.32,9.29q-3.46,9.92-14.58,11.2A35.18,35.18,0,0,1,194.19,188.46Z"/><path class="cls-2" d="M243.24,152.08q-.65,20.13-.74,38.1-6.31.3-14.15.26-1-14.1-.32-37.88Q233,151.18,243.24,152.08Z"/><path class="cls-2" d="M269,176.1l-.19,14.15q-18.48,2.26-25.23-9.24a22.28,22.28,0,0,1-1.12-15.85q5.82-15.57,26.32-13.23l.09,15.58c-4.82-1.31-8.42-1.09-10.81.69s-2.78,4-1.15,6.58Q259.93,178.23,269,176.1Z"/><path class="cls-2" d="M102.11,376.12q.21-7.39.56-15.49,10.22,5.82,17.72,5.12,3.33-.62,3.27-2.73c0-.87-1.06-1.21-3.22-1a36.76,36.76,0,0,1-5.87-.15,15.19,15.19,0,0,1-3.67-.48,17.09,17.09,0,0,1-5.56-2,8.93,8.93,0,0,1-3.63-3.72,10.71,10.71,0,0,1-1.43-4.57q-.69-9.45,5.12-15.74,9.82-9.58,31.34-2.21l-.32,15.63a38.68,38.68,0,0,0-9.74-3.8q-9.37-2-9.73,2.27c0,1.81,1.92,2.43,5.83,1.86A21.84,21.84,0,0,1,133,350a10,10,0,0,1,5.88,5.28q1.92,6.33.38,11.15-4.17,11.9-17.51,13.44A42,42,0,0,1,102.11,376.12Z"/><path class="cls-2" d="M172.18,342.22a18,18,0,0,1,6,9.06,24.48,24.48,0,0,1,.83,6.91q-1.89,20.26-21.25,19.75a16.11,16.11,0,0,1-13.2-6.7,19.62,19.62,0,0,1-2.91-8.58,25.85,25.85,0,0,1,1.18-10.2,21,21,0,0,1,5.66-8.77Q159.63,333.75,172.18,342.22Zm-17.46,18.89a4.62,4.62,0,0,0,4.76,3.29,6.16,6.16,0,0,0,5.22-2,5.28,5.28,0,0,0,1-5.55q-1.59-3.54-4.76-3.47a6.72,6.72,0,0,0-5.8,4.09A5.56,5.56,0,0,0,154.72,361.11Z"/><path class="cls-2" d="M181.5,352a80.6,80.6,0,0,1,.64-12.12,117.53,117.53,0,0,1,17.29-1.24,101.08,101.08,0,0,0-1,10.58q-.45,7.88.84,11.73a3.26,3.26,0,0,0,2.67,2.3,2.73,2.73,0,0,0,2.77-2.17q1.6-7.45.24-22.48l12.82.8a88.06,88.06,0,0,1,.91,20q-1.38,14.49-12.13,18.53a19,19,0,0,1-10.27.36q-9-3.07-11-17.12a36.81,36.81,0,0,1-.07-9.51Z"/><path class="cls-2" d="M221.22,339.56l14.27-1.48a70,70,0,0,0,10.53,14q-.2-3.68-.48-12.83,7.11-.25,13.26-.94,0,22.52-.37,39.92c-2.35,0-5.32.08-8.89.23a173.21,173.21,0,0,0-12.64-15.54l.16,15.54a118.29,118.29,0,0,0-12.19.14q.36-11.67.12-26.77l-4.07.34Z"/><path class="cls-2" d="M261.48,340.61a57.21,57.21,0,0,1,16.87-1.93q9.07.3,14.25,4.95T298,359q-.27,7.09-3.12,10.62-6.17,7.59-15.33,7.91-9,.58-12.71-.4.11-8.48-.54-25.19l-4.1.39C261.81,347.34,261.56,343.41,261.48,340.61Zm16.77,23.53a10,10,0,0,0,6.1-1.8q2.25-1.74,1.74-5.38-.84-7-8.66-6Q277.9,356.86,278.25,364.14Z"/><path class="cls-2" d="M353.87,331.38q-.75,8.55-.71,14.52L335.8,346l.14,3.9,12.11-.37.33,11.2q-4.63.4-12,.63l.07,3.44q7.74,0,17.19-.54.24,8.86.71,13.9-9.19.24-33.3.8.32-19.15,0-32.86l-3.93.09-.37-14.31Q327.18,331.91,353.87,331.38Z"/><path class="cls-2" d="M388.75,338.17a76.21,76.21,0,0,1-.29,14.44q-7.26-.3-14.23,0l.16,3.32q5.21-.24,8.16-.21a97.14,97.14,0,0,1-.45,11c-2.52.06-5,.14-7.46.25-.06,3.3-.06,7,0,11a72.25,72.25,0,0,1-12.29.34q-.21-1.19-.21-25.43l-4.64.31c-.18-4.22-.24-8.72-.21-13.51A257,257,0,0,1,388.75,338.17Z"/><path class="cls-2" d="M422.75,338.17a77.08,77.08,0,0,1-.29,14.44q-7.26-.3-14.23,0l.16,3.32q5.21-.24,8.16-.21a97.14,97.14,0,0,1-.45,11q-3.78.09-7.46.25-.11,4.95,0,11a72.28,72.28,0,0,1-12.29.34q-.21-1.19-.21-25.43l-4.64.31q-.27-6.33-.21-13.51A257,257,0,0,1,422.75,338.17Z"/><path class="cls-2" d="M456,338.65q-.62,7.13-.58,12.1l-14.48.1.12,3.25,10.09-.3.28,9.33c-2.58.22-5.92.4-10,.52l.06,2.88q6.44,0,14.32-.46.2,7.38.59,11.59l-27.75.66q.27-16,0-27.38l-3.28.07L425,339.09Q433.76,339.09,456,338.65Z"/><path class="cls-2" d="M484.86,363.57l-.19,14.15q-18.48,2.26-25.23-9.25a22.27,22.27,0,0,1-1.12-15.85q5.82-15.56,26.32-13.22l.09,15.58q-7.23-2-10.81.68t-1.15,6.59Q475.83,365.7,484.86,363.57Z"/><path class="cls-2" d="M524.26,338.55a54.53,54.53,0,0,1-.26,13.56,99.74,99.74,0,0,0-11.4.16l.33,25.61q-7.2.33-13.72.2l.74-25.9c-3.75,0-7.41.07-11,.25a102,102,0,0,1,0-14Q506.27,338.79,524.26,338.55Z"/><path class="cls-2" d="M516.54,375.93q.18-6.17.47-12.91,8.52,4.86,14.77,4.27c1.84-.34,2.75-1.1,2.72-2.27,0-.74-.88-1-2.68-.85a29.84,29.84,0,0,1-4.89-.14,12.42,12.42,0,0,1-3.06-.39,14.34,14.34,0,0,1-4.63-1.64,7.4,7.4,0,0,1-3-3.11,8.83,8.83,0,0,1-1.19-3.81A16.72,16.72,0,0,1,519.28,342q8.19-8,26.12-1.84l-.26,13A32.16,32.16,0,0,0,537,350q-7.82-1.65-8.11,1.89,0,2.26,4.86,1.55a18.12,18.12,0,0,1,8.5.73,8.22,8.22,0,0,1,4.9,4.4,15.41,15.41,0,0,1,.33,9.28q-3.48,9.92-14.59,11.21A35.18,35.18,0,0,1,516.54,375.93Z"/></svg>
