<svg id="Layer_1" data-name="Layer 1" xmlns="http://www.w3.org/2000/svg" xmlns:xlink="http://www.w3.org/1999/xlink" width="1334" height="750" viewBox="0 0 1334 750"><defs><style>.cls-1{fill:#050505;}.cls-2{fill:#966538;}.cls-3{fill:#76cec3;}.cls-4{fill:#0c5b50;}.cls-5{fill:#bebfbf;}.cls-6{fill:#875a00;}.cls-7{fill:#edfbff;}.cls-10,.cls-11,.cls-17,.cls-8{fill:#fff;}.cls-9{fill:#d5a492;}.cls-10,.cls-12,.cls-14,.cls-17{stroke:#000;}.cls-10,.cls-11,.cls-12,.cls-13,.cls-14,.cls-16,.cls-17{stroke-miterlimit:10;}.cls-10,.cls-11,.cls-13,.cls-16{stroke-width:5px;}.cls-11,.cls-13{stroke:#290b02;}.cls-12,.cls-13,.cls-30{fill:none;}.cls-12{stroke-width:3px;}.cls-15{fill:red;}.cls-16{fill:#b5230b;stroke:#ffe600;}.cls-18{fill:url(#radial-gradient);}.cls-19{fill:#0c9b00;}.cls-20{fill:#0b5107;}.cls-21{fill:#1b7c00;}.cls-22{fill:#59d82a;}.cls-23{fill:#61b741;}.cls-24{fill:#3fc600;}.cls-25{fill:url(#radial-gradient-2);}.cls-26{fill:#705300;}.cls-27{fill:url(#radial-gradient-3);}.cls-28{fill:#d87100;}.cls-29{fill:#38af00;}.cls-31{fill:#070707;}.cls-32{fill:url(#radial-gradient-4);}.cls-33{fill:url(#radial-gradient-5);}.cls-34{fill:url(#radial-gradient-6);}</style><radialGradient id="radial-gradient" cx="1228.7" cy="404.99" r="9.83" gradientTransform="translate(-6062.89 249.34) scale(5.45 0.75)" gradientUnits="userSpaceOnUse"><stop offset="0" stop-opacity="0.6"/><stop offset="1" stop-color="#1d1d1b" stop-opacity="0"/></radialGradient><radialGradient id="radial-gradient-2" cx="408.3" cy="970.32" r="34.86" gradientTransform="translate(366.59 -50.97) scale(0.7 0.21)" xlink:href="#radial-gradient"/><radialGradient id="radial-gradient-3" cx="17.88" cy="1133.52" r="42.99" gradientTransform="translate(366.59 44.94) scale(0.7 0.21)" xlink:href="#radial-gradient"/><radialGradient id="radial-gradient-4" cx="706.64" cy="1119.99" r="42.99" gradientTransform="translate(366.59 36.99) scale(0.7 0.21)" xlink:href="#radial-gradient"/><radialGradient id="radial-gradient-5" cx="57.52" cy="1356.76" r="34.86" gradientTransform="translate(366.59 176.14) scale(0.7 0.21)" xlink:href="#radial-gradient"/><radialGradient id="radial-gradient-6" cx="1272.28" cy="367.21" r="9.83" gradientTransform="translate(-6062.89 169.42) scale(5.45 0.75)" xlink:href="#radial-gradient"/></defs><title>spilskærm</title><rect class="cls-1" x="-2.85" y="-3.72" width="1346.98" height="755.71"/><rect class="cls-2" x="-0.6" y="3.04" width="108.12" height="750.07"/><rect class="cls-2" x="109.28" y="310.16" width="108.12" height="750.07"/><rect class="cls-2" x="219.92" y="-112.92" width="108.12" height="750.07"/><rect class="cls-2" x="219.92" y="639.41" width="108.12" height="750.07"/><rect class="cls-2" x="330.29" y="1.96" width="108.12" height="750.07"/><rect class="cls-2" x="109.55" y="-161.71" width="108.12" height="467.75"/><rect class="cls-2" x="441.85" y="318.6" width="108.12" height="750.07"/><rect class="cls-2" x="552.49" y="-104.48" width="108.12" height="750.07"/><rect class="cls-2" x="552.49" y="647.85" width="108.12" height="750.07"/><rect class="cls-2" x="665.12" y="3.64" width="108.12" height="750.07"/><rect class="cls-2" x="442.12" y="-153.27" width="108.12" height="467.75"/><rect class="cls-2" x="777.47" y="314.09" width="108.12" height="750.07"/><rect class="cls-2" x="888.11" y="-108.98" width="108.12" height="750.07"/><rect class="cls-2" x="888.11" y="643.35" width="108.12" height="750.07"/><rect class="cls-2" x="998.48" y="3.64" width="108.12" height="750.07"/><rect class="cls-2" x="777.74" y="-157.77" width="108.12" height="467.75"/><rect class="cls-2" x="1108.59" y="334.37" width="108.12" height="750.07"/><rect class="cls-2" x="1219.23" y="-88.71" width="108.12" height="750.07"/><rect class="cls-2" x="1219.23" y="663.62" width="108.12" height="750.07"/><rect class="cls-2" x="1327.35" y="3.64" width="108.12" height="750.07"/><rect class="cls-2" x="1108.86" y="-137.5" width="108.12" height="467.75"/><rect class="cls-3" x="168.74" y="97.88" width="14.99" height="521.98"/><rect class="cls-4" x="184.17" y="97.73" width="14.99" height="521.98"/><rect class="cls-3" x="198.17" y="97.85" width="14.99" height="521.98"/><rect class="cls-4" x="213.6" y="97.71" width="14.99" height="521.98"/><rect class="cls-3" x="227.82" y="97.85" width="14.99" height="521.98"/><rect class="cls-4" x="243.25" y="97.71" width="14.99" height="521.98"/><rect class="cls-3" x="257.25" y="97.83" width="14.99" height="521.98"/><rect class="cls-4" x="272.68" y="97.69" width="14.99" height="521.98"/><rect class="cls-3" x="287.34" y="97.85" width="14.99" height="521.98"/><rect class="cls-4" x="302.77" y="97.71" width="14.99" height="521.98"/><rect class="cls-3" x="316.77" y="97.83" width="14.99" height="521.98"/><rect class="cls-4" x="332.2" y="97.69" width="14.99" height="521.98"/><rect class="cls-3" x="346.42" y="97.83" width="14.99" height="521.98"/><rect class="cls-4" x="361.85" y="97.69" width="14.99" height="521.98"/><rect class="cls-3" x="375.85" y="97.81" width="14.99" height="521.98"/><rect class="cls-4" x="391.28" y="97.66" width="14.99" height="521.98"/><rect class="cls-3" x="405.97" y="97.85" width="14.99" height="521.98"/><rect class="cls-4" x="421.4" y="97.71" width="14.99" height="521.98"/><rect class="cls-3" x="435.39" y="97.83" width="14.99" height="521.98"/><rect class="cls-4" x="450.82" y="97.69" width="14.99" height="521.98"/><rect class="cls-3" x="465.05" y="97.83" width="14.99" height="521.98"/><rect class="cls-4" x="480.48" y="97.69" width="14.99" height="521.98"/><rect class="cls-3" x="494.47" y="97.81" width="14.99" height="521.98"/><rect class="cls-4" x="509.9" y="97.66" width="14.99" height="521.98"/><rect class="cls-3" x="524.57" y="97.83" width="14.99" height="521.98"/><rect class="cls-4" x="540" y="97.69" width="14.99" height="521.98"/><rect class="cls-3" x="553.99" y="97.81" width="14.99" height="521.98"/><rect class="cls-4" x="569.42" y="97.66" width="14.99" height="521.98"/><rect class="cls-3" x="583.65" y="97.81" width="14.99" height="521.98"/><rect class="cls-4" x="599.08" y="97.66" width="14.99" height="521.98"/><rect class="cls-3" x="613.07" y="97.79" width="14.99" height="521.98"/><rect class="cls-4" x="628.5" y="97.64" width="14.99" height="521.98"/><rect class="cls-3" x="643.32" y="98.24" width="14.99" height="521.98"/><rect class="cls-4" x="658.75" y="98.1" width="14.99" height="521.98"/><rect class="cls-3" x="672.75" y="98.22" width="14.99" height="521.98"/><rect class="cls-4" x="688.18" y="98.07" width="14.99" height="521.98"/><rect class="cls-3" x="702.4" y="98.22" width="14.99" height="521.98"/><rect class="cls-4" x="717.83" y="98.07" width="14.99" height="521.98"/><rect class="cls-3" x="731.83" y="98.2" width="14.99" height="521.98"/><rect class="cls-4" x="747.26" y="98.05" width="14.99" height="521.98"/><rect class="cls-3" x="761.92" y="98.22" width="14.99" height="521.98"/><rect class="cls-4" x="777.35" y="98.07" width="14.99" height="521.98"/><rect class="cls-3" x="791.35" y="98.2" width="14.99" height="521.98"/><rect class="cls-4" x="806.78" y="98.05" width="14.99" height="521.98"/><rect class="cls-3" x="821" y="98.2" width="14.99" height="521.98"/><rect class="cls-4" x="836.43" y="98.05" width="14.99" height="521.98"/><rect class="cls-3" x="850.43" y="98.18" width="14.99" height="521.98"/><rect class="cls-4" x="865.86" y="98.03" width="14.99" height="521.98"/><rect class="cls-3" x="880.55" y="98.22" width="14.99" height="521.98"/><rect class="cls-4" x="895.98" y="98.07" width="14.99" height="521.98"/><rect class="cls-3" x="909.97" y="98.2" width="14.99" height="521.98"/><rect class="cls-4" x="925.4" y="98.05" width="14.99" height="521.98"/><rect class="cls-3" x="939.63" y="98.2" width="14.99" height="521.98"/><rect class="cls-4" x="955.06" y="98.05" width="14.99" height="521.98"/><rect class="cls-3" x="969.05" y="98.18" width="14.99" height="521.98"/><rect class="cls-4" x="984.48" y="98.03" width="14.99" height="521.98"/><rect class="cls-3" x="999.15" y="98.2" width="14.99" height="521.98"/><rect class="cls-4" x="1014.58" y="98.05" width="14.99" height="521.98"/><rect class="cls-3" x="1028.57" y="98.18" width="14.99" height="521.98"/><rect class="cls-4" x="1044" y="98.03" width="14.99" height="521.98"/><rect class="cls-3" x="1058.23" y="98.18" width="14.99" height="521.98"/><rect class="cls-4" x="1073.66" y="98.03" width="14.99" height="521.98"/><rect class="cls-3" x="1087.65" y="98.15" width="14.99" height="521.98"/><rect class="cls-4" x="1103.08" y="98.01" width="14.99" height="521.98"/><rect class="cls-5" x="1117.08" y="101.44" width="38.25" height="23.16" rx="8.55"/><rect class="cls-5" x="1118.37" y="143.53" width="36.96" height="18.86" rx="6.96"/><rect class="cls-5" x="1117.37" y="182.7" width="36.96" height="18.86" rx="6.96"/><rect class="cls-5" x="1118.66" y="316.04" width="36.96" height="18.86" rx="6.96"/><rect class="cls-5" x="1118.94" y="281.02" width="36.96" height="18.86" rx="6.96"/><rect class="cls-5" x="1118.94" y="251.39" width="36.96" height="18.86" rx="6.96"/><rect class="cls-5" x="1118.39" y="219.15" width="36.96" height="18.86" rx="6.96"/><rect class="cls-5" x="1116.98" y="348.28" width="38.25" height="23.16" rx="8.55"/><rect class="cls-5" x="1118.26" y="383.3" width="36.96" height="18.86" rx="6.96"/><rect class="cls-5" x="1117.26" y="415.62" width="36.96" height="18.86" rx="6.96"/><rect class="cls-5" x="1118.55" y="555.39" width="36.96" height="18.86" rx="6.96"/><rect class="cls-5" x="1118.83" y="513.94" width="36.96" height="18.86" rx="6.96"/><rect class="cls-5" x="1118.83" y="484.31" width="36.96" height="18.86" rx="6.96"/><rect class="cls-5" x="1118.28" y="452.07" width="36.96" height="18.86" rx="6.96"/><rect class="cls-5" x="1119.29" y="591.55" width="38.25" height="23.16" rx="8.55"/><rect class="cls-5" x="130.54" y="107.08" width="38.25" height="23.16" rx="8.55"/><rect class="cls-5" x="131.83" y="153.88" width="36.96" height="18.86" rx="6.96"/><rect class="cls-5" x="130.83" y="186.21" width="36.96" height="18.86" rx="6.96"/><rect class="cls-5" x="132.11" y="319.54" width="36.96" height="18.86" rx="6.96"/><rect class="cls-5" x="132.4" y="284.53" width="36.96" height="18.86" rx="6.96"/><rect class="cls-5" x="132.4" y="254.9" width="36.96" height="18.86" rx="6.96"/><rect class="cls-5" x="131.84" y="222.66" width="36.96" height="18.86" rx="6.96"/><rect class="cls-5" x="130.43" y="351.79" width="38.25" height="23.16" rx="8.55"/><rect class="cls-5" x="131.72" y="386.8" width="36.96" height="18.86" rx="6.96"/><rect class="cls-5" x="130.72" y="419.13" width="36.96" height="18.86" rx="6.96"/><rect class="cls-5" x="132" y="558.89" width="36.96" height="18.86" rx="6.96"/><rect class="cls-5" x="132.29" y="517.45" width="36.96" height="18.86" rx="6.96"/><rect class="cls-5" x="132.29" y="487.82" width="36.96" height="18.86" rx="6.96"/><rect class="cls-5" x="131.74" y="455.58" width="36.96" height="18.86" rx="6.96"/><rect class="cls-5" x="132.74" y="595.06" width="38.25" height="23.16" rx="8.55"/><rect class="cls-6" x="325" y="103.27" width="596.79" height="492.25"/><path class="cls-7" d="M453.33,282.26c-10.95,16.92-39.05,19.73-66.5,20.33-27.45-.6-55.56-3.41-66.51-20.33C308.64,266.2,335,231.11,386.83,230.7,438.65,231.11,465,266.2,453.33,282.26Z"/><path class="cls-8" d="M442.72,281.91c-9.2,14.22-32.82,16.58-55.89,17.09-23.07-.51-46.69-2.87-55.89-17.09-9.82-13.5,12.33-43,55.89-43.32C430.38,238.93,452.53,268.42,442.72,281.91Z"/><path class="cls-7" d="M457.84,462.46c-10.95,16.92-39.06,19.73-66.51,20.33-27.45-.61-55.55-3.41-66.5-20.33-11.69-16.07,14.68-51.15,66.5-51.56C443.16,411.31,469.52,446.39,457.84,462.46Z"/><path class="cls-8" d="M447.22,462.11c-9.2,14.22-32.82,16.58-55.89,17.09-23.07-.51-46.69-2.87-55.89-17.09-9.81-13.5,12.34-43,55.89-43.33C434.89,419.13,457,448.62,447.22,462.11Z"/><path class="cls-7" d="M516.4,157.28c-10.95,16.92-39,19.73-66.5,20.34-27.45-.61-55.56-3.42-66.51-20.34-11.68-16.06,14.68-51.14,66.51-51.55C501.72,106.13,528.08,141.22,516.4,157.28Z"/><path class="cls-8" d="M505.78,156.94C496.58,171.16,473,173.51,449.9,174c-23.07-.52-46.69-2.87-55.89-17.09-9.82-13.5,12.33-43,55.89-43.33C493.45,114,515.6,143.44,505.78,156.94Z"/><path class="cls-7" d="M705.61,153.87c-11,16.92-39.06,19.73-66.51,20.33-27.45-.6-55.55-3.41-66.5-20.33-11.68-16.07,14.68-51.15,66.5-51.56C690.93,102.72,717.29,137.8,705.61,153.87Z"/><path class="cls-8" d="M695,153.52c-9.2,14.22-32.82,16.58-55.89,17.09-23.06-.51-46.68-2.87-55.88-17.09-9.82-13.5,12.33-43,55.88-43.32C682.66,110.54,704.81,140,695,153.52Z"/><path class="cls-7" d="M870,156.12c-10.95,16.92-39,19.73-66.5,20.34C776.08,175.85,748,173,737,156.12c-11.68-16.06,14.68-51.15,66.51-51.56C855.36,105,881.72,140.06,870,156.12Z"/><path class="cls-8" d="M859.42,155.78c-9.2,14.22-32.82,16.57-55.88,17.08-23.07-.51-46.69-2.87-55.89-17.09-9.82-13.49,12.33-43,55.89-43.32C847.09,112.79,869.24,142.28,859.42,155.78Z"/><path class="cls-7" d="M921.85,273.25c-11,16.92-39.06,19.73-66.51,20.33-27.45-.6-55.55-3.41-66.5-20.33-11.68-16.06,14.68-51.15,66.5-51.56C907.17,222.1,933.53,257.19,921.85,273.25Z"/><path class="cls-8" d="M911.23,272.9c-9.2,14.23-32.82,16.58-55.89,17.09-23.07-.51-46.68-2.87-55.89-17.09-9.81-13.5,12.34-43,55.89-43.32C898.9,229.92,921.05,259.41,911.23,272.9Z"/><path class="cls-7" d="M926.35,453.45c-11,16.92-39.05,19.73-66.5,20.33-27.45-.61-55.56-3.41-66.51-20.33-11.68-16.07,14.68-51.15,66.51-51.56C911.67,402.3,938,437.38,926.35,453.45Z"/><path class="cls-8" d="M915.74,453.1c-9.2,14.22-32.82,16.58-55.89,17.09-23.07-.51-46.69-2.87-55.89-17.09-9.82-13.5,12.33-43,55.89-43.33C903.4,410.12,925.55,439.61,915.74,453.1Z"/><path class="cls-7" d="M523.16,570.58c-10.95,16.92-39.06,19.72-66.51,20.33-27.45-.61-55.55-3.41-66.5-20.33-11.68-16.07,14.68-51.15,66.5-51.56C508.48,519.43,534.84,554.51,523.16,570.58Z"/><path class="cls-8" d="M512.54,570.23c-9.2,14.22-32.82,16.58-55.89,17.09-23.06-.51-46.68-2.87-55.88-17.09-9.82-13.5,12.33-43,55.88-43.33C500.21,527.25,522.36,556.73,512.54,570.23Z"/><path class="cls-7" d="M692.09,566.07C681.15,583,653,585.8,625.59,586.41c-27.45-.61-55.56-3.42-66.5-20.34-11.69-16.06,14.67-51.15,66.5-51.56C677.42,514.92,703.78,550,692.09,566.07Z"/><path class="cls-8" d="M681.48,565.73c-9.2,14.22-32.82,16.57-55.89,17.09-23.07-.52-46.69-2.88-55.89-17.09-9.82-13.5,12.34-43,55.89-43.33C669.14,522.74,691.3,552.23,681.48,565.73Z"/><path class="cls-7" d="M856.52,568.32c-10.94,16.92-39,19.73-66.5,20.34-27.45-.61-55.55-3.42-66.5-20.34-11.69-16.06,14.67-51.14,66.5-51.55C841.85,517.18,868.21,552.26,856.52,568.32Z"/><path class="cls-8" d="M845.91,568c-9.2,14.22-32.82,16.58-55.89,17.09-23.07-.51-46.69-2.87-55.89-17.09-9.82-13.5,12.34-43,55.89-43.33C833.57,525,855.73,554.48,845.91,568Z"/><path class="cls-9" d="M287,586c9.48,73.28-44,129.95-127.26,121.54C89.84,700.46,32.48,653.1,32.48,586s57-121.55,127.25-121.55S278.37,519.35,287,586Z"/><path class="cls-10" d="M16.51,546.7H146.65a1,1,0,0,1,1,1v36.54a65.93,65.93,0,0,1-65.93,65.93h0A66.21,66.21,0,0,1,15.51,584V547.7A1,1,0,0,1,16.51,546.7Z"/><path class="cls-11" d="M165.38,546.7H295.21a1,1,0,0,1,1,1v34.45a67.77,67.77,0,0,1-67.77,67.77h0a64.05,64.05,0,0,1-64.05-64.05V547.7a1,1,0,0,1,1-1Z"/><path class="cls-12" d="M132.59,650.78c6.33,26.76,21.8,21.85,27.42,0"/><line class="cls-13" x1="149.29" y1="594.07" x2="164.51" y2="594.42"/><ellipse class="cls-14" cx="77.33" cy="589.34" rx="20.09" ry="19.19"/><ellipse class="cls-8" cx="68.83" cy="583.53" rx="5.87" ry="5.04"/><ellipse class="cls-14" cx="226.56" cy="592.72" rx="20.09" ry="19.19"/><ellipse class="cls-8" cx="218.05" cy="586.91" rx="5.87" ry="5.04"/><ellipse class="cls-15" cx="361.28" cy="671.19" rx="23.96" ry="28.4"/><ellipse class="cls-15" cx="403.47" cy="669.21" rx="24.53" ry="29.17"/><polygon class="cls-15" points="380.64 728.89 343.91 690.65 382.37 682.03 418.65 691.92 380.64 728.89"/><ellipse class="cls-15" cx="477.85" cy="676.26" rx="23.96" ry="28.4"/><ellipse class="cls-15" cx="520.04" cy="674.28" rx="24.53" ry="29.17"/><polygon class="cls-15" points="497.21 733.96 460.47 695.72 498.94 687.09 535.22 696.99 497.21 733.96"/><ellipse class="cls-15" cx="590.23" cy="675.02" rx="23.96" ry="28.4"/><ellipse class="cls-15" cx="632.42" cy="673.03" rx="24.53" ry="29.17"/><polygon class="cls-15" points="609.59 732.72 572.85 694.47 611.31 685.85 647.6 695.75 609.59 732.72"/><path class="cls-16" d="M695,629.85q30.76-8.51,55-3.58,20.92,6.22,23.56,30,.13,30.79-28.06,35.36-6.71,1.1-11,1.69.18,15,1.34,27.11-16.53.66-31,.91-.6-39.66,0-65.14l-8.22,1Zm38.25,39q13-.7,14-7.88c.05-3.42-1-5.91-3.16-7.45q-5.94-3.48-11-1A58.89,58.89,0,0,0,733.2,668.81Z"/><path class="cls-16" d="M826.15,660a28.74,28.74,0,0,1,9.56,14.48A39,39,0,0,1,837,685.58q-3,32.42-34,31.59-12.82,0-21.12-10.71a31.51,31.51,0,0,1-4.67-13.74,41.5,41.5,0,0,1,1.9-16.31q3.36-9.07,9.05-14Q806.07,646.45,826.15,660Zm-27.94,30.21q1.71,5.16,7.61,5.27a9.87,9.87,0,0,0,8.35-3.16q3.45-4.43,1.59-8.88-2.55-5.67-7.61-5.56a10.76,10.76,0,0,0-9.29,6.54A8.84,8.84,0,0,0,798.21,690.24Z"/><path class="cls-16" d="M864.51,655.74q-1,32.22-1.17,61-10.1.49-22.64.42-1.58-22.54-.52-60.61Q848.21,654.3,864.51,655.74Z"/><path class="cls-16" d="M861.68,655.76l22.82-2.36q5.61,10.35,16.86,22.36-.33-5.89-.78-20.54,11.37-.39,21.21-1.5,0,36-.58,63.87-5.65,0-14.23.38a273,273,0,0,0-20.23-24.87L887,718a186.91,186.91,0,0,0-19.5.21q.57-18.66.19-42.82l-6.52.54Z"/><path class="cls-16" d="M984.91,654.15a87.09,87.09,0,0,1-.42,21.7,154.7,154.7,0,0,0-18.24.26l.52,41q-11.5.54-21.94.32L946,676q-9,0-17.53.39a163.85,163.85,0,0,1,0-22.38Q956.13,654.52,984.91,654.15Z"/><path class="cls-16" d="M999.37,697.93a16.56,16.56,0,0,1-4.87-1.62c-2-1.41-3-2.89-3.07-4.45a5.18,5.18,0,0,1,1-3.64,14.23,14.23,0,0,1,5.63-3.79q6.68-2.29,10.75-1a9.27,9.27,0,0,1,5.82,6.37q.63,5.28-5.49,7.29A21.33,21.33,0,0,1,999.37,697.93Zm10.85,4.36q5.21,2.1,4.29,6.54c-.4,1.65-1.69,3.24-3.84,4.75a15.84,15.84,0,0,1-13.34,1.29q-6.72-2.67-5.2-7.68a8.82,8.82,0,0,1,5.48-4.74,22.87,22.87,0,0,1,8.56-1.15A23.21,23.21,0,0,1,1010.22,702.29Z"/><circle class="cls-17" cx="1250.65" cy="306" r="77.71"/><line class="cls-12" x1="1251.43" y1="252.84" x2="1250.49" y2="306.86"/><line class="cls-12" x1="1250.65" y1="306" x2="1313.96" y2="306.8"/><ellipse class="cls-18" cx="627.92" cy="555.04" rx="67.82" ry="17.72"/><rect class="cls-19" x="589.12" y="505.32" width="22.38" height="66.03" rx="11.19" transform="translate(862.87 -224.06) rotate(67.12)"/><ellipse class="cls-20" cx="576.09" cy="548.55" rx="7.65" ry="11.19" transform="translate(-167.96 267.17) rotate(-22.88)"/><circle class="cls-21" cx="632.82" cy="510.25" r="15.66"/><ellipse class="cls-22" cx="653.08" cy="510.72" rx="15.7" ry="10.2" transform="translate(-147.19 294.12) rotate(-22.88)"/><ellipse class="cls-23" cx="641.71" cy="533.73" rx="16.6" ry="14.13" transform="translate(-157.03 291.51) rotate(-22.88)"/><ellipse class="cls-24" cx="659.7" cy="524.55" rx="13.03" ry="10.4" transform="translate(-152.05 297.79) rotate(-22.88)"/><ellipse class="cls-25" cx="652.03" cy="152.53" rx="30.88" ry="17.46"/><ellipse class="cls-26" cx="594.92" cy="129.23" rx="8.02" ry="5.21"/><ellipse class="cls-26" cx="584.66" cy="141.55" rx="6.04" ry="3.97"/><ellipse class="cls-26" cx="593.35" cy="150.72" rx="9.59" ry="5.21"/><ellipse class="cls-26" cx="598.88" cy="142.21" rx="11.99" ry="7.77"/><ellipse class="cls-26" cx="633.2" cy="128.32" rx="25.63" ry="20.01"/><ellipse class="cls-26" cx="620.05" cy="135.18" rx="17.11" ry="21.74"/><circle class="cls-26" cx="613.52" cy="122.37" r="15.21"/><ellipse class="cls-26" cx="660.06" cy="119.14" rx="6.7" ry="7.19" transform="translate(9.7 283.17) rotate(-24.39)"/><ellipse class="cls-26" cx="663.21" cy="136.84" rx="14.14" ry="3.56"/><ellipse class="cls-26" cx="676.27" cy="127.82" rx="7.36" ry="6.61"/><ellipse class="cls-26" cx="652.29" cy="139.48" rx="8.52" ry="8.02"/><ellipse class="cls-26" cx="659.65" cy="124.93" rx="9.26" ry="8.35"/><ellipse class="cls-26" cx="603.43" cy="149.65" rx="10.09" ry="8.1"/><ellipse class="cls-26" cx="655.41" cy="124.68" rx="12.57" ry="7.94"/><ellipse class="cls-26" cx="594.47" cy="139.48" rx="9.34" ry="5.04"/><ellipse class="cls-26" cx="665.4" cy="130.92" rx="8.76" ry="4.8"/><circle class="cls-26" cx="647.42" cy="137.58" r="11.41"/><ellipse class="cls-26" cx="601.28" cy="136.12" rx="6.37" ry="9.51"/><ellipse class="cls-26" cx="642.49" cy="138.26" rx="3.39" ry="2.13"/><ellipse class="cls-26" cx="668.21" cy="120.05" rx="5.96" ry="8.27"/><ellipse class="cls-26" cx="623.73" cy="109.06" rx="11.57" ry="7.52"/><ellipse class="cls-26" cx="644.75" cy="111.12" rx="5.64" ry="3.97"/><ellipse class="cls-26" cx="655.39" cy="112.36" rx="9.51" ry="7.69"/><ellipse class="cls-27" cx="379.09" cy="282.67" rx="38.08" ry="21.53"/><path class="cls-28" d="M421.18,285.49a8.34,8.34,0,0,1-3.83-.25l-71.45-21.6a8.46,8.46,0,0,1-2.61-14.88L357.72,238a8.46,8.46,0,0,1,9.23-.57l57,32.35a8.46,8.46,0,0,1-2.79,15.7Zm-54-34.78Z"/><polygon class="cls-29" points="342.64 249.65 326.8 247.86 339.26 243.45 321.86 245.31 343.99 238.15 329.62 237.63 357.3 232.33 368.28 250.65 356.87 239.52 342.64 249.65"/><line class="cls-30" x1="398.18" y1="274.56" x2="404.98" y2="276.24"/><rect class="cls-31" x="343.95" y="258.64" width="12.7" height="0.32" transform="translate(-71.47 367.41) rotate(-50.9)"/><rect class="cls-31" x="385.52" y="272.73" width="8.11" height="0.32" transform="translate(-67.93 403) rotate(-50.89)"/><rect class="cls-31" x="415.86" y="282.29" width="6.99" height="0.32" transform="translate(-64.35 429.63) rotate(-50.89)"/><rect class="cls-31" x="351.22" y="255.97" width="26.4" height="0.32" transform="translate(-64.21 377.29) rotate(-50.89)"/><ellipse class="cls-32" cx="860.6" cy="271.88" rx="38.08" ry="21.53"/><path class="cls-28" d="M902.68,274.7a8.35,8.35,0,0,1-3.83-.25l-71.45-21.6A8.46,8.46,0,0,1,824.8,238l14.43-10.75a8.45,8.45,0,0,1,9.22-.57l57,32.35a8.46,8.46,0,0,1-2.8,15.7Zm-54-34.78h0Z"/><polygon class="cls-29" points="824.14 238.86 808.3 237.07 820.77 232.66 803.37 234.53 825.49 227.36 811.13 226.84 838.81 221.54 849.79 239.86 838.37 228.73 824.14 238.86"/><line class="cls-30" x1="879.69" y1="263.77" x2="886.48" y2="265.45"/><rect class="cls-31" x="825.45" y="247.85" width="12.7" height="0.32" transform="translate(114.71 737.08) rotate(-50.9)"/><rect class="cls-31" x="867.03" y="261.94" width="8.11" height="0.32" transform="translate(118.18 772.61) rotate(-50.89)"/><rect class="cls-31" x="897.37" y="271.5" width="6.99" height="0.32" transform="translate(121.75 799.24) rotate(-50.89)"/><rect class="cls-31" x="832.73" y="245.18" width="26.4" height="0.32" transform="translate(121.9 746.9) rotate(-50.89)"/><ellipse class="cls-33" cx="406.8" cy="460.69" rx="30.88" ry="17.46"/><ellipse class="cls-26" cx="349.69" cy="437.39" rx="8.02" ry="5.21"/><ellipse class="cls-26" cx="339.44" cy="449.71" rx="6.04" ry="3.97"/><ellipse class="cls-26" cx="348.12" cy="458.89" rx="9.59" ry="5.21"/><ellipse class="cls-26" cx="353.66" cy="450.37" rx="11.99" ry="7.77"/><ellipse class="cls-26" cx="387.97" cy="436.48" rx="25.63" ry="20.01"/><ellipse class="cls-26" cx="374.82" cy="443.35" rx="17.11" ry="21.74"/><circle class="cls-26" cx="368.29" cy="430.53" r="15.21"/><ellipse class="cls-26" cx="414.84" cy="427.31" rx="6.7" ry="7.19" transform="translate(-139.42 209.41) rotate(-24.39)"/><ellipse class="cls-26" cx="417.98" cy="445" rx="14.14" ry="3.56"/><ellipse class="cls-26" cx="431.04" cy="435.99" rx="7.36" ry="6.61"/><ellipse class="cls-26" cx="407.07" cy="447.64" rx="8.52" ry="8.02"/><ellipse class="cls-26" cx="414.43" cy="433.09" rx="9.26" ry="8.35"/><ellipse class="cls-26" cx="358.21" cy="457.81" rx="10.09" ry="8.1"/><ellipse class="cls-26" cx="410.18" cy="432.85" rx="12.57" ry="7.94"/><ellipse class="cls-26" cx="349.25" cy="447.64" rx="9.34" ry="5.04"/><ellipse class="cls-26" cx="420.18" cy="439.08" rx="8.76" ry="4.8"/><circle class="cls-26" cx="402.19" cy="445.74" r="11.41"/><ellipse class="cls-26" cx="356.06" cy="444.29" rx="6.37" ry="9.51"/><ellipse class="cls-26" cx="397.27" cy="446.42" rx="3.39" ry="2.13"/><ellipse class="cls-26" cx="422.98" cy="428.22" rx="5.96" ry="8.27"/><ellipse class="cls-26" cx="378.5" cy="417.22" rx="11.57" ry="7.52"/><ellipse class="cls-26" cx="399.52" cy="419.29" rx="5.64" ry="3.97"/><ellipse class="cls-26" cx="410.17" cy="420.53" rx="9.51" ry="7.69"/><ellipse class="cls-34" cx="865.21" cy="446.6" rx="67.82" ry="17.72"/><rect class="cls-19" x="826.41" y="396.88" width="22.38" height="66.03" rx="11.19" transform="translate(907.99 -508.95) rotate(67.12)"/><ellipse class="cls-20" cx="813.39" cy="440.12" rx="7.65" ry="11.19" transform="translate(-107.12 350.9) rotate(-22.88)"/><circle class="cls-21" cx="870.12" cy="401.81" r="15.66"/><ellipse class="cls-22" cx="890.38" cy="402.28" rx="15.7" ry="10.2" transform="translate(-86.36 377.86) rotate(-22.88)"/><ellipse class="cls-23" cx="879.01" cy="425.29" rx="16.6" ry="14.13" transform="translate(-96.2 375.25) rotate(-22.88)"/><ellipse class="cls-24" cx="897" cy="416.11" rx="13.03" ry="10.4" transform="translate(-91.21 381.52) rotate(-22.88)"/><text/><path class="cls-16" d="M1085,640.1q-.06,41.74-.5,79.13a128.42,128.42,0,0,1-28.77-.11q-.06-24.24,1.15-47.06l-8.32,9.12a178.88,178.88,0,0,1-16.06-12.78L1057.89,640Q1070.28,639.6,1085,640.1Z"/><path class="cls-16" d="M1104.68,711.12a35.87,35.87,0,0,1-12-18.11,48.68,48.68,0,0,1-1.67-13.83q3.78-40.51,42.51-39.49,16,.06,26.39,13.39a39.3,39.3,0,0,1,5.83,17.17,51.65,51.65,0,0,1-2.37,20.39q-4.18,11.34-11.31,17.55Q1129.79,728.08,1104.68,711.12Zm34.92-36.86q-2.13-6.45-9.52-6.59c-4.34-.25-7.81,1.06-10.43,4q-4.31,5.54-2,11.1,3.19,7.1,9.52,6.94,8-.64,11.6-8.17A11.12,11.12,0,0,0,1139.6,674.26Z"/><path class="cls-16" d="M1183.72,711.12a35.94,35.94,0,0,1-12-18.11,48.68,48.68,0,0,1-1.67-13.83q3.78-40.51,42.51-39.49,16,.06,26.4,13.39a39.43,39.43,0,0,1,5.83,17.17,51.84,51.84,0,0,1-2.38,20.39q-4.18,11.34-11.31,17.55Q1208.83,728.08,1183.72,711.12Zm34.92-36.86q-2.13-6.45-9.52-6.59a12.34,12.34,0,0,0-10.43,4q-4.31,5.54-2,11.1,3.19,7.1,9.52,6.94,8-.64,11.6-8.17A11.06,11.06,0,0,0,1218.64,674.26Z"/><path class="cls-16" d="M1262.77,711.12a36,36,0,0,1-12-18.11,49,49,0,0,1-1.67-13.83q3.78-40.51,42.51-39.49,16,.06,26.4,13.39a39.43,39.43,0,0,1,5.83,17.17,52,52,0,0,1-2.37,20.39q-4.2,11.34-11.31,17.55Q1287.86,728.08,1262.77,711.12Zm34.92-36.86q-2.14-6.45-9.52-6.59c-4.34-.25-7.82,1.06-10.43,4q-4.32,5.54-2,11.1,3.19,7.1,9.53,6.94,8-.64,11.6-8.17A11.18,11.18,0,0,0,1297.69,674.26Z"/></svg>
