<svg id="Layer_1" data-name="Layer 1" xmlns="http://www.w3.org/2000/svg" width="183.19" height="114.65" viewBox="0 0 183.19 114.65"><defs><style>.cls-1{fill:#d60d0d;}.cls-2{fill:#82817d;}.cls-3{fill:#fff;}</style></defs><title>spil igen</title><rect class="cls-1" x="19" width="146.55" height="94.3" rx="34"/><rect class="cls-2" y="69.87" width="183.19" height="44.78"/><path class="cls-3" d="M5.39,104.53q-.21-3.91-.37-8.19c3.76,2,6.93,2.85,9.55,2.57,1.15-.24,1.7-.72,1.62-1.47,0-.46-.61-.63-1.73-.51a20.07,20.07,0,0,1-3.11,0,8.09,8.09,0,0,1-2-.23,9.77,9.77,0,0,1-3-1,5.24,5.24,0,0,1-2.09-1.94,6,6,0,0,1-1-2.4,10,10,0,0,1,2-8.36c3.23-3.43,8.84-3.91,16.69-1.4.12,2.75.24,5.51.37,8.26a21.68,21.68,0,0,0-5.32-1.94c-3.38-.65-5.08-.22-5.09,1.27.06,1,1.11,1.27,3.17.94a11.68,11.68,0,0,1,5.45.39A5.6,5.6,0,0,1,24,93.24a9.79,9.79,0,0,1,.58,5.89q-1.79,6.32-8.7,7.23A22.82,22.82,0,0,1,5.39,104.53Z"/><path class="cls-3" d="M24.6,81.82a31.64,31.64,0,0,1,14.68-1.11q5.69,1.61,6.65,7.88.38,8.13-7,9.41c-1.18.2-2.13.36-2.87.47.17,2.66.41,5,.73,7.16q-4.32.23-8.11.33-.8-10.47-1.05-17.21L25.47,89ZM35.38,92c2.29-.15,3.49-.85,3.6-2.12a2.32,2.32,0,0,0-.94-2,3,3,0,0,0-2.95-.24A15.3,15.3,0,0,0,35.38,92Z"/><path class="cls-3" d="M57.07,80.88q0,12.78.33,24.17-4,.21-8.88.23-1-8.94-1.21-24C49.44,80.65,52.69,80.52,57.07,80.88Z"/><path class="cls-3" d="M65.58,80.42,66,97.87l7.51-.21a34.24,34.24,0,0,1-.33,7.53,123.49,123.49,0,0,1-15.19.34q-.26-19.26-.56-24.82A77.1,77.1,0,0,1,65.58,80.42Z"/><path class="cls-3" d="M93.7,80.77q-.44,12.78-.49,24.17-4,.19-8.89.17-.69-8.94-.39-24Q87.14,80.19,93.7,80.77Z"/><path class="cls-3" d="M107.4,105.42c0-.36.09-.73.13-1.09-6.27,1.37-10.56-.51-13-5.65-2-5-1.18-9.82,2.49-14.43,3.87-3.8,9.6-5.06,17.07-3.78a45.2,45.2,0,0,1-.27,8.51,17.92,17.92,0,0,0-6.82-.54c-2.58.54-4.2,1.67-4.83,3.39-.59,2.87.08,4.77,2,5.69,1.8.33,3.15.09,4.06-.71a8.65,8.65,0,0,0-2.3,0c0-1.57,0-3.15,0-4.72,4.43,0,7.38-.07,8.83-.17q-.12,7.47-.45,13.28A42.66,42.66,0,0,1,107.4,105.42Z"/><path class="cls-3" d="M135.81,80.36q-.57,4.52-.68,7.68c-3.08,0-6.16,0-9.24,0,0,.69,0,1.37,0,2.06l6.44-.15c0,2,0,4-.05,5.92q-2.46.19-6.37.29c0,.61,0,1.22,0,1.83,2.72,0,5.74,0,9.08-.23q-.06,4.68.07,7.35c-3.21.06-9,.15-17.44.31q.4-10.11.41-17.37l-2.09,0q0-3.78,0-7.56Q121.5,80.55,135.81,80.36Z"/><path class="cls-3" d="M137.93,81l9.22-.86A42.64,42.64,0,0,0,153.42,89c0-1.56.05-4.27.15-8.14,3.05-.07,5.91-.24,8.56-.5q-.91,14.28-1.85,25.31c-1.48,0-3.35,0-5.6.09a93.23,93.23,0,0,0-7.43-9.94c-.14,3.28-.27,6.57-.41,9.86a72.32,72.32,0,0,0-7.65,0q.54-7.39.82-17l-2.61.2Q137.67,85,137.93,81Z"/><path class="cls-3" d="M177,81.06c3.62,1.7,5.18,4.23,4.72,7.58-.53,2.82-3.12,4.78-7.72,5.89-.21,2-.32,3.49-.33,4.6-2.09,0-4,0-5.7-.14q.15-3.64.62-8.37a12.81,12.81,0,0,0,4.45-.68q3.18-1.22,1.73-3.14c-1.82-1.81-3.91-1-6.22,2.43-2.11-1.35-3.46-2.26-4-2.71C167.66,81.18,171.85,79.36,177,81.06Zm-3.63,19.54c1.32.57,1.82,1.44,1.49,2.61a3.81,3.81,0,0,1-1.66,1.87,6.93,6.93,0,0,1-2.17.75,6.09,6.09,0,0,1-3.11-.32q-2.57-1.1-1.83-3.07a3.76,3.76,0,0,1,2.3-1.85,9.33,9.33,0,0,1,3.41-.41A8.49,8.49,0,0,1,173.35,100.6Z"/><path class="cls-3" d="M117.24,7.53q11.6-.18,23.19-.18a19.79,19.79,0,0,1,20,20.47"/></svg>
