<svg id="Layer_1" data-name="Layer 1" xmlns="http://www.w3.org/2000/svg" width="1334" height="750" viewBox="0 0 1334 750"><defs><style>.cls-1{fill:#e24b00;}.cls-2{fill:#edfbff;}.cls-3{fill:#fff;}</style></defs><title>tallerken</title><rect class="cls-1" x="-0.12" y="-1.88" width="1331.21" height="750.07"/><path class="cls-2" d="M863,535.68c-21,37-61.84,58.3-105.21,72.94-44.12,14.27-91,21.54-141.26,21.64-50.22-.1-97.14-7.36-141.26-21.64C431.86,594,391,572.65,370,535.68c-20.57-36.12-14.3-85.07,29-129.09,41.88-43.53,122.7-80.88,217.5-80.21,94.8-.67,175.61,36.68,217.5,80.21C877.25,450.61,883.52,499.56,863,535.68Z"/><path class="cls-3" d="M823.61,534.21c-17.64,31.06-52,49-88.42,61.29-37.08,12-76.51,18.1-118.71,18.18-42.2-.08-81.63-6.18-118.71-18.18-36.44-12.3-70.78-30.23-88.42-61.29-17.28-30.36-12-71.5,24.35-108.49,35.2-36.58,103.12-68,182.78-67.41,79.66-.56,147.58,30.83,182.78,67.41C835.63,462.71,840.89,503.85,823.61,534.21Z"/></svg>
