<svg id="Layer_1" data-name="Layer 1" xmlns="http://www.w3.org/2000/svg" xmlns:xlink="http://www.w3.org/1999/xlink" width="1334" height="750" viewBox="0 0 1334 750"><defs><style>.cls-1{fill:url(#linear-gradient);}.cls-13,.cls-14,.cls-2,.cls-31,.cls-49{fill:none;}.cls-11,.cls-12,.cls-3{fill:#fff;}.cls-4{fill:#e50d07;}.cls-5{fill:#dfa290;}.cls-6{fill:#005eaa;}.cls-10,.cls-7{fill:#fce900;}.cls-7,.cls-8{stroke:#b5230b;}.cls-11,.cls-12,.cls-13,.cls-14,.cls-15,.cls-18,.cls-31,.cls-49,.cls-7,.cls-8{stroke-miterlimit:10;}.cls-11,.cls-12,.cls-14,.cls-18,.cls-7{stroke-width:5px;}.cls-18,.cls-8,.cls-9{fill:#b5230b;}.cls-11,.cls-13,.cls-15{stroke:#000;}.cls-12,.cls-14{stroke:#2d0800;}.cls-13,.cls-31{stroke-width:3px;}.cls-16{fill:#fcf6ed;}.cls-17{fill:#fcecc0;}.cls-18,.cls-49{stroke:#fce900;}.cls-19{fill:#875a00;}.cls-20{fill:#ebfdff;}.cls-21{fill:#ffcfff;}.cls-22{fill:#755200;}.cls-23{fill:#e76a00;}.cls-24{fill:#00b100;}.cls-25{fill:#010200;}.cls-26{fill:#707070;}.cls-27{fill:#bf7000;}.cls-28{fill:#3d3d3d;}.cls-29{fill:#8d8d8d;}.cls-30{fill:#070707;}.cls-31{stroke:#4b005b;}.cls-32{fill:#f7a746;}.cls-33{fill:#009d00;}.cls-34{fill:#005300;}.cls-35{fill:#020202;}.cls-36{fill:#b9b900;}.cls-37{fill:#aba000;}.cls-38{fill:#e0d900;}.cls-39{fill:#ac9c00;}.cls-40{fill:#b6ab00;}.cls-41{fill:#c5b900;}.cls-42{fill:#c2b600;}.cls-43{fill:#b3a800;}.cls-44{fill:#007e00;}.cls-45{fill:#00da00;}.cls-46{fill:#38b925;}.cls-47{fill:#00c800;}.cls-48{fill:#53005f;}.cls-49{stroke-width:20px;}.cls-50{fill:url(#radial-gradient);}.cls-51{fill:url(#radial-gradient-2);}</style><linearGradient id="linear-gradient" y1="376" x2="1334" y2="376" gradientUnits="userSpaceOnUse"><stop offset="0" stop-color="#005eaa"/><stop offset="1" stop-color="#29abe2" stop-opacity="0.55"/></linearGradient><radialGradient id="radial-gradient" cx="1022.43" cy="591.01" r="72.81" gradientTransform="translate(336.73 442.07) scale(0.7 0.21)" gradientUnits="userSpaceOnUse"><stop offset="0" stop-opacity="0.6"/><stop offset="1" stop-color="#1d1d1b" stop-opacity="0"/></radialGradient><radialGradient id="radial-gradient-2" cx="557.48" cy="781.59" r="58.9" gradientTransform="translate(336.73 554.08) scale(0.7 0.21)" xlink:href="#radial-gradient"/></defs><title>titleskærm</title><rect class="cls-1" y="1" width="1334" height="750"/><path class="cls-2" d="M115,341c0-49.75,275.07-90,615-90"/><rect class="cls-3" x="475.04" y="343.13" width="11" height="11" transform="translate(-88.72 517.19) rotate(-52.45)"/><path class="cls-4" d="M676.67,565.84l-17.49.1c-8.47,0-14.58,5.26-16.77,14.3h0c-.93,3.84-3.48,6.1-7,6.23l-19.7.73c-6.89.25-11.52,5.16-12.49,13.24l-.76,6.34c-3.21,1.77-8.53-1.26-11.84-6.73l-38-181.41L576,399.28c3.2-1.76,7.91.8,11.22,6.27l14.14,22.85,17,28.16,58.1,96.12C679.79,558.15,679.88,564.07,676.67,565.84Z"/><path class="cls-5" d="M663.05,480.72h0c5.53-8.1,3-19.07-5.63-24.38l-39.93-24.57c-8.63-5.31-20.21-3-25.74,5.06h0c-5.53,8.1-3,19.07-1.49,20l39.92,24.58C645.94,491.1,657.52,488.82,663.05,480.72Z"/><polygon class="cls-6" points="550.16 437.51 642.63 489.5 662.24 457.68 569.78 405.69 550.16 437.51"/><path class="cls-5" d="M436.37,451.08h0c2.74-9.31,13.05-14.71,22.92-12l45.65,12.51c9.87,2.71,15.7,12.53,13,21.84h0c-2.74,9.3-13,14.71-14.76,14.24l-45.66-12.51C439.46,470.21,433.63,460.38,436.37,451.08Z"/><polygon class="cls-6" points="544.76 503.75 442.9 471.54 455.06 436.48 556.91 468.7 544.76 503.75"/><path class="cls-6" d="M605.05,586.94l-.27.18a14.84,14.84,0,0,1-20-3.23l-21.18-28.44A13.38,13.38,0,0,1,567,536.32l.26-.18a14.83,14.83,0,0,1,20,3.23l21.19,28.44A13.38,13.38,0,0,1,605.05,586.94Z"/><path class="cls-6" d="M642.63,573.4h0a14.84,14.84,0,0,1-20-3.22l-21.18-28.45a13.37,13.37,0,0,1,3.38-19.12h0a14.84,14.84,0,0,1,20,3.23L646,554.28A13.35,13.35,0,0,1,642.63,573.4Z"/><path class="cls-6" d="M618.2,531.73l-43.75,19.53c-14.31,6.39-31.48.44-38.17-13.23l-37-75.66c-6.69-13.66-.46-30.07,13.85-36.46l43.74-19.53c14.31-6.39,31.49-.44,38.18,13.22l37,75.67C638.73,508.93,632.5,525.34,618.2,531.73Z"/><path class="cls-7" d="M573.12,496l-38-22.32L513.47,461l1.83-17.53,24.21-10.59,21.65-9.44,18.53,10.89-2.22,20.87Z"/><path class="cls-8" d="M541.83,454.87a76.93,76.93,0,0,1,7.79-3.82c5.42-2.29,9.78-3.05,13.28-2.47a10.86,10.86,0,0,1,8.25,5.55,9.49,9.49,0,0,1,.26,9.67c-1.66,3.05-5.6,6-11.29,8.39-2.69,1.13-5,2-7,2.65Zm13.93,16.36a35.73,35.73,0,0,0,3.91-1.46c8.07-3.41,10.68-8.4,7.58-13.88-2.67-4.81-8.29-6.21-16.28-2.83a29.72,29.72,0,0,0-4.28,2.14Z"/><path class="cls-8" d="M522.49,448.62a77,77,0,0,1,7.79-3.81c5.42-2.29,9.78-3.05,13.28-2.48a10.91,10.91,0,0,1,8.25,5.55,9.44,9.44,0,0,1,.26,9.67c-1.66,3.06-5.6,6-11.28,8.39-2.69,1.14-5,2-7,2.66ZM536.43,465a36,36,0,0,0,3.9-1.47c8.08-3.41,10.69-8.4,7.58-13.88-2.67-4.81-8.3-6.2-16.28-2.83a30.62,30.62,0,0,0-4.28,2.15Z"/><path class="cls-9" d="M530.47,526.16,632.21,495s16.57,14.25-7.38,30.81-61.25,29.61-61.25,29.61S535.75,556.05,530.47,526.16Z"/><path class="cls-10" d="M589.13,521.72l-15.85,5.79a5.32,5.32,0,0,1-6.74-2.88h0a5,5,0,0,1,3-6.44l15.85-5.78a5.31,5.31,0,0,1,6.74,2.88h0A4.93,4.93,0,0,1,589.13,521.72Z"/><path class="cls-9" d="M628,576.32l-22.43-26.7c-1.64-2,15.37,5.52,21.48.84S628.35,529,630,530.9l22.43,26.71c3.29,3.91,1.86,10.27-3.17,14.13l-6.11,4.68C638.12,580.28,631.3,580.24,628,576.32Z"/><path class="cls-9" d="M590.16,591.28l-22.43-26.7c-1.64-2,15.37,5.52,21.48.84s1.29-21.51,2.94-19.56l22.43,26.71c3.29,3.91,1.86,10.27-3.17,14.13l-6.11,4.68C600.27,595.24,593.45,595.2,590.16,591.28Z"/><path class="cls-5" d="M612,303.05c9.48,73.28-44,129.94-127.26,121.54-69.89-7-127.25-54.42-127.25-121.54s57-121.55,127.25-121.55S603.36,236.42,612,303.05Z"/><path class="cls-11" d="M341.5,263.78H471.64a1,1,0,0,1,1,1v36.54a65.93,65.93,0,0,1-65.93,65.93h0A66.21,66.21,0,0,1,340.5,301V264.78a1,1,0,0,1,1-1Z"/><path class="cls-12" d="M490.37,263.78H620.2a1,1,0,0,1,1,1v34.45A67.77,67.77,0,0,1,553.43,367h0a64.05,64.05,0,0,1-64.05-64.05V264.78a1,1,0,0,1,1-1Z"/><path class="cls-13" d="M462.59,367.86c6.32,26.76,21.79,21.84,27.41,0"/><line class="cls-14" x1="474.28" y1="311.15" x2="489.5" y2="311.5"/><ellipse class="cls-3" cx="368.5" cy="292" rx="3.5" ry="3"/><ellipse class="cls-15" cx="382.33" cy="296.92" rx="20.09" ry="19.19"/><ellipse class="cls-3" cx="373.82" cy="291.11" rx="5.87" ry="5.04"/><ellipse class="cls-15" cx="535.33" cy="297.92" rx="20.09" ry="19.19"/><ellipse class="cls-3" cx="526.82" cy="292.11" rx="5.87" ry="5.04"/><path class="cls-3" d="M578.6,197.71,531.85,185.9c-10.79-2.72-16.29-10.86-12.23-18.1l52.14-93c1.94-3.47,6.82-5.65,12-5.76a8.77,8.77,0,0,1,6.77,2.63l7.29,8.7c1.81,2.15,5.64,3.15,9.14,2.36l12.38-2.77A10.72,10.72,0,0,1,627,81h0c10.5,6.35,23.7,10.3,37.72,11.46,6.2.52,5.91,1.66,4.42,4.34a4.59,4.59,0,0,1-.37.57l-73.06,95.16C593.1,197.09,585.42,199.43,578.6,197.71Z"/><path class="cls-16" d="M565.42,222.07l-66.51-22.56c-6.35-2.15-8.92-7.4-5.71-11.67l10.16-13.49c3.21-4.27,11-6,17.4-3.84l66.5,22.56c6.36,2.15,8.93,7.4,5.72,11.67l-10.17,13.5C579.6,222.5,571.78,224.23,565.42,222.07Z"/><rect x="389.59" y="359.91" width="8" height="117" transform="translate(-178.01 475.5) rotate(-52.45)"/><rect x="289.16" y="329.58" width="64" height="65.38" transform="translate(-161.78 396.15) rotate(-52.45)"/><rect class="cls-17" x="593.21" y="97.15" width="22" height="95.36" rx="11" transform="translate(220.09 -343.53) rotate(38.33)"/><path class="cls-18" d="M220.33,147.81q9.88-10.06,27.74-19.61,16.2-8.17,29.75-5T302.15,145q6.35,12.69,4.73,21.62-3.53,19.25-19.27,28.6-15.17,9.65-22.69,11.53-8-15-25.16-43.67L233,167.72Q224.58,155.07,220.33,147.81Zm52,25.14a19.93,19.93,0,0,0,9-9q2.3-5.2-2.11-11.11-8.19-11.47-21-2.26Q264.75,160.51,272.36,173Z"/><path class="cls-18" d="M300.75,130a161.79,161.79,0,0,1-8.36-22.78q19-11.23,30.79-15.91,1.2,5.39,6.58,20.21t10.79,20.89q3.39,3.24,6.71,2.13a5.46,5.46,0,0,0,3.38-6.17q-2.91-15-17.26-41.53l24.2-8.62q11.78,19.16,17.44,36.1,8.89,27.74-7.69,43.62a37.87,37.87,0,0,1-18.59,8.76q-18.9,1.41-33.71-22.81-6.37-11.58-7.63-17.41Z"/><path class="cls-18" d="M369.7,73.87l26.38-11.28q10.51,10.3,28.39,20.46-2.57-6.9-8.52-24.23,13.43-4.68,24.77-9.64,13.3,43,22.94,76.47-6.74,2.1-16.85,5.72a344.74,344.74,0,0,0-33.35-22.21l9.51,29.6a233.31,233.31,0,0,0-23.2,7.47q-6.24-22.48-15.63-51.2l-7.58,3.06Z"/><path class="cls-18" d="M462,121.74q-2.19-12.13-4.38-25.45,18.64,6,30.65,2.28c3.47-1.43,4.94-3.28,4.4-5.57-.28-1.43-2.15-1.62-5.59-.56a61,61,0,0,1-9.64,1.75,24.52,24.52,0,0,1-6.15.49,28.88,28.88,0,0,1-9.73-1.31,14.94,14.94,0,0,1-7.22-4.84,17.79,17.79,0,0,1-3.88-7q-4.35-15.16,3-27.42,12.74-19,50.36-14.34l4.83,25.6a64.79,64.79,0,0,0-17.18-2.86q-16,0-15.11,7,.87,4.47,10.16,1,9.54-3.21,16.94-2.08a16.48,16.48,0,0,1,11.4,6.61q5.32,9.66,4.44,18-2.71,20.83-23.95,27.93Q480.19,125.41,462,121.74Z"/><path class="cls-18" d="M578.53,27.66q.36,14.28,1.52,24.18L551.3,55.25l1,6.44,20-2.85,2.63,18.48q-7.62,1.53-19.83,3.28l.75,5.69q12.83-1.37,28.38-4.08,2,14.63,3.73,22.9-15.18,2.08-55,7.47-3-31.77-6.07-54.42l-6.51.87L517.07,35.4Q534.42,33.47,578.53,27.66Z"/><path class="cls-18" d="M590.83,30.58q13.45-4.21,33.7-4.24,18.15.4,28.6,9.58t11.21,30.69q-.37,14.19-6,21.31-12.15,15.31-30.46,16.17-17.91,1.36-25.44-.51,0-17-1.65-50.37l-8.19.88Q591.15,39,590.83,30.58ZM624.9,77.25a19.87,19.87,0,0,0,12.15-3.74q4.47-3.51,3.36-10.79-1.83-14-17.45-11.87Q624,62.7,624.9,77.25Z"/><path class="cls-18" d="M669.2,53.76q2.07-14.05,3.38-24,22.49-3.27,39.75-.3a39,39,0,0,1,16,7.6q7.33,5.88,9.11,12.2,3.13,18.78-17.56,31.44a113.17,113.17,0,0,0,13.78,16.46l-21.09,16.22L698.54,90q-1,10-1.68,18.24-16.56-.59-24.65-2.65.84-11.89,5.33-52.38ZM702,52.24a108.2,108.2,0,0,0-1.29,13.12L705,64.5q7.47-2.82,7.82-7.18a3.84,3.84,0,0,0-3.29-4.43A14.86,14.86,0,0,0,702,52.24Z"/><path class="cls-18" d="M809.19,44.17Q805.53,58,803.87,67.8L775.32,63l-.89,6.45,20,2.87-2.67,18.48q-7.72-.67-20-2.42l-.87,5.68q12.69,2.28,28.38,4-2.16,14.61-2.83,23-15.16-2.27-54.89-8.26,6-31.33,9.43-53.94l-6.49-1,3.5-23.6Q765.24,37.37,809.19,44.17Z"/><path class="cls-18" d="M820.25,48.19l28.34,4.41q3.46,14.31,13.24,32.4,1.49-7.22,5.61-25.06,13.88,3.14,26.12,5-11.52,43.53-21.07,77-6.82-1.8-17.31-4.08a344.27,344.27,0,0,0-16.52-36.5L831,131.45a236.64,236.64,0,0,0-23.63-6q6.62-22.38,13.87-51.7l-8-1.42Z"/><path class="cls-18" d="M913.48,156.59l1.46-3.15q-30.36-3.54-33.21-30.24-1.2-25.45,22.09-40.48,22.92-11.11,54.08,5.92a147.4,147.4,0,0,1-9.06,25.27q-7.2-5.37-19.71-8.54-12.27-1.53-17.7,5.24-6.91,12,.23,19,7.58,4.26,12.83,2a27.89,27.89,0,0,0-6.92-2.2l4.71-14.12q19.82,6.72,26.43,8.47-7.53,22.29-14.18,39.4Q927.21,161.8,913.48,156.59Z"/><path class="cls-18" d="M1023.9,115q-6.6,12.67-10.38,21.89l-26.8-10.93-2.28,6.1,18.87,7.18-6.65,17.45q-7.41-2.35-18.94-6.74l-2.1,5.35q11.88,5,26.81,10.17-5.32,13.77-7.82,21.84-14.29-5.53-51.74-20.1,12.75-29.25,21-50.55l-6.12-2.39L966.38,92Q982.51,98.71,1023.9,115Z"/><path class="cls-18" d="M1032.61,120.72l26.93,9.91q.59,14.7,6.61,34.36,2.86-6.78,10.43-23.47,13,5.82,24.63,10-19.85,40.43-35.8,71.36-6.33-3.1-16.17-7.4a345.17,345.17,0,0,0-9-39l-13.39,28a235.41,235.41,0,0,0-22-10.49q10.9-20.62,23.77-48l-7.61-3Z"/><polygon class="cls-19" points="1337 532 845 532 652 749 1337 749 1337 532"/><path class="cls-20" d="M886.93,612.68C873,633.79,845.29,641.81,821,642.48c-24.29-.67-52-8.69-65.93-29.8-14.74-20.16,10.79-59.59,65.93-60.2C876.14,553.09,901.67,592.52,886.93,612.68Z"/><path class="cls-3" d="M876.4,612.26c-11.71,17.74-35,24.47-55.4,25-20.41-.57-43.69-7.3-55.4-25-12.39-17,9.06-50.09,55.4-50.59C867.34,562.17,888.79,595.31,876.4,612.26Z"/><path class="cls-20" d="M795.93,717.68C782,738.79,754.29,746.81,730,747.48c-24.29-.67-52-8.69-65.93-29.8-14.74-20.16,10.79-59.59,65.93-60.2C785.14,658.09,810.67,697.52,795.93,717.68Z"/><path class="cls-3" d="M785.4,717.26c-11.71,17.74-35,24.47-55.4,25-20.41-.57-43.69-7.3-55.4-25-12.39-17,9.06-50.09,55.4-50.59C776.34,667.17,797.79,700.31,785.4,717.26Z"/><path class="cls-20" d="M1106.93,567.68c-13.94,21.11-41.64,29.13-65.93,29.8-24.29-.67-52-8.69-65.93-29.8-14.74-20.16,10.79-59.59,65.93-60.2C1096.14,508.09,1121.67,547.52,1106.93,567.68Z"/><path class="cls-3" d="M1096.4,567.26c-11.71,17.74-35,24.47-55.4,25-20.41-.57-43.69-7.3-55.4-25-12.39-17,9.06-50.09,55.4-50.59C1087.34,517.17,1108.79,550.31,1096.4,567.26Z"/><path class="cls-20" d="M1339.93,578.68c-13.94,21.11-41.64,29.13-65.93,29.8-24.29-.67-52-8.69-65.93-29.8-14.74-20.16,10.79-59.59,65.93-60.2C1329.14,519.09,1354.66,558.52,1339.93,578.68Z"/><path class="cls-3" d="M1329.4,578.26c-11.71,17.74-35,24.47-55.4,25-20.41-.57-43.69-7.3-55.4-25-12.39-17,9.06-50.09,55.4-50.59C1320.34,528.17,1341.79,561.31,1329.4,578.26Z"/><rect class="cls-21" x="219.77" y="446.79" width="14.37" height="25.56" rx="7.18" transform="translate(-231.13 229.63) rotate(-37.06)"/><rect class="cls-21" x="162.22" y="460.19" width="14.37" height="25.56" rx="7.18" transform="translate(-213.79 148.07) rotate(-30)"/><ellipse class="cls-22" cx="101.06" cy="422.64" rx="16.21" ry="10.53"/><ellipse class="cls-22" cx="80.33" cy="447.54" rx="12.2" ry="8.02"/><ellipse class="cls-22" cx="97.88" cy="466.09" rx="19.39" ry="10.53"/><ellipse class="cls-22" cx="109.08" cy="448.87" rx="24.23" ry="15.71"/><ellipse class="cls-22" cx="178.43" cy="420.8" rx="51.81" ry="40.44"/><ellipse class="cls-22" cx="151.86" cy="434.67" rx="34.59" ry="43.95"/><circle class="cls-22" cx="138.66" cy="408.76" r="30.75"/><ellipse class="cls-22" cx="232.75" cy="402.25" rx="13.54" ry="14.54" transform="translate(-145.32 131.99) rotate(-24.39)"/><ellipse class="cls-22" cx="239.1" cy="438.01" rx="28.58" ry="7.19"/><ellipse class="cls-22" cx="265.5" cy="419.79" rx="14.87" ry="13.37"/><ellipse class="cls-22" cx="217.04" cy="443.36" rx="17.21" ry="16.21"/><ellipse class="cls-22" cx="231.91" cy="413.95" rx="18.72" ry="16.88"/><ellipse class="cls-22" cx="118.27" cy="463.91" rx="20.39" ry="16.38"/><ellipse class="cls-22" cx="223.33" cy="413.44" rx="25.4" ry="16.04"/><ellipse class="cls-22" cx="100.16" cy="443.36" rx="18.88" ry="10.19"/><ellipse class="cls-22" cx="243.53" cy="426.04" rx="17.71" ry="9.69"/><circle class="cls-22" cx="207.18" cy="439.51" r="23.06"/><ellipse class="cls-22" cx="113.92" cy="436.57" rx="12.87" ry="19.22"/><circle class="cls-3" cx="130.65" cy="437.65" r="11.6"/><circle class="cls-3" cx="187.77" cy="422.64" r="11.6"/><ellipse class="cls-22" cx="197.23" cy="440.89" rx="6.85" ry="4.31"/><path class="cls-3" d="M214.74,432.74c3.16,5-2.31,15.79-8.48,19.67s-23.43,3-16.9-2.07C194.47,446.36,211.58,427.72,214.74,432.74Z"/><line class="cls-13" x1="197.15" y1="451.04" x2="206.42" y2="444.03"/><ellipse class="cls-22" cx="249.21" cy="404.09" rx="12.04" ry="16.71"/><ellipse class="cls-22" cx="159.29" cy="381.86" rx="23.4" ry="15.21"/><ellipse class="cls-22" cx="201.78" cy="386.04" rx="11.41" ry="8.02"/><ellipse class="cls-22" cx="223.3" cy="388.54" rx="19.22" ry="15.54"/><circle cx="126.79" cy="436.57" r="3.48"/><circle cx="184.29" cy="420.84" r="3.48"/><circle class="cls-3" cx="125.41" cy="435.67" r="1.89"/><circle class="cls-3" cx="182.69" cy="420.8" r="1.89"/><line class="cls-13" x1="120.06" y1="417.35" x2="113.92" y2="426.04"/><line class="cls-13" x1="187.77" y1="397.07" x2="199.82" y2="402.25"/><rect class="cls-3" x="230.24" y="455.79" width="4.01" height="10.29" rx="2.01" transform="translate(-230.89 233.1) rotate(-37.06)"/><rect class="cls-3" x="173.13" y="470.77" width="4.01" height="8.29" rx="2.01" transform="translate(-250.84 201.5) rotate(-37.06)"/><rect x="712.61" y="669" width="3.58" height="40.25"/><rect x="726.46" y="674.88" width="3.14" height="34.37"/><polyline points="716.19 706.05 716.19 718 692.78 718"/><polyline points="726.46 706.05 726.46 718 749.87 718"/><path class="cls-23" d="M805.36,715.25a18.57,18.57,0,0,1-8.22-1.92l-147.23-72.5a18.59,18.59,0,0,1-.32-33.2l35.16-18.15A18.63,18.63,0,0,1,705,591.54l112.08,90.65a18.6,18.6,0,0,1-11.7,33.06ZM700.72,620.41Z"/><polygon class="cls-24" points="647.85 609.31 614.14 599.74 642.76 594.64 604.34 592.45 654.91 584.84 623.94 578.57 685.88 577 703.13 620.68 682.35 592.45 647.85 609.31"/><polygon points="713.12 639.23 702.37 659.46 690.23 667.49 679.47 660.26 667.33 640.84 690.23 640.03 713.12 639.23"/><polygon points="758.9 639.23 748.15 659.46 736.01 667.49 725.26 660.26 713.12 640.84 736.01 640.03 758.9 639.23"/><line class="cls-2" x1="759.41" y1="683.29" x2="773.54" y2="689.37"/><ellipse class="cls-25" cx="754.03" cy="680.2" rx="2.22" ry="3.63"/><ellipse class="cls-26" cx="788.72" cy="703.22" rx="0.32" ry="0.32"/><path class="cls-3" d="M786.18,705.61,755.11,684.7a2.44,2.44,0,0,1-.65-3.42h0a2.54,2.54,0,0,1,3.49-.63L789,701.56a2.44,2.44,0,0,1,.65,3.42h0A2.54,2.54,0,0,1,786.18,705.61Z"/><polygon class="cls-27" points="761.68 689.12 752.44 682.9 755.29 678.85 764.52 685.07 761.68 689.12"/><path class="cls-28" d="M787.3,706.32h0a1.22,1.22,0,0,1-.32-1.71l1.42-2a1.28,1.28,0,0,1,1.75-.32h0a1.22,1.22,0,0,1,.32,1.71l-1.42,2A1.27,1.27,0,0,1,787.3,706.32Z"/><ellipse class="cls-26" cx="789.48" cy="704.56" rx="0.4" ry="1.33"/><ellipse class="cls-26" cx="788.08" cy="704.88" rx="1.38" ry="0.68"/><ellipse class="cls-26" cx="786.78" cy="705.58" rx="0.12" ry="0.35"/><ellipse class="cls-26" cx="789.88" cy="703.22" rx="0.12" ry="0.35"/><rect x="761.51" y="687.41" width="4.95" height="0.46" transform="translate(-237.91 917.26) rotate(-54.9)"/><path class="cls-2" d="M799.36,689.76c0,3.2-3.16,5.8-7.06,5.8-3.11,0-5.64-2.08-5.64-4.64,0-2,2-3.71,4.51-3.71,2,0,3.62,1.33,3.62,3a2.67,2.67,0,0,1-2.89,2.37,2.14,2.14,0,0,1-2.32-1.9,1.71,1.71,0,0,1,1.85-1.52,1.38,1.38,0,0,1,1.49,1.22,1.09,1.09,0,0,1-1.19,1,.88.88,0,0,1-1-.78"/><path class="cls-2" d="M791,702.75c0,3.21-3.16,5.81-7.06,5.81-3.12,0-5.65-2.08-5.65-4.64,0-2.06,2-3.72,4.52-3.72,2,0,3.62,1.33,3.62,3a2.68,2.68,0,0,1-2.9,2.38,2.14,2.14,0,0,1-2.31-1.9,1.71,1.71,0,0,1,1.85-1.52,1.36,1.36,0,0,1,1.48,1.21,1.1,1.1,0,0,1-1.18,1,.87.87,0,0,1-1-.78"/><path class="cls-29" d="M795.11,690.74c-3.24,0-5.88-2.19-5.88-4.87,0-2.18,2.13-4,4.75-4,2.12,0,3.84,1.44,3.84,3.2a2.9,2.9,0,0,1-3.12,2.61,2.37,2.37,0,0,1-2.54-2.13,1.93,1.93,0,0,1,2.08-1.75,1.59,1.59,0,0,1,1.71,1.44,1.32,1.32,0,0,1-1.42,1.21,1.1,1.1,0,0,1-1.18-1h.47a.64.64,0,0,0,.71.54.87.87,0,0,0,1-.74,1.14,1.14,0,0,0-1.25-1,1.49,1.49,0,0,0-1.62,1.29,1.91,1.91,0,0,0,2.08,1.67,2.45,2.45,0,0,0,2.66-2.15c0-1.51-1.52-2.74-3.38-2.74-2.37,0-4.29,1.57-4.29,3.49,0,2.43,2.43,4.4,5.42,4.4,3.76,0,6.83-2.49,6.83-5.57h.46C802.4,688,799.13,690.74,795.11,690.74Z"/><path class="cls-29" d="M794.69,672.87c-5.65,0-10.25-3.47-10.25-7.74,0-3.43,3.7-6.23,8.25-6.23,3.66,0,6.64,2.26,6.64,5,0,2.25-2.4,4.08-5.36,4.08-2.39,0-4.33-1.49-4.33-3.31,0-1.48,1.57-2.69,3.51-2.69,1.58,0,2.86,1,2.86,2.2a2.12,2.12,0,0,1-2.33,1.81,1.75,1.75,0,0,1-1.92-1.5h.47c0,.57.65,1,1.45,1,1,0,1.86-.6,1.86-1.34,0-1-1.07-1.74-2.39-1.74-1.68,0-3,1-3,2.23,0,1.57,1.74,2.84,3.87,2.84,2.7,0,4.9-1.62,4.9-3.61,0-2.52-2.77-4.57-6.18-4.57-4.29,0-7.78,2.59-7.78,5.77,0,4,4.39,7.28,9.78,7.28,6.78,0,12.29-4.11,12.29-9.15h.47C807.45,668.56,801.72,672.87,794.69,672.87Z"/><path class="cls-29" d="M820.16,654c-6.61,0-12-7.56-12-16.85,0-7.46,4.32-13.53,9.64-13.53,4.27,0,7.75,4.87,7.75,10.87,0,4.82-2.8,8.74-6.25,8.74-2.78,0-5-3.16-5-7,0-3.13,1.83-5.68,4.08-5.68,1.83,0,3.31,2.06,3.31,4.59,0,2-1.21,3.72-2.69,3.72-1.22,0-2.21-1.36-2.21-3h.47c0,1.41.78,2.55,1.74,2.55,1.23,0,2.23-1.46,2.23-3.25,0-2.27-1.28-4.13-2.85-4.13-2,0-3.62,2.34-3.62,5.22,0,3.63,2.06,6.58,4.58,6.58,3.19,0,5.79-3.72,5.79-8.28,0-5.74-3.27-10.41-7.29-10.41-5.06,0-9.17,5.86-9.17,13.07,0,9,5.16,16.39,11.52,16.39,8,0,14.46-9.22,14.46-20.55h.46C835.08,644.58,828.39,654,820.16,654Z"/><path class="cls-29" d="M802,658.49c-4.17,0-7.57-5.84-7.57-13,0-5.78,2.74-10.47,6.1-10.47,2.72,0,4.93,3.77,4.93,8.42,0,3.74-1.79,6.78-4,6.78-1.78,0-3.23-2.45-3.23-5.47,0-2.48,1.15-4.43,2.63-4.43,1.21,0,2.16,1.58,2.16,3.59,0,1.63-.78,2.91-1.77,2.91-.82,0-1.47-1-1.47-2.37h.47c0,1,.46,1.91,1,1.91.7,0,1.3-1.12,1.3-2.45,0-1.69-.77-3.12-1.69-3.12-1.18,0-2.17,1.81-2.17,4,0,2.76,1.24,5,2.77,5,1.95,0,3.53-2.84,3.53-6.32,0-4.39-2-8-4.47-8-3.1,0-5.63,4.49-5.63,10,0,6.92,3.18,12.56,7.1,12.56,4.93,0,8.94-7.07,8.94-15.76h.46C811.41,651.21,807.19,658.49,802,658.49Z"/><rect class="cls-30" x="647.23" y="631.57" width="27.92" height="0.7" transform="translate(-252.73 596.61) rotate(-41.49)"/><rect class="cls-30" x="732.43" y="676.23" width="17.83" height="0.7" transform="translate(-262.2 660.92) rotate(-41.49)"/><rect class="cls-30" x="794.83" y="707.65" width="15.37" height="0.7" transform="translate(-267.67 709.33) rotate(-41.49)"/><rect class="cls-30" x="663.76" y="630.83" width="58.05" height="0.7" transform="translate(-244.31 617.36) rotate(-41.49)"/><line class="cls-31" x1="181" y1="516" x2="261" y2="607"/><line class="cls-31" x1="230.5" y1="490.5" x2="280.5" y2="548.5"/><line class="cls-31" x1="265.5" y1="463.5" x2="375.5" y2="580.5"/><rect class="cls-32" x="1080.95" y="491.76" width="10.83" height="13.34" rx="4" transform="translate(529.78 -559.31) rotate(37.6)"/><path class="cls-32" d="M1088.71,499.34l-3.79-2.92c-.21-.17-1.27-.32-.76-1L1171,375c.51-.65,4.12-1.37,4.34-1.2l8.89,6.85c.21.16.7,4.17.19,4.82C1184.46,385.42,1088.93,499.5,1088.71,499.34Z"/><rect class="cls-33" x="1003.28" y="302.38" width="63.55" height="187.51" rx="23.78"/><ellipse class="cls-34" cx="1035.05" cy="470.78" rx="31.78" ry="21.71"/><circle class="cls-35" cx="1023.98" cy="351.21" r="7.49"/><circle class="cls-35" cx="1042.54" cy="351.21" r="7.49"/><rect class="cls-3" x="1029.98" y="376.19" width="25.13" height="20.68" rx="4"/><path class="cls-36" d="M1013.51,411.6h-3.14a3.42,3.42,0,0,1-3.42-3.42V396.86a3.42,3.42,0,0,1,3.42-3.41h3.14a3.42,3.42,0,0,1,3.42,3.41v11.32A3.43,3.43,0,0,1,1013.51,411.6Zm-3.14-15.88a1.14,1.14,0,0,0-1.14,1.14v11.32a1.14,1.14,0,0,0,1.14,1.14h3.14a1.14,1.14,0,0,0,1.14-1.14V396.86a1.14,1.14,0,0,0-1.14-1.14Z"/><path class="cls-36" d="M1003.94,396.57h-2.3a3.42,3.42,0,0,1-3.42-3.42V379.91a3.42,3.42,0,0,1,3.42-3.41h2.3a3.41,3.41,0,0,1,3.41,3.41v13.24A3.42,3.42,0,0,1,1003.94,396.57Zm-2.3-17.8a1.15,1.15,0,0,0-1.14,1.14v13.24a1.14,1.14,0,0,0,1.14,1.14h2.3a1.14,1.14,0,0,0,1.13-1.14V379.91a1.14,1.14,0,0,0-1.13-1.14Z"/><path class="cls-36" d="M1024.92,446.75h-2.3a3.42,3.42,0,0,1-3.42-3.42V430.09a3.42,3.42,0,0,1,3.42-3.41h2.3a3.42,3.42,0,0,1,3.42,3.41v13.24A3.42,3.42,0,0,1,1024.92,446.75Zm-2.3-17.8a1.15,1.15,0,0,0-1.14,1.14v13.24a1.14,1.14,0,0,0,1.14,1.14h2.3a1.14,1.14,0,0,0,1.14-1.14V430.09a1.15,1.15,0,0,0-1.14-1.14Z"/><path class="cls-36" d="M1021.49,435h-2.3a3.42,3.42,0,0,1-3.41-3.42V418.29a3.42,3.42,0,0,1,3.41-3.42h2.3a3.42,3.42,0,0,1,3.42,3.42v13.24A3.42,3.42,0,0,1,1021.49,435Zm-2.3-17.8a1.15,1.15,0,0,0-1.14,1.14v13.24a1.15,1.15,0,0,0,1.14,1.14h2.3a1.14,1.14,0,0,0,1.14-1.14V418.29a1.14,1.14,0,0,0-1.14-1.14Z"/><path class="cls-36" d="M1008.51,403.16h-2.3a3.42,3.42,0,0,1-3.41-3.42V386.5a3.42,3.42,0,0,1,3.41-3.42h2.3a3.42,3.42,0,0,1,3.42,3.42v13.24A3.42,3.42,0,0,1,1008.51,403.16Zm-2.3-17.8a1.15,1.15,0,0,0-1.14,1.14v13.24a1.15,1.15,0,0,0,1.14,1.14h2.3a1.14,1.14,0,0,0,1.14-1.14V386.5a1.14,1.14,0,0,0-1.14-1.14Z"/><path class="cls-36" d="M1018.07,423.38h-2.3a3.42,3.42,0,0,1-3.42-3.42V406.72a3.42,3.42,0,0,1,3.42-3.41h2.3a3.41,3.41,0,0,1,3.41,3.41V420A3.42,3.42,0,0,1,1018.07,423.38Zm-2.3-17.8a1.14,1.14,0,0,0-1.14,1.14V420a1.14,1.14,0,0,0,1.14,1.14h2.3a1.14,1.14,0,0,0,1.13-1.14V406.72a1.14,1.14,0,0,0-1.13-1.14Z"/><path class="cls-36" d="M1063.09,411.6H1060a3.42,3.42,0,0,1-3.42-3.42V396.86a3.42,3.42,0,0,1,3.42-3.41h3.14a3.41,3.41,0,0,1,3.41,3.41v11.32A3.42,3.42,0,0,1,1063.09,411.6ZM1060,395.72a1.14,1.14,0,0,0-1.14,1.14v11.32a1.14,1.14,0,0,0,1.14,1.14h3.14a1.14,1.14,0,0,0,1.14-1.14V396.86a1.14,1.14,0,0,0-1.14-1.14Z"/><path class="cls-36" d="M1071.82,396.57h-2.3a3.42,3.42,0,0,1-3.42-3.42V379.91a3.42,3.42,0,0,1,3.42-3.41h2.3a3.42,3.42,0,0,1,3.42,3.41v13.24A3.42,3.42,0,0,1,1071.82,396.57Zm-2.3-17.8a1.15,1.15,0,0,0-1.14,1.14v13.24a1.14,1.14,0,0,0,1.14,1.14h2.3a1.14,1.14,0,0,0,1.14-1.14V379.91a1.15,1.15,0,0,0-1.14-1.14Z"/><path class="cls-36" d="M1050.84,446.75h-2.3a3.42,3.42,0,0,1-3.42-3.42V430.09a3.42,3.42,0,0,1,3.42-3.41h2.3a3.41,3.41,0,0,1,3.41,3.41v13.24A3.42,3.42,0,0,1,1050.84,446.75Zm-2.3-17.8a1.15,1.15,0,0,0-1.14,1.14v13.24a1.14,1.14,0,0,0,1.14,1.14h2.3a1.14,1.14,0,0,0,1.13-1.14V430.09a1.14,1.14,0,0,0-1.13-1.14Z"/><path class="cls-36" d="M1054.26,435H1052a3.42,3.42,0,0,1-3.41-3.42V418.29a3.42,3.42,0,0,1,3.41-3.42h2.3a3.42,3.42,0,0,1,3.42,3.42v13.24A3.42,3.42,0,0,1,1054.26,435Zm-2.3-17.8a1.14,1.14,0,0,0-1.13,1.14v13.24a1.14,1.14,0,0,0,1.13,1.14h2.3a1.14,1.14,0,0,0,1.14-1.14V418.29a1.14,1.14,0,0,0-1.14-1.14Z"/><path class="cls-36" d="M1067.24,403.16h-2.3a3.42,3.42,0,0,1-3.41-3.42V386.5a3.42,3.42,0,0,1,3.41-3.42h2.3a3.42,3.42,0,0,1,3.42,3.42v13.24A3.42,3.42,0,0,1,1067.24,403.16Zm-2.3-17.8a1.14,1.14,0,0,0-1.13,1.14v13.24a1.14,1.14,0,0,0,1.13,1.14h2.3a1.14,1.14,0,0,0,1.14-1.14V386.5a1.14,1.14,0,0,0-1.14-1.14Z"/><path class="cls-36" d="M1057.69,423.38h-2.3A3.42,3.42,0,0,1,1052,420V406.72a3.42,3.42,0,0,1,3.42-3.41h2.3a3.42,3.42,0,0,1,3.42,3.41V420A3.42,3.42,0,0,1,1057.69,423.38Zm-2.3-17.8a1.14,1.14,0,0,0-1.14,1.14V420a1.14,1.14,0,0,0,1.14,1.14h2.3a1.14,1.14,0,0,0,1.14-1.14V406.72a1.14,1.14,0,0,0-1.14-1.14Z"/><ellipse class="cls-37" cx="1026.38" cy="438.25" rx="3.35" ry="3.93"/><path class="cls-38" d="M1026.38,443.32a5.1,5.1,0,1,1,4.49-5.07A4.81,4.81,0,0,1,1026.38,443.32Zm0-7.85a2.86,2.86,0,1,0,2.22,2.78A2.55,2.55,0,0,0,1026.38,435.47Z"/><ellipse class="cls-39" cx="1029.97" cy="432.6" rx="3.59" ry="4.21"/><path class="cls-38" d="M1030,438c-2.61,0-4.73-2.4-4.73-5.35s2.12-5.34,4.73-5.34,4.73,2.4,4.73,5.34S1032.58,438,1030,438Zm0-8.41c-1.35,0-2.45,1.37-2.45,3.06s1.1,3.07,2.45,3.07,2.46-1.38,2.46-3.07A2.81,2.81,0,0,0,1030,429.54Z"/><ellipse class="cls-40" cx="1034.55" cy="428.55" rx="3.16" ry="5.78"/><path class="cls-38" d="M1034.55,435.47c-2.46,0-4.31-3-4.31-6.92s1.85-6.92,4.31-6.92,4.3,3,4.3,6.92S1037,435.47,1034.55,435.47Zm0-11.57c-.83,0-2,1.81-2,4.65s1.2,4.64,2,4.64,2-1.81,2-4.64S1035.37,423.9,1034.55,423.9Z"/><ellipse class="cls-41" cx="1033.15" cy="439.91" rx="4.56" ry="7.31"/><path class="cls-38" d="M1033.15,448.36c-3.19,0-5.69-3.71-5.69-8.45s2.5-8.45,5.69-8.45,5.7,3.72,5.7,8.45S1036.35,448.36,1033.15,448.36Zm0-14.62c-1.82,0-3.41,2.89-3.41,6.17s1.59,6.17,3.41,6.17,3.42-2.88,3.42-6.17S1035,433.74,1033.15,433.74Z"/><ellipse class="cls-42" cx="1040.32" cy="432.18" rx="6.76" ry="6.08"/><path class="cls-38" d="M1040.32,439.39c-4.35,0-7.89-3.23-7.89-7.21s3.54-7.21,7.89-7.21,7.9,3.23,7.9,7.21S1044.67,439.39,1040.32,439.39Zm0-12.15c-3.1,0-5.62,2.22-5.62,4.94s2.52,4.94,5.62,4.94,5.62-2.22,5.62-4.94S1043.42,427.24,1040.32,427.24Z"/><ellipse class="cls-43" cx="1041.94" cy="440.89" rx="5.14" ry="8.29"/><path class="cls-38" d="M1041.94,450.32c-3.52,0-6.28-4.14-6.28-9.43s2.76-9.43,6.28-9.43,6.28,4.15,6.28,9.43S1045.46,450.32,1041.94,450.32Zm0-16.58c-2.17,0-4,3.28-4,7.15s1.83,7.15,4,7.15,4-3.27,4-7.15S1044.11,433.74,1041.94,433.74Z"/><rect class="cls-38" x="1031.38" y="444.41" width="6.33" height="24.06" rx="2.37"/><path class="cls-38" d="M1035.43,469.6h-1.77a3.42,3.42,0,0,1-3.42-3.42v-19.5a3.42,3.42,0,0,1,3.42-3.41h1.77a3.42,3.42,0,0,1,3.42,3.41v19.5A3.42,3.42,0,0,1,1035.43,469.6Zm-1.77-24.06a1.15,1.15,0,0,0-1.14,1.14v19.5a1.14,1.14,0,0,0,1.14,1.14h1.77a1.14,1.14,0,0,0,1.14-1.14v-19.5a1.15,1.15,0,0,0-1.14-1.14Z"/><circle class="cls-44" cx="997.47" cy="280.06" r="44.47"/><ellipse class="cls-45" cx="1021.08" cy="227.57" rx="28.96" ry="44.57"/><ellipse class="cls-46" cx="1068.72" cy="282.73" rx="40.13" ry="47.14"/><ellipse class="cls-47" cx="1064.57" cy="225.53" rx="29.52" ry="37"/><path d="M975.88,450.3a2.27,2.27,0,0,1-1.67-3.82l27.39-29.75a2.28,2.28,0,1,1,3.35,3.09l-27.39,29.74A2.29,2.29,0,0,1,975.88,450.3Z"/><rect x="1031.99" y="406.62" width="4.56" height="123.73" transform="translate(250.03 1289.55) rotate(-70.68)"/><rect x="1090.37" y="473.16" width="12.33" height="25.01" transform="translate(524.1 -568.18) rotate(37.6)"/><path d="M1096.54,488a2.29,2.29,0,0,1-2.12-1.43l-27.81-69.15a2.28,2.28,0,0,1,4.23-1.7l27.81,69.15a2.28,2.28,0,0,1-1.26,3A2.34,2.34,0,0,1,1096.54,488Z"/><rect x="1023.03" y="489.89" width="4.17" height="58.04" rx="1.56"/><rect x="1040.46" y="489.89" width="4.17" height="58.04" rx="1.56"/><rect x="994.07" y="544.69" width="33.45" height="14.27"/><rect x="1039.82" y="544.69" width="33.45" height="14.27"/><polygon class="cls-48" points="972.22 260 959.52 250.32 960.99 247.91 973.69 257.58 972.22 260"/><path class="cls-48" d="M975.53,272.46l-4.78-3.09a3.42,3.42,0,0,1-1-4.35l6-11.7a2.7,2.7,0,0,1,3.89-1.16l4.78,3.09a3.42,3.42,0,0,1,1,4.35l-6,11.7A2.69,2.69,0,0,1,975.53,272.46Z"/><polygon class="cls-48" points="975.77 266.08 984.94 273.06 984.5 273.79 975.33 266.81 975.77 266.08"/><polygon class="cls-48" points="977.79 263.83 986.95 270.82 986.51 271.55 977.34 264.57 977.79 263.83"/><polygon class="cls-48" points="975.77 260.11 984.94 267.09 984.5 267.82 975.33 260.84 975.77 260.11"/><polygon class="cls-48" points="977.52 257.95 986.69 264.93 986.25 265.67 977.08 258.68 977.52 257.95"/><polygon class="cls-48" points="982.96 255.33 992.12 262.31 991.68 263.04 982.51 256.06 982.96 255.33"/><polygon class="cls-48" points="974.38 269.43 983.55 276.42 983.11 277.15 973.94 270.17 974.38 269.43"/><polygon class="cls-48" points="981.97 256.95 991.14 263.93 990.69 264.66 981.53 257.68 981.97 256.95"/><rect x="1035.05" y="386.25" width="15.77" height="0.57"/><rect x="1042.46" y="378.77" width="0.57" height="14.35" transform="translate(-10.26 28.94) rotate(-1.58)"/><circle class="cls-10" cx="726" cy="379" r="83"/><polygon class="cls-9" points="775.08 376.75 700.68 424.13 696.84 336.01 775.08 376.75"/><circle class="cls-9" cx="1216" cy="74" r="47"/><circle class="cls-49" cx="1218.34" cy="73.42" r="20.14"/><rect class="cls-10" x="1227.39" y="43.35" width="16.93" height="16.93" transform="translate(398.61 -858.7) rotate(45)"/><rect class="cls-10" x="1236.14" y="63.78" width="16.93" height="16.93" transform="translate(1378.43 -1167.25) rotate(92.84)"/><rect class="cls-10" x="1229.14" y="84.8" width="16.93" height="16.93" transform="translate(2055.84 -839.92) rotate(126.94)"/><rect class="cls-10" x="1206.95" y="92.39" width="16.93" height="16.93" transform="translate(1488.2 -1087.84) rotate(98.18)"/><rect class="cls-10" x="1185.93" y="83.63" width="16.93" height="16.93" transform="translate(2215.88 -533.71) rotate(144.1)"/><rect class="cls-10" x="1182.43" y="57.36" width="16.93" height="16.93" transform="translate(2334.62 404.13) rotate(-166.69)"/><rect class="cls-10" x="1201.7" y="36.93" width="16.93" height="16.93" transform="translate(2420.99 24.25) rotate(176.85)"/><ellipse class="cls-50" cx="1051.5" cy="566.03" rx="64.5" ry="36.47"/><ellipse class="cls-51" cx="726.46" cy="718" rx="41.17" ry="46.97"/></svg>
