<svg id="Layer_1" data-name="Layer 1" xmlns="http://www.w3.org/2000/svg" width="500" height="100" viewBox="0 0 500 100"><defs><style>.cls-1{fill:#007eb6;}.cls-2{fill:#6dcffa;}.cls-3{fill:none;}</style></defs><title>toggle_sprite</title><rect class="cls-1" x="12.5" y="29.7" width="75" height="39.6" rx="19.8"/><ellipse class="cls-2" cx="32.68" cy="49.52" rx="17.32" ry="18.19"/><rect class="cls-3" width="100" height="99.01"/><rect class="cls-1" x="112.5" y="29.7" width="75" height="39.6" rx="19.8"/><ellipse class="cls-2" cx="139.68" cy="49.52" rx="17.32" ry="18.19"/><rect class="cls-3" x="100" width="100" height="99.01"/><rect class="cls-1" x="212.5" y="29.7" width="75" height="39.6" rx="19.8"/><ellipse class="cls-2" cx="249.68" cy="49.52" rx="17.32" ry="18.19"/><rect class="cls-3" x="200" width="100" height="99.01"/><rect class="cls-1" x="312.5" y="30.69" width="75" height="39.6" rx="19.8"/><ellipse class="cls-2" cx="359.68" cy="50.51" rx="17.32" ry="18.19"/><rect class="cls-3" x="300" y="0.99" width="100" height="99.01"/><rect class="cls-2" x="413.5" y="29.7" width="75" height="39.6" rx="19.8"/><ellipse class="cls-1" cx="468.68" cy="49.52" rx="17.32" ry="18.19"/><rect class="cls-3" x="400" width="100" height="99.01"/></svg>
